<svg width="250" height="373" viewBox="0 0 250 373" fill="none" xmlns="http://www.w3.org/2000/svg">
<path d="M76.4164 246.15L78.495 246.379C78.5492 246.379 78.6215 246.319 78.6818 246.325C79.8205 246.379 80.7303 244.592 80.9773 243.601C81.2545 242.472 80.5556 240.624 79.9892 240.34C79.4229 240.056 77.2237 239.132 76.6694 238.885C76.6556 238.879 76.6404 238.876 76.6253 238.878C76.6102 238.879 76.5957 238.884 76.5831 238.892C76.5705 238.901 76.5603 238.912 76.5532 238.926C76.5462 238.939 76.5427 238.954 76.5429 238.969L76.332 246.053C76.3318 246.077 76.3403 246.1 76.3559 246.118C76.3714 246.136 76.393 246.147 76.4164 246.15Z" fill="#E7E8E9"/>
<path d="M151.247 362.006C151.403 362.577 151.605 363.134 151.849 363.673C152.976 366.215 155.018 368.172 157.79 368.601C161.146 369.12 198.645 368.534 199.838 368.673C200.502 368.595 201.121 368.298 201.598 367.828C203.749 366.071 206.201 361.982 201.929 359.119C201.363 358.739 196.344 354.065 183.619 352.99C179.106 352.609 173.593 351.951 170.967 350.054C170.304 349.591 169.685 349.067 169.117 348.49C168.866 348.252 168.662 347.97 168.514 347.657C168.484 347.589 168.469 347.514 168.472 347.439L167.502 346.461L161.176 345.899L153.603 347.814C153.695 348.491 153.695 349.178 153.603 349.855C153.563 350.182 153.507 350.507 153.434 350.827L153.343 351.172C152.837 353.056 150.343 358.685 151.247 362.006Z" fill="#515A60"/>
<g style="mix-blend-mode:multiply" opacity="0.2">
<path d="M151.247 362.006C151.403 362.577 151.605 363.134 151.849 363.673C152.976 366.215 155.018 368.172 157.79 368.601C161.146 369.12 198.645 368.534 199.838 368.673C200.502 368.595 201.121 368.298 201.598 367.828C203.749 366.07 206.201 361.982 201.929 359.119C201.363 358.739 196.344 354.065 183.619 352.99C179.106 352.609 173.593 351.951 170.967 350.054C170.304 349.591 169.685 349.067 169.117 348.49C168.866 348.252 168.662 347.97 168.514 347.657C168.484 347.589 168.469 347.514 168.472 347.439L167.502 346.461L161.176 345.899L153.603 347.814C153.695 348.491 153.695 349.178 153.603 349.855C153.563 350.182 153.507 350.507 153.434 350.827L153.343 351.172C152.837 353.056 150.343 358.685 151.247 362.006Z" fill="#515A60"/>
</g>
<g style="mix-blend-mode:multiply" opacity="0.4">
<path d="M151.843 363.673C152.97 366.215 155.012 368.172 157.784 368.601C161.14 369.12 198.639 368.534 199.832 368.673C200.496 368.595 201.115 368.298 201.592 367.828H158.778C158.778 367.828 155.976 367.761 153.44 364.917C152.998 364.398 152.454 363.974 151.843 363.673Z" fill="#515A60"/>
</g>
<g style="mix-blend-mode:multiply" opacity="0.4">
<path d="M153.44 350.834C154.23 351.504 155.778 352.754 155.778 352.754L156.17 352.325C157.158 351.275 159.297 350.665 159.297 350.665C159.297 350.665 160.128 351.577 160.652 352.06C160.907 352.3 161.203 352.493 161.526 352.627C161.526 352.627 161.562 352.627 161.622 351.909C161.737 350.701 163.267 350.097 163.267 350.097C163.267 350.097 163.785 350.483 164.623 351.196C165.106 351.625 165.663 351.96 166.268 352.187C166.228 351.988 166.216 351.785 166.232 351.583C166.232 351.099 166.123 351.287 166.834 350.683C167.159 350.393 168.256 349.3 169.118 348.46L169.804 347.814L169.991 347.651C169.184 347.5 170.027 347.844 169.148 347.711L168.545 347.627C168.081 347.56 167.635 347.506 167.202 347.464C160.755 346.86 155.989 347.609 153.633 349.813C153.588 350.157 153.523 350.497 153.44 350.834Z" fill="#515A60"/>
</g>
<path d="M111.572 362.007C111.416 362.577 111.215 363.135 110.97 363.674C109.843 366.216 107.801 368.173 105.029 368.602C101.673 369.121 64.1739 368.535 62.9809 368.674C62.3172 368.596 61.6983 368.298 61.2216 367.829C59.0707 366.071 56.6185 361.983 60.8902 359.12C61.4566 358.74 66.4754 354.065 79.2002 352.99C83.7129 352.61 89.2258 351.951 91.8527 350.055C92.5155 349.591 93.1347 349.068 93.7024 348.491C93.9528 348.253 94.1571 347.97 94.3049 347.658C94.3355 347.589 94.35 347.515 94.347 347.44L95.3171 346.462L101.643 345.9L109.217 347.815C109.124 348.492 109.124 349.179 109.217 349.856C109.256 350.183 109.312 350.507 109.385 350.828L109.476 351.172C109.982 353.057 112.476 358.685 111.572 362.007Z" fill="#515A60"/>
<g style="mix-blend-mode:multiply" opacity="0.2">
<path d="M110.976 363.673C109.849 366.215 107.807 368.172 105.035 368.601C101.679 369.12 64.1798 368.534 62.9868 368.673C62.3231 368.595 61.7042 368.298 61.2275 367.828H104.041C104.041 367.828 106.843 367.761 109.379 364.917C109.822 364.398 110.365 363.974 110.976 363.673Z" fill="#515A60"/>
</g>
<g style="mix-blend-mode:multiply" opacity="0.2">
<path d="M109.379 350.834C108.59 351.504 107.042 352.754 107.042 352.754L106.65 352.325C105.662 351.275 103.523 350.665 103.523 350.665C103.523 350.665 102.692 351.577 102.167 352.06C101.913 352.3 101.617 352.493 101.294 352.627C101.294 352.627 101.258 352.627 101.197 351.909C101.083 350.701 99.5525 350.097 99.5525 350.097C99.5525 350.097 99.0344 350.483 98.1969 351.196C97.7138 351.625 97.1563 351.96 96.5521 352.187C96.5918 351.988 96.604 351.785 96.5882 351.583C96.5882 351.099 96.6967 351.287 95.9857 350.683C95.6604 350.393 94.5638 349.3 93.7022 348.46L93.0154 347.814L92.8286 347.651C93.636 347.5 92.7925 347.844 93.6721 347.711L94.2746 347.627C94.7385 347.56 95.1844 347.506 95.6182 347.464C102.065 346.86 106.831 347.609 109.186 349.813C109.232 350.157 109.296 350.497 109.379 350.834Z" fill="#515A60"/>
</g>
<path d="M0.74469 354.88C1.00376 362.477 8.49282 367.133 18.4341 370.672C24.5162 372.781 31.062 373.162 37.3465 371.771L37.8225 371.439C38.0049 371.158 38.12 370.838 38.1586 370.505C38.1973 370.172 38.1586 369.834 38.0454 369.519C37.6538 368.42 29.0621 365.146 23.2119 360.732C22.5192 360.23 21.8989 359.634 21.3682 358.962C18.5606 355.278 22.3864 351.999 26.9172 349.022C32.171 345.573 55.2347 341.69 66.5135 338.84C77.7923 335.989 83.4678 334.304 83.4678 334.304C83.4678 334.304 84.0161 331.013 84.48 328.048C84.8114 325.898 85.0825 323.917 85.0825 323.482C85.0825 322.449 77.6838 296.221 76.4788 297.169C76.3021 297.31 76.0852 297.497 75.8281 297.731C73.0567 300.444 70.1296 302.993 67.0618 305.365C61.9465 309.248 38.437 320.209 20.6151 329.956C2.79317 339.703 0.491638 347.289 0.74469 354.88Z" fill="#4D9BE2"/>
<g style="mix-blend-mode:multiply" opacity="0.16">
<path d="M21.3684 358.956C18.5608 355.272 22.3866 351.993 26.9174 349.016C32.1712 345.568 55.2349 341.684 66.5137 338.834C77.7925 335.983 83.4681 334.298 83.4681 334.298C85.2451 338.047 87.3692 341.619 89.8124 344.97C92.7827 348.678 94.4155 349.626 95.4518 350.363C96.4881 351.099 96.2712 351.915 96.2712 351.915C96.8515 351.719 97.3807 351.395 97.8196 350.967L97.9341 350.87C96.8372 349.851 95.8498 348.719 94.9879 347.494C92.7442 344.515 90.6935 341.394 88.8484 338.151C87.6976 335.941 85.1912 331.557 83.4922 328.38C82.962 327.384 82.3776 325.62 82.004 325.077C80.4194 322.782 80.2989 323.718 79.5217 323.947C79.4036 323.992 79.2906 324.048 79.1843 324.116C77.1478 325.228 67.2247 331.635 56.0784 335.44C44.0284 339.553 25.9113 345.332 22.6397 347.518C21.5294 348.237 20.5859 349.187 19.8728 350.303C19.1598 351.418 18.6939 352.674 18.5065 353.986C18.4342 355.061 19.0849 357.38 21.3684 358.956Z" fill="#4D9BE2"/>
</g>
<path d="M150.577 284.119C150.186 284.668 149.818 284.916 149.619 284.517C149.499 284.276 149.975 284.179 150.577 284.119Z" fill="#DBF0FD"/>
<g style="mix-blend-mode:multiply" opacity="0.5">
<path d="M147.5 65.9468C147.676 65.9468 147.819 65.8035 147.819 65.6267C147.819 65.45 147.676 65.3066 147.5 65.3066C147.323 65.3066 147.18 65.45 147.18 65.6267C147.18 65.8035 147.323 65.9468 147.5 65.9468Z" fill="#515A60"/>
</g>
<path d="M186.969 307.913C186.616 313.436 185.491 318.883 183.625 324.092C182.419 327.581 180.994 330.99 179.359 334.298C177.582 338.046 175.458 341.619 173.015 344.969C170.044 348.677 168.412 349.626 167.375 350.362C166.339 351.099 166.556 351.914 166.556 351.914C165.976 351.718 165.447 351.394 165.008 350.966L164.893 350.87C163.923 350.06 163.2 349.541 163.2 349.541L162.555 350.272C162.125 350.927 161.887 351.691 161.869 352.476L161.091 351.824C160.491 351.273 159.944 350.667 159.459 350.012C158.946 350.271 158.456 350.575 157.994 350.918C157.303 351.376 156.693 351.945 156.187 352.603C155.994 352.458 152.801 350.073 151.463 347.56C150.126 345.048 149.011 342.862 149.011 342.862C149.011 342.862 167.906 335.077 176.527 320.456C186.167 304.151 186.993 297.731 186.993 297.731C186.565 301.034 187.131 304.495 186.969 307.913Z" fill="#4D9BE2"/>
<g style="mix-blend-mode:multiply" opacity="0.4">
<path d="M186.969 307.913C186.616 313.436 185.491 318.883 183.625 324.092C182.419 327.581 180.994 330.99 179.359 334.298C177.582 338.046 175.458 341.619 173.015 344.969C170.044 348.677 168.412 349.626 167.375 350.362C166.339 351.099 166.556 351.914 166.556 351.914C165.976 351.718 165.447 351.394 165.008 350.966L164.893 350.87C163.923 350.06 163.2 349.541 163.2 349.541L162.555 350.272C162.125 350.927 161.887 351.691 161.869 352.476L161.091 351.824C160.491 351.273 159.944 350.667 159.459 350.012C158.946 350.271 158.456 350.575 157.994 350.918C157.303 351.376 156.693 351.945 156.187 352.603C155.994 352.458 152.801 350.073 151.463 347.56C150.126 345.048 149.011 342.862 149.011 342.862C149.011 342.862 167.906 335.077 176.527 320.456C186.167 304.151 186.993 297.731 186.993 297.731C186.565 301.034 187.131 304.495 186.969 307.913Z" fill="#4D9BE2"/>
</g>
<g style="mix-blend-mode:multiply" opacity="0.2">
<path d="M187.987 270.089C187.987 279.541 188.957 282.53 186.993 297.725C186.993 297.725 186.155 305.932 176.528 322.262C167.906 336.883 149.011 344.667 149.011 344.667L143.848 345.573C142.161 345.875 140.203 346.099 138.347 346.268C135.546 346.527 132.925 346.66 131.756 346.709H131.069C127.018 346.557 122.979 346.178 118.971 345.573C113.844 344.673 113 344.426 113 344.426L77.9346 279.499C78.0008 279.118 78.0611 278.756 78.1274 278.411L78.3804 277.053C78.4226 276.859 78.4587 276.672 78.4949 276.497C78.531 276.322 78.5551 276.213 78.5792 276.074C78.5829 276.065 78.5829 276.054 78.5792 276.044C78.6094 275.923 78.6335 275.797 78.6576 275.682C78.7961 275.042 78.9227 274.504 79.0251 274.093C79.0251 274.015 79.0733 273.942 79.0914 273.87C79.1094 273.798 79.1637 273.598 79.1998 273.49C79.3022 273.169 79.3926 272.886 79.477 272.547C79.5613 272.209 79.6396 271.944 79.6999 271.623C79.8141 271.098 79.8946 270.565 79.9409 270.029C79.9409 269.848 79.971 269.661 79.977 269.474C79.9831 269.286 79.977 268.966 79.977 268.707L162.586 269.31L187.891 269.643C187.915 269.793 187.947 269.942 187.987 270.089Z" fill="#515A60"/>
</g>
<path d="M188.957 268.036C188.957 277.487 188.957 282.53 186.993 297.725C186.993 297.725 186.156 304.12 176.528 320.45C167.906 335.071 149.012 342.856 149.012 342.856L143.848 343.761C139.842 344.366 135.805 344.745 131.756 344.897H131.413V98.1658C131.413 98.1658 135.449 98.8361 146.843 93.8961C159.79 88.2796 171.28 79.8368 175.003 68.453C173.419 79.1967 171.202 92.0964 170.153 99.8568C169.936 101.421 169.774 102.774 169.671 103.855C168.81 113.004 170.768 138.326 171.057 146.443C171.057 146.824 171.057 147.168 171.087 147.47C171.087 147.584 171.087 147.711 171.087 147.844C171.226 150.864 172.328 157.863 173.594 165.104C173.596 165.144 173.596 165.185 173.594 165.225C173.594 165.255 173.594 165.297 173.594 165.346C175.172 174.374 176.986 183.741 177.48 186.272L177.612 186.936C177.612 186.936 178.257 189.913 179.293 194.962C180.33 200.011 182.908 210.102 185.746 227.314C188.584 244.526 188.957 267.094 188.957 268.036Z" fill="#4D9BE2"/>
<path d="M162.598 267.493C161.095 277.483 159.041 287.382 156.446 297.145C154.083 306.1 151.202 314.91 147.819 323.53C145.073 330.682 141.911 337.665 138.347 344.444C135.546 344.704 132.925 344.836 131.756 344.885H131.069C127.019 344.733 122.979 344.354 118.971 343.749L113.808 342.844C113.808 342.844 112.735 344.957 111.355 347.542C109.976 350.127 106.62 352.591 106.62 352.591C106.114 351.933 105.504 351.364 104.812 350.906C104.352 350.564 103.864 350.261 103.354 350C102.868 350.656 102.319 351.262 101.715 351.812L100.944 352.464C100.922 351.679 100.682 350.916 100.251 350.26L99.6067 349.529C99.6067 349.529 98.8355 350.091 97.7992 350.954C97.4346 351.281 97.0296 351.559 96.5942 351.782C96.4934 351.835 96.386 351.876 96.2749 351.902C96.2749 351.902 96.4918 351.081 95.4555 350.35C94.4192 349.62 92.7864 348.665 89.8222 344.957C86.8579 341.249 76.6515 324.333 75.8743 307.901C75.6824 303.491 75.7266 299.074 76.0069 294.669L76.0611 293.799C76.1695 292.12 76.3021 290.492 76.4587 288.914C76.462 288.869 76.462 288.825 76.4587 288.781C76.5491 287.814 76.6515 286.866 76.76 285.954C76.8022 285.598 76.8443 285.242 76.8865 284.898C76.9287 284.553 76.9889 284.1 77.0371 283.69L77.0733 283.412C77.1998 282.458 77.3263 281.54 77.4589 280.676C77.5252 280.241 77.5914 279.819 77.6517 279.414C77.6878 279.209 77.718 279.003 77.7541 278.81C77.8204 278.411 77.8806 278.031 77.9469 277.657C78.0132 277.282 78.0734 276.914 78.1397 276.57C78.2241 276.086 78.3084 275.633 78.3928 275.211C78.4349 275.017 78.4711 274.83 78.5072 274.655C78.5434 274.48 78.5675 274.371 78.5916 274.232C78.5953 274.223 78.5953 274.212 78.5916 274.202C78.6217 274.081 78.6458 273.955 78.6699 273.84C78.8085 273.2 78.935 272.662 79.0374 272.251C79.0374 272.173 79.0856 272.1 79.1037 272.028C79.1218 271.956 79.176 271.756 79.2122 271.648C79.3146 271.327 79.405 271.044 79.4893 270.705C79.5737 270.367 79.652 270.102 79.7122 269.781C79.8231 269.255 79.9036 268.723 79.9532 268.187C79.9532 268 79.9834 267.819 79.9894 267.631C79.9954 267.444 79.9894 267.124 79.9894 266.865C79.9894 266.605 79.9894 266.309 79.9532 266.025C79.8911 265.26 79.7723 264.501 79.5977 263.754C78.9531 260.904 74.1753 244.471 77.013 227.26C79.8508 210.048 82.4355 199.956 83.4718 194.908C84.5081 189.859 85.1468 186.881 85.1468 186.881C85.1468 186.881 91.6055 154.143 91.7321 147.415C91.8586 140.688 94.0577 113.379 93.154 103.8C93.0515 102.719 92.8889 101.385 92.678 99.8024C91.6236 92.0541 89.3944 79.1424 87.8098 68.3987C91.5212 79.8006 103.023 88.2555 115.983 93.878C127.376 98.818 131.413 98.1477 131.413 98.1477C131.413 98.1477 134.522 98.6671 142.993 95.4421C145.565 112.799 148.018 131.291 151.163 143.007C156.585 163.196 162.791 194.775 164.906 220.139C165.96 232.81 165.309 249.454 162.598 267.493Z" fill="#4D9BE2"/>
<g style="mix-blend-mode:multiply" opacity="0.4">
<path d="M188.958 268.036C188.958 277.488 188.958 282.53 186.993 297.725C186.993 297.725 186.156 304.12 176.528 320.45C167.906 335.071 149.012 342.856 149.012 342.856L143.848 343.762C142.161 344.064 140.203 344.287 138.348 344.456C141.911 337.677 145.074 330.694 147.819 323.542C151.202 314.922 154.083 306.112 156.447 297.157C159.042 287.39 161.095 277.487 162.598 267.493C165.309 249.442 165.96 232.798 164.906 220.145C162.791 194.781 156.585 163.202 151.163 143.013C148.018 131.297 145.566 112.817 142.993 95.4482C144.198 95.0074 145.451 94.488 146.843 93.8841C159.791 88.2676 171.28 79.8249 175.004 68.441C173.419 79.1847 171.202 92.0844 170.154 99.8448C169.937 101.409 169.774 102.762 169.672 103.843C168.81 112.992 170.768 138.314 171.057 146.431C171.057 146.812 171.057 147.156 171.087 147.458C171.087 147.572 171.087 147.699 171.087 147.832C171.226 150.852 172.329 157.851 173.594 165.092C173.597 165.132 173.597 165.173 173.594 165.213C173.594 165.243 173.594 165.285 173.594 165.334C175.172 174.362 176.986 183.729 177.48 186.26L177.612 186.924C177.612 186.924 178.257 189.901 179.293 194.95C180.33 199.999 182.908 210.09 185.746 227.302C188.439 243.608 188.855 264.703 188.891 267.716C188.958 267.873 188.958 267.988 188.958 268.036Z" fill="#4D9BE2"/>
</g>
<path d="M165.986 219.075C163.871 193.711 157.666 162.132 152.243 141.943C149.098 130.227 146.646 111.747 144.073 94.3781C141.178 95.5493 138.167 96.4077 135.09 96.9387C134.97 96.9387 134.855 96.975 134.747 96.987C134.638 96.9991 134.391 97.0353 134.229 97.0474H134.144C133.957 97.0474 133.789 97.0837 133.638 97.0897C133.257 97.1286 132.874 97.1286 132.493 97.0897C132.195 97.1177 131.894 97.1177 131.596 97.0897H131.216H130.854L130.505 97.0535L130.222 97.0172C129.941 96.981 129.627 96.9327 129.282 96.8723C127.464 96.5356 125.672 96.0694 123.92 95.4772L122.956 95.1572L121.877 94.7706C120.443 94.2513 118.865 93.6172 117.057 92.8442C108.689 89.2206 100.928 84.3893 95.4878 78.3501C96.3975 83.0727 104.525 87.2941 105.507 91.6363C106.237 95.7094 106.626 99.8364 106.67 103.974C106.279 117.689 107.339 124.852 105.64 138.18C103.832 152.36 104.911 170.037 97.8375 197.582C88.8 232.796 91.0473 255.045 95.9517 266.429C100.856 277.812 104.043 284.456 111.707 290.754C116.804 294.946 125.305 300.139 133.813 300.139C140.507 300.139 150.333 299.602 157.521 296.063C165.209 267.244 167.607 238.467 165.986 219.075ZM150.701 283.435C150.58 283.193 151.056 283.097 151.659 283.036C151.267 283.586 150.9 283.834 150.701 283.435Z" fill="#DBF0FD"/>
<path d="M174.665 197.378C168.206 169.658 166.152 151.909 163.561 137.849C161.886 128.664 162.356 113.632 163.959 101.651C164.369 98.6309 164.845 95.8106 165.411 93.1957C166.369 88.8354 167.502 84.1369 168.423 79.4022C163.001 85.4414 155.223 90.2425 146.854 93.8962C145.462 94.5001 144.185 95.0195 143.004 95.4604C145.577 112.817 148.029 131.309 151.174 143.025C156.596 163.214 162.802 194.793 164.917 220.158C166.538 239.549 164.14 268.326 156.482 297.157C158.242 296.328 159.867 295.237 161.302 293.92C173.039 282.887 178.172 273.055 180.094 264.648C183.263 250.613 181.118 225.073 174.665 197.378Z" fill="#DBF0FD"/>
<g style="mix-blend-mode:multiply" opacity="0.5">
<path d="M174.665 197.378C168.206 169.658 166.152 151.909 163.561 137.849C161.886 128.664 162.356 113.632 163.959 101.651C164.369 98.6309 164.845 95.8106 165.411 93.1957C166.369 88.8354 167.502 84.1369 168.423 79.4022C163.001 85.4414 155.223 90.2425 146.854 93.8962C145.462 94.5001 144.185 95.0195 143.004 95.4604C145.577 112.817 148.029 131.309 151.174 143.025C156.596 163.214 162.802 194.793 164.917 220.158C166.538 239.549 164.14 268.326 156.482 297.157C158.242 296.328 159.867 295.237 161.302 293.92C173.039 282.887 178.172 273.055 180.094 264.648C183.263 250.613 181.118 225.073 174.665 197.378Z" fill="#DBF0FD"/>
</g>
<path d="M164.906 220.157C162.791 194.793 156.585 163.214 151.163 143.025C148.018 131.309 145.565 112.829 142.993 95.4603C140.098 96.6315 137.086 97.4899 134.009 98.0209C133.889 98.0209 133.774 98.0571 133.666 98.0692C133.558 98.0813 133.311 98.1175 133.148 98.1296H133.064C132.877 98.1296 132.708 98.1658 132.557 98.1719C132.177 98.2108 131.793 98.2108 131.413 98.1719C131.114 98.1999 130.814 98.1999 130.515 98.1719H130.135H129.774L129.424 98.1357L129.141 98.0994C128.86 98.0632 128.547 98.0149 128.201 97.9545C126.383 97.6178 124.591 97.1516 122.839 96.5594L121.875 96.2393L120.797 95.8528C119.363 95.3335 117.784 94.6994 115.977 93.9263C107.608 90.3028 99.8478 85.4715 94.4072 79.4323C95.317 84.1549 103.445 88.3763 104.427 92.7185C105.157 96.7915 105.546 100.919 105.59 105.057C105.198 118.772 106.258 125.934 104.559 139.263C102.752 153.443 103.83 171.119 96.7569 198.664C87.7194 233.879 89.9668 256.127 94.8711 267.511C99.7755 278.895 102.963 285.538 110.626 291.837C115.724 296.028 124.225 301.222 132.732 301.222C139.426 301.222 149.253 300.684 156.441 297.145C164.128 268.326 166.526 239.549 164.906 220.157ZM149.62 284.517C149.5 284.276 149.976 284.179 150.578 284.119C150.187 284.668 149.819 284.916 149.62 284.517Z" fill="#DBF0FD"/>
<path d="M93.0559 155.112C93.0559 155.112 99.0828 157.206 101.308 165.606C103.533 174.007 102.487 183.449 100.654 187.257C99.5625 189.512 98.6152 191.833 97.8175 194.207C98.9675 196.067 100.615 197.567 102.573 198.536C106.027 200.373 111.13 202.822 111.13 202.822L114.138 220.732L112.377 221.442C112.377 221.442 89.5229 220.126 82.188 215.276C73.8872 209.766 69.6146 205.369 70.5315 195.921C71.4484 186.474 79.9936 167.192 84.1867 161.982C88.3799 156.771 90.2014 155.412 91.21 155.118C91.8116 154.936 92.4531 154.934 93.0559 155.112Z" fill="#4D9BE2"/>
<path d="M217.276 192.76C217.276 192.76 216.807 192.94 215.988 193.233L215.517 193.401C212.036 194.611 204.082 197.124 198.074 197.128C193.609 197.108 189.142 196.84 184.691 196.326C183.887 196.232 179.069 195.56 179.069 195.56C179.069 195.56 178.287 194.715 177.114 193.248C174.181 189.574 173.207 182.58 171.76 174.584C169.759 163.389 172.168 159.091 172.168 159.091L173.081 159.665C175.314 161.065 177.456 162.633 179.489 164.354C182.455 166.967 193.976 173.376 198.499 175.136C202.279 176.604 210.025 177.638 212.464 177.941L212.966 178.002L213.224 178.031L215.259 185.467L217.276 192.76Z" fill="#4D9BE2"/>
<g style="mix-blend-mode:multiply" opacity="0.4">
<path d="M217.276 192.76C217.276 192.76 216.807 192.94 215.988 193.233L215.517 193.401C212.036 194.611 204.082 197.124 198.074 197.128C193.609 197.108 189.142 196.84 184.691 196.326C183.887 196.232 179.069 195.56 179.069 195.56C179.069 195.56 178.287 194.715 177.114 193.248C174.181 189.574 173.207 182.58 171.76 174.584C169.759 163.389 172.168 159.091 172.168 159.091L173.081 159.665C175.314 161.065 177.456 162.633 179.489 164.354C182.455 166.967 193.976 173.376 198.499 175.136C202.279 176.604 210.025 177.638 212.464 177.941L212.966 178.002L213.224 178.031L215.259 185.467L217.276 192.76Z" fill="#4D9BE2"/>
</g>
<path d="M156.192 203.686C156.192 205.131 155.874 206.349 155.043 207.078C154.538 207.507 153.907 207.761 153.246 207.8C153.099 207.8 152.946 207.8 152.787 207.8H145.556H141.987C142.724 208.822 143.126 210.048 143.136 211.309C143.137 212.088 142.967 212.859 142.639 213.565C142.31 214.272 141.831 214.898 141.235 215.399C140.694 215.751 140.116 216.043 139.511 216.268C138.635 216.606 137.725 216.848 136.797 216.991H136.73C136.73 216.991 138.564 217.836 138.203 221.057C137.885 223.818 135.66 224.577 133.717 224.975C131.773 225.373 123.71 226.2 120.324 225.183C117.659 224.381 114.707 223.261 113.845 222.691C113.311 222.338 112.817 221.927 112.372 221.467C112.372 221.467 110.019 219.826 109.621 215.166C109.224 210.507 108.643 207.163 111.131 202.834C113.619 198.505 117.091 193.717 117.61 190.105C118.13 186.492 118.466 181.251 117.873 179.94C117.28 178.63 119.096 176.132 121.217 176.787C123.338 177.442 127.94 181.379 126.913 186.431C125.886 191.482 125.208 194.305 127.372 196.932C129.536 199.559 133.331 199.993 138.044 200.146C142.757 200.299 150.226 200.471 151.492 200.606C152.757 200.74 156.192 201.298 156.192 203.686Z" fill="#515A60"/>
<g style="mix-blend-mode:multiply" opacity="0.2">
<path d="M155.043 207.047C154.385 207.491 153.616 207.741 152.824 207.77H132.329C131.925 207.598 131.663 207.341 131.638 207.047H155.043Z" fill="#515A60"/>
</g>
<g style="mix-blend-mode:multiply" opacity="0.2">
<path d="M139.517 216.238C138.64 216.575 137.73 216.817 136.803 216.96H131.613C131.465 216.899 131.335 216.8 131.236 216.674C131.138 216.547 131.074 216.397 131.051 216.238H139.517Z" fill="#515A60"/>
</g>
<path d="M246.124 176.322C246.238 177.711 246.029 178.909 245.288 179.675C244.836 180.129 244.25 180.423 243.617 180.513C243.476 180.525 243.329 180.537 243.176 180.55L236.221 181.125L232.788 181.408C233.578 182.332 234.062 183.48 234.172 184.691C234.235 185.441 234.133 186.195 233.873 186.901C233.613 187.607 233.202 188.247 232.668 188.776C232.176 189.158 231.643 189.485 231.079 189.75C230.263 190.144 229.408 190.449 228.527 190.66L228.462 190.666C228.462 190.666 230.293 191.332 230.202 194.459C230.115 197.14 228.035 198.047 226.198 198.584C224.36 199.122 216.671 200.558 213.334 199.849C210.707 199.29 207.778 198.447 206.904 197.968C206.363 197.67 205.855 197.315 205.39 196.907C205.39 196.907 202.997 195.516 202.245 191.066C201.492 186.616 200.668 183.447 202.717 179.085C204.766 174.724 207.725 169.843 207.938 166.327C208.151 162.811 208.058 157.744 207.384 156.531C206.71 155.317 208.257 152.77 210.349 153.232C212.441 153.693 217.181 157.114 216.594 162.054C216.007 166.994 215.579 169.763 217.869 172.117C220.158 174.472 223.844 174.588 228.388 174.361C232.933 174.133 240.131 173.704 241.358 173.733C242.586 173.762 245.934 174.025 246.124 176.322Z" fill="#515A60"/>
<g style="mix-blend-mode:multiply" opacity="0.2">
<path d="M246.123 176.322C246.238 177.711 246.029 178.909 245.287 179.675C244.836 180.129 244.249 180.423 243.616 180.513C243.475 180.525 243.328 180.537 243.175 180.55L236.221 181.125L232.787 181.408C233.578 182.332 234.062 183.48 234.171 184.691C234.234 185.441 234.132 186.195 233.873 186.901C233.613 187.607 233.201 188.247 232.668 188.776C232.175 189.158 231.643 189.485 231.079 189.75C230.263 190.144 229.407 190.449 228.526 190.66L228.461 190.666C228.461 190.666 230.292 191.332 230.201 194.459C230.115 197.14 228.035 198.047 226.197 198.584C224.359 199.122 216.671 200.558 213.333 199.849C210.706 199.29 207.778 198.447 206.904 197.968C206.362 197.67 205.854 197.315 205.39 196.907C205.39 196.907 202.996 195.516 202.244 191.066C201.492 186.616 200.668 183.447 202.717 179.085C204.766 174.724 207.725 169.843 207.938 166.327C208.151 162.811 208.058 157.744 207.383 156.531C206.709 155.317 208.257 152.77 210.349 153.232C212.441 153.693 217.18 157.114 216.594 162.054C216.007 166.994 215.579 169.763 217.868 172.117C220.158 174.472 223.843 174.588 228.388 174.361C232.933 174.133 240.13 173.704 241.358 173.733C242.585 173.762 245.933 174.025 246.123 176.322Z" fill="#515A60"/>
</g>
<g style="mix-blend-mode:multiply" opacity="0.2">
<path d="M245.284 179.646C244.687 180.125 243.968 180.427 243.208 180.517L223.496 182.147C223.094 182.014 222.821 181.787 222.774 181.507L245.284 179.646Z" fill="#515A60"/>
</g>
<g style="mix-blend-mode:multiply" opacity="0.2">
<path d="M231.081 189.72C230.265 190.114 229.409 190.419 228.528 190.63L223.537 191.043C223.39 190.996 223.257 190.911 223.152 190.797C223.047 190.683 222.974 190.544 222.939 190.393L231.081 189.72Z" fill="#515A60"/>
</g>
<path d="M150.577 284.119C150.186 284.668 149.818 284.916 149.619 284.517C149.499 284.276 149.975 284.179 150.577 284.119Z" fill="#DBF0FD"/>
<path d="M46.9604 238.946H47.1106V239.259L46.9604 238.946Z" fill="#3F9BD6"/>
<path d="M77.9347 277.687L113.808 342.856C113.808 342.856 112.735 344.969 111.355 347.554C109.976 350.139 106.62 352.603 106.62 352.603C106.114 351.945 105.503 351.376 104.812 350.918C104.352 350.576 103.864 350.273 103.354 350.012C102.868 350.668 102.319 351.274 101.715 351.824L100.944 352.476C100.922 351.691 100.682 350.928 100.251 350.272L99.6066 349.541C99.6066 349.541 98.8354 350.103 97.7991 350.966C97.4345 351.293 97.0295 351.571 96.5941 351.794C96.4932 351.847 96.3859 351.888 96.2748 351.914C96.2748 351.914 96.4917 351.093 95.4554 350.362C94.4191 349.632 92.7863 348.677 89.822 344.969C86.8577 341.261 76.6514 324.346 75.8742 307.913C75.3139 296.426 76.7237 284.686 77.9347 277.687Z" fill="#4D9BE2"/>
<path d="M95.8408 352.603H95.9331C95.92 352.613 95.9037 352.619 95.8869 352.619C95.8702 352.619 95.8539 352.613 95.8408 352.603Z" fill="#515A60"/>
<path d="M68.4503 358.195H68.3005L68.2466 358.189L68.4503 358.195Z" fill="#515A60"/>
<path d="M133.278 85.654C133.149 85.512 133 85.3894 132.836 85.2903L133.278 85.654Z" fill="#2E98D5"/>
<path d="M133.278 85.654C133.149 85.512 133 85.3894 132.836 85.2903L133.278 85.654Z" fill="#DBF0FD"/>
<g opacity="0.33">
<path opacity="0.33" d="M133.278 85.6539C133.149 85.5119 133.001 85.3894 132.837 85.2903L133.278 85.6539Z" fill="#535C62"/>
</g>
<g opacity="0.33">
<path opacity="0.33" d="M133.721 86.2292L133.318 86.2563L133.278 85.6539C133.459 85.8177 133.609 86.0125 133.721 86.2292Z" fill="#535C62"/>
</g>
<path d="M133.729 86.259L133.32 86.2865L133.278 85.6539C133.464 85.8322 133.615 86.0437 133.724 86.2775L133.729 86.259Z" fill="#E6F4FD"/>
<path d="M133.278 85.654C133.149 85.512 133 85.3894 132.836 85.2903L133.278 85.654Z" fill="#E6F4FD"/>
<g opacity="0.3">
<path opacity="0.3" d="M183.276 53.4621C183.39 57.1571 183.037 63.2432 182.493 70.1769C182.469 70.4448 182.451 70.7122 182.426 70.9801C179.046 84.2695 166.552 94.7888 152.212 102.201C139.589 108.718 134.924 108.257 134.924 108.257C134.924 108.257 130.357 109.338 116.977 104.568C101.746 99.1349 87.9581 90.3623 82.8453 77.6251C81.7 72.2568 80.7183 67.4342 80.1011 63.7245C79.9088 62.4789 79.7503 61.3763 79.65 60.4211C78.4341 48.7714 76.213 35.5556 88.0093 25.9786C99.8056 16.4015 117.078 9.03401 122.784 7.91269C125.557 7.36351 126.958 7.09393 127.715 6.94025L128.527 6.88573C129.267 6.93885 130.716 7.01699 133.531 7.19099C139.336 7.55135 157.452 12.5726 170.406 20.4452C183.36 28.3178 182.945 41.7711 183.276 53.4621Z" fill="#525B61"/>
<path opacity="0.3" d="M80.7292 65.3718C77.6303 64.0486 74.7948 62.1769 72.3587 59.8465C68.4789 56.0528 65.2068 52.309 66.2592 49.1704C67.3117 46.0318 71.4272 42.9779 74.3737 40.6017C77.3202 38.2254 81.7256 36.7919 81.7256 36.7919C81.7256 36.7919 79.96 52.4559 80.5054 57.6172C81.0508 62.7785 80.7292 65.3718 80.7292 65.3718Z" fill="#525B61"/>
<path opacity="0.3" d="M182.089 50.8011C181.94 45.6132 178.1 30.3257 178.1 30.3257C178.1 30.3257 182.651 31.1577 185.894 33.1183C189.137 35.0789 193.63 37.5547 195.08 40.5253C196.53 43.4958 193.829 47.6407 190.46 51.9212C188.357 54.5565 185.797 56.7905 182.902 58.5162C182.902 58.5162 182.237 55.9831 182.089 50.8011Z" fill="#525B61"/>
</g>
<path d="M80.4066 60.5617C77.3078 59.2386 74.4726 57.367 72.0367 55.0366C68.1569 51.2369 64.8851 47.4932 65.9375 44.3544C66.99 41.2157 71.1059 38.1677 74.0523 35.7912C76.9987 33.4148 81.404 31.9811 81.404 31.9811C81.404 31.9811 79.6379 47.6455 80.1827 52.8009C80.7275 57.9562 80.4066 60.5617 80.4066 60.5617Z" fill="#4D9BE2"/>
<path d="M79.2592 43.4614C79.2592 43.4614 75.8615 42.7032 73.8503 42.9835C71.8392 43.2638 71.156 44.1568 71.3191 45.7796C71.4783 47.5853 72.2533 49.2811 73.5139 50.5819C75.0067 52.2122 76.9192 53.6147 78.0114 53.5958C79.1037 53.5769 79.8343 52.0393 79.8343 52.0393L79.2592 43.4614Z" fill="#DBF0FD"/>
<g opacity="0.18">
<path opacity="0.18" d="M71.4595 44.4387C74.6327 44.359 75.439 45.6601 76.3655 47.2194C77.1426 48.5347 77.5865 52.1774 77.7288 53.5776C77.8122 53.5997 77.8983 53.6102 77.9846 53.6088C79.0711 53.5904 79.8078 52.0526 79.8078 52.0526L79.2315 43.4635C79.2315 43.4635 75.833 42.7053 73.8214 42.9855C72.4976 43.159 71.7623 43.6379 71.4595 44.4387Z" fill="#535C62"/>
</g>
<g style="mix-blend-mode:multiply" opacity="0.16">
<path d="M65.8134 44.814C68.1208 43.9744 70.5111 43.3839 72.9437 43.0526C74.7933 42.8616 76.6613 42.9545 78.483 43.328L80.3086 39.8357L80.9173 36.8425C81.1874 34.0233 81.4154 32.0177 81.4154 32.0177C81.4154 32.0177 77.017 33.4444 74.0656 35.8205C71.1141 38.1966 66.9815 41.2449 65.9475 44.3816C65.8846 44.5249 65.8398 44.6671 65.8134 44.814Z" fill="#515A60"/>
</g>
<path d="M181.767 45.9863C181.619 40.8043 177.778 25.5165 177.778 25.5165C177.778 25.5165 182.329 26.3425 185.573 28.3092C188.816 30.2759 193.307 32.7397 194.757 35.7103C196.207 38.6809 193.506 42.8259 190.138 47.1124C188.035 49.7478 185.475 51.9818 182.581 53.7075C182.581 53.7075 181.915 51.1744 181.767 45.9863Z" fill="#4D9BE2"/>
<g style="mix-blend-mode:multiply" opacity="0.4">
<path d="M181.767 45.9862C181.619 40.8042 177.778 25.5164 177.778 25.5164C177.778 25.5164 182.329 26.3424 185.573 28.3091C188.816 30.2757 193.307 32.7396 194.757 35.7102C196.207 38.6808 193.506 42.8257 190.138 47.1123C188.035 49.7477 185.475 51.9817 182.581 53.7074C182.581 53.7074 181.915 51.1743 181.767 45.9862Z" fill="#4D9BE2"/>
</g>
<path d="M182.011 45.1833C182.011 45.1833 182.946 46.609 184.025 46.4821C185.104 46.3552 186.818 44.7092 188.08 42.8938C189.156 41.4362 189.697 39.6519 189.614 37.8412C189.559 36.2111 188.769 35.4231 186.738 35.4082C184.707 35.3933 181.436 36.6054 181.436 36.6054L182.011 45.1833Z" fill="#DBF0FD"/>
<g opacity="0.18">
<g style="mix-blend-mode:multiply" opacity="0.18">
<path d="M186.733 35.4088C184.702 35.3999 181.435 36.6053 181.435 36.6053L182.011 45.1943C182.011 45.1943 182.947 46.6199 184.026 46.4931L184.056 46.4911C184.142 46.4809 184.226 46.459 184.306 46.4259C184.26 45.0193 184.213 41.3499 184.807 39.9427C185.517 38.2735 186.142 36.8763 189.298 36.5315C188.897 35.7779 188.098 35.4019 186.733 35.4088Z" fill="#525B61"/>
</g>
</g>
<g style="mix-blend-mode:multiply" opacity="0.16">
<path d="M194.768 35.7364C193.325 32.7661 188.816 30.292 185.581 28.3375C182.345 26.3829 177.789 25.5515 177.789 25.5515C177.789 25.5515 178.283 27.5087 178.927 30.2665L179.929 33.1514L182.205 36.3683C183.96 35.7546 185.799 35.4128 187.658 35.3548C190.113 35.3579 192.56 35.6235 194.959 36.147C194.889 36.0065 194.832 35.8713 194.768 35.7364Z" fill="#3583B9"/>
</g>
<path d="M129.307 3.68034L136.139 103.606L135.789 104.655C135.627 104.666 135.374 104.683 135.025 104.707L134.815 104.721L134.416 104.717L134.35 104.722C132.016 104.685 127.017 104.1 118.069 100.931C108.222 97.4218 98.9719 92.5295 92.3017 86.0297L91.9394 85.6728C90.757 84.5044 89.6488 83.2629 88.6213 81.9557C88.4961 81.8007 88.3766 81.6393 88.2574 81.4839C87.5023 80.4949 86.8019 79.4651 86.1597 78.3991C85.7444 77.7007 85.3587 76.9943 84.9963 76.2743C84.7093 75.6884 84.4403 75.1012 84.1975 74.5426C84.0412 74.1741 83.9224 73.7908 83.8429 73.3984C83.0177 69.5624 82.2886 65.9863 81.7333 62.9311C81.5507 61.9206 81.3838 60.9635 81.2458 60.0771C81.0543 58.8432 80.8954 57.7343 80.7947 56.7728C79.5725 45.1263 77.3568 31.9064 89.1543 22.3514C100.952 12.7963 118.222 5.40361 123.928 4.28226L128.778 3.79381C128.932 3.77428 129.152 3.68151 129.307 3.68034Z" fill="#4D9BE2"/>
<path d="M182.9 49.9965C182.929 50.9628 182.92 52.0831 182.895 53.3314C182.876 54.2284 182.839 55.1992 182.793 56.225C182.651 59.3391 182.418 62.9859 182.076 66.8821C182.049 67.2816 181.983 67.6774 181.877 68.0634C181.713 68.6796 181.525 69.2974 181.317 69.8863C181.054 70.6484 180.766 71.4 180.447 72.1476C179.955 73.2877 179.4 74.3998 178.786 75.4787C178.673 75.68 178.559 75.8812 178.44 76.0769C177.591 77.5062 176.654 78.8808 175.635 80.1928C169.877 87.654 161.256 93.8669 151.821 98.7366C145.683 101.89 141.429 103.41 138.675 104.14C138.248 104.253 137.856 104.346 137.486 104.425C137.117 104.505 136.646 104.597 136.293 104.651L135.904 104.707L135.814 104.713L135.604 104.727L135.411 104.74C135.062 104.764 134.81 104.781 134.648 104.791L134.503 104.801L127.706 3.45879L127.85 3.4491C128.004 3.42957 128.159 3.41919 128.313 3.41802L133.093 3.70239C138.892 4.05751 157.013 9.07454 169.968 16.962C182.923 24.8494 182.574 38.2898 182.9 49.9965Z" fill="#4D9BE2"/>
<g style="mix-blend-mode:multiply" opacity="0.4">
<path d="M182.9 49.9967C182.928 50.963 182.919 52.0833 182.894 53.3316C182.876 54.2285 182.838 55.1994 182.792 56.2252C182.651 59.3393 182.418 62.9861 182.075 66.8823C182.049 67.2817 181.982 67.6775 181.876 68.0636C181.712 68.6798 181.524 69.2976 181.316 69.8865C181.053 70.6486 180.765 71.4002 180.447 72.1478C179.955 73.2879 179.4 74.3999 178.786 75.4789C178.672 75.6802 178.559 75.8814 178.439 76.0771C177.591 77.5064 176.654 78.881 175.634 80.193C169.876 87.6542 161.256 93.8671 151.82 98.7368C145.683 101.89 141.429 103.41 138.675 104.14C138.248 104.253 137.855 104.346 137.486 104.426C137.117 104.505 136.646 104.597 136.293 104.651L135.904 104.707L135.814 104.713L135.603 104.727L135.411 104.74C135.062 104.764 134.809 104.781 134.647 104.792L134.503 104.801L127.706 3.45897L127.85 3.44929C128.003 3.42975 128.158 3.41937 128.313 3.4182L133.092 3.70257C138.891 4.05769 157.012 9.07472 169.968 16.9622C182.923 24.8496 182.574 38.29 182.9 49.9967Z" fill="#4D9BE2"/>
</g>
<path d="M127.774 3.45301L134.573 104.825L134.345 104.841C134.183 104.852 133.93 104.869 133.581 104.892L133.371 104.906L132.972 104.903L132.906 104.907C130.571 104.87 125.572 104.286 116.625 101.116C106.778 97.6074 97.5275 92.7151 90.8573 86.2153L90.4951 85.8583C89.3127 84.6899 88.2045 83.4484 87.1769 82.1413C87.0518 81.9863 86.9322 81.8249 86.8131 81.6695C86.0579 80.6805 85.3576 79.6506 84.7153 78.5846C84.3 77.8863 83.9143 77.1799 83.5519 76.4598C83.2649 75.8739 82.996 75.2868 82.7531 74.7281C82.5968 74.3597 82.478 73.9763 82.3985 73.5839C81.5734 69.748 80.8442 66.1718 80.2889 63.1166C80.1063 62.1061 79.9394 61.149 79.8015 60.2626C79.61 59.0287 79.451 57.9198 79.3503 56.9583C78.1281 45.3118 75.9125 32.0919 87.7099 22.5369C99.5074 12.9819 116.778 5.58913 122.484 4.46778L127.182 3.5472C127.336 3.52767 127.49 3.48105 127.639 3.44935L127.774 3.45301Z" fill="#4D9BE2"/>
<path d="M133.434 55.8418L136.689 104.373L136.454 104.389C136.292 104.4 136.039 104.417 135.691 104.44L135.48 104.454L135.081 104.451L135.015 104.455C132.681 104.418 127.683 103.834 118.737 100.664C108.891 97.156 99.6422 92.264 92.9729 85.7647L92.6107 85.4078C91.4285 84.2394 90.3204 82.9981 89.293 81.691C92.6702 74.4084 99.0751 68.4112 106.596 63.9246C121.422 55.0626 133.1 55.8279 133.44 55.8534L133.434 55.8418Z" fill="#DBF0FD"/>
<path d="M131.32 56.2954L134.575 104.827L134.341 104.843C134.179 104.853 133.926 104.87 133.577 104.894L133.367 104.908L132.968 104.904L132.902 104.909C130.568 104.872 125.57 104.288 116.623 101.118C106.778 97.6096 97.5289 92.7177 90.8596 86.2183L90.4974 85.8614C89.3152 84.6931 88.2071 83.4517 87.1798 82.1447C90.5569 74.8621 96.9618 68.8649 104.483 64.3782C119.309 55.5163 130.987 56.2815 131.327 56.3071L131.32 56.2954Z" fill="#DBF0FD"/>
<path d="M178.462 76.0788C177.614 77.508 176.678 78.8825 175.658 80.1944C169.901 87.6549 161.282 93.8673 151.848 98.7365C145.711 101.89 141.458 103.41 138.704 104.139C138.277 104.253 137.885 104.345 137.515 104.425C137.146 104.504 136.681 104.59 136.323 104.65L135.934 104.706L135.843 104.712L135.633 104.727L135.441 104.739C135.092 104.763 134.839 104.78 134.677 104.791L134.485 104.804L131.231 56.3024L131.322 56.2963C132.407 56.0903 143.623 54.1877 158.92 60.7251C166.979 64.166 174.153 69.2759 178.462 76.0788Z" fill="#CCE9FC"/>
<g opacity="0.5">
<path opacity="0.5" d="M146.741 71.3859C146.866 71.3776 146.982 71.3201 147.064 71.2261C147.146 71.1321 147.187 71.0093 147.179 70.8847C147.17 70.7601 147.113 70.6439 147.019 70.5617C146.925 70.4795 146.802 70.438 146.678 70.4464C146.554 70.4547 146.438 70.5122 146.356 70.6062C146.274 70.7003 146.232 70.8231 146.24 70.9477C146.249 71.0722 146.306 71.1884 146.4 71.2706C146.494 71.3528 146.617 71.3943 146.741 71.3859Z" fill="#525B61"/>
</g>
<g opacity="0.5">
<path opacity="0.5" d="M148.879 69.2329C148.964 69.2284 149.046 69.1986 149.114 69.1473C149.182 69.096 149.233 69.0255 149.261 68.9449C149.289 68.8643 149.292 68.7772 149.27 68.6948C149.248 68.6124 149.202 68.5384 149.138 68.4822C149.074 68.4261 148.995 68.3904 148.91 68.3797C148.826 68.369 148.74 68.3837 148.664 68.4221C148.588 68.4605 148.525 68.5207 148.483 68.5951C148.442 68.6694 148.423 68.7545 148.43 68.8395C148.438 68.9514 148.489 69.0556 148.573 69.1294C148.658 69.2032 148.768 69.2404 148.879 69.2329Z" fill="#525B61"/>
</g>
<g opacity="0.5">
<path opacity="0.5" d="M148.749 65.3137C148.827 65.3097 148.901 65.2826 148.963 65.236C149.026 65.1893 149.073 65.1252 149.098 65.0517C149.124 64.9782 149.127 64.8988 149.108 64.8234C149.088 64.748 149.047 64.6802 148.989 64.6285C148.931 64.5768 148.858 64.5435 148.781 64.533C148.704 64.5225 148.626 64.5352 148.556 64.5695C148.486 64.6038 148.428 64.6581 148.389 64.7255C148.351 64.7929 148.333 64.8703 148.338 64.948C148.345 65.0508 148.392 65.1468 148.469 65.2152C148.545 65.2836 148.646 65.319 148.749 65.3137Z" fill="#525B61"/>
</g>
<g opacity="0.5">
<path opacity="0.5" d="M150.456 66.8091C150.56 66.8021 150.657 66.7542 150.725 66.6758C150.793 66.5975 150.828 66.4951 150.821 66.3913C150.814 66.2874 150.766 66.1906 150.688 66.1221C150.61 66.0536 150.507 66.019 150.404 66.026C150.3 66.033 150.203 66.0809 150.135 66.1592C150.066 66.2376 150.032 66.3399 150.039 66.4438C150.046 66.5476 150.094 66.6444 150.172 66.7129C150.25 66.7814 150.352 66.816 150.456 66.8091Z" fill="#525B61"/>
</g>
<g opacity="0.5">
<path opacity="0.5" d="M118.264 73.2971C118.357 73.2909 118.446 73.2573 118.519 73.2005C118.593 73.1437 118.648 73.0663 118.678 72.978C118.708 72.8898 118.711 72.7947 118.686 72.7048C118.662 72.6149 118.612 72.5342 118.542 72.4729C118.472 72.4116 118.385 72.3725 118.293 72.3604C118.201 72.3484 118.107 72.364 118.024 72.4054C117.941 72.4467 117.871 72.5118 117.825 72.5925C117.779 72.6732 117.757 72.7659 117.763 72.8588C117.772 72.9834 117.829 73.0996 117.923 73.1818C118.017 73.264 118.14 73.3055 118.264 73.2971Z" fill="#525B61"/>
</g>
<g opacity="0.5">
<path opacity="0.5" d="M115.828 71.451C115.912 71.4453 115.993 71.4145 116.061 71.3626C116.128 71.3106 116.178 71.2398 116.205 71.1591C116.232 71.0785 116.234 70.9916 116.211 70.9097C116.189 70.8277 116.143 70.7543 116.078 70.6987C116.014 70.6432 115.935 70.6081 115.85 70.5979C115.766 70.5877 115.681 70.6028 115.605 70.6413C115.529 70.6798 115.467 70.74 115.425 70.8142C115.384 70.8885 115.366 70.9733 115.372 71.0581C115.376 71.114 115.391 71.1685 115.416 71.2186C115.441 71.2687 115.476 71.3134 115.518 71.3499C115.56 71.3865 115.609 71.4143 115.663 71.4316C115.716 71.449 115.772 71.4556 115.828 71.451Z" fill="#525B61"/>
</g>
<g opacity="0.5">
<path opacity="0.5" d="M115.439 67.549C115.516 67.5438 115.59 67.5158 115.651 67.4684C115.713 67.4211 115.759 67.3566 115.784 67.2831C115.808 67.2095 115.811 67.1303 115.791 67.0554C115.77 66.9804 115.728 66.9132 115.67 66.8621C115.612 66.811 115.54 66.7784 115.463 66.7684C115.386 66.7584 115.308 66.7714 115.238 66.8058C115.169 66.8403 115.111 66.8945 115.073 66.9618C115.034 67.0291 115.016 67.1063 115.021 67.1837C115.028 67.2876 115.076 67.3844 115.154 67.4529C115.233 67.5214 115.335 67.556 115.439 67.549Z" fill="#525B61"/>
</g>
<g opacity="0.5">
<path opacity="0.5" d="M113.953 69.2588C114.03 69.2536 114.104 69.2256 114.165 69.1783C114.227 69.1309 114.273 69.0664 114.298 68.9929C114.322 68.9194 114.325 68.8401 114.305 68.7652C114.285 68.6902 114.243 68.623 114.184 68.5719C114.126 68.5208 114.054 68.4882 113.977 68.4782C113.9 68.4682 113.822 68.4812 113.753 68.5156C113.683 68.5501 113.625 68.6043 113.587 68.6716C113.548 68.7389 113.53 68.8161 113.536 68.8935C113.543 68.9974 113.59 69.0942 113.669 69.1627C113.747 69.2312 113.849 69.2658 113.953 69.2588Z" fill="#525B61"/>
</g>
<path d="M115.852 71.2291C113.826 71.3238 111.807 71.5421 109.808 71.8829C107.825 72.2217 105.843 72.6451 103.854 73.1538C99.9296 74.1925 96.1113 75.5972 92.449 77.3497C90.6285 78.2356 88.8537 79.2129 87.1315 80.2779C86.6899 80.5374 86.2748 80.8315 85.8461 81.1022C85.4173 81.373 84.9898 81.6619 84.5811 81.9616L83.333 82.8016L82.1474 83.7645C81.7451 84.0698 81.3521 84.4228 80.9622 84.7334C80.5724 85.0439 80.1729 85.3914 79.8212 85.7296C79.0716 86.4393 78.2947 87.1025 77.5905 87.8577C76.133 89.3256 74.7631 90.8781 73.4876 92.5072C74.7483 90.8647 76.1076 89.3006 77.558 87.8235C78.2558 87.0628 79.0319 86.3875 79.7755 85.6782C80.1509 85.3323 80.5527 85.021 80.9157 84.6699C81.2787 84.3189 81.693 84.0128 82.0936 83.6834L83.3045 82.7369L84.5426 81.8371C84.9569 81.531 85.3848 81.2482 85.8067 80.9657C86.2287 80.6833 86.6498 80.3888 87.0854 80.1297C88.8129 79.0538 90.5905 78.0633 92.4181 77.1581C96.077 75.3769 99.8958 73.9456 103.823 72.8835C105.781 72.3528 107.769 71.9169 109.775 71.5705C111.785 71.2058 113.816 70.9664 115.857 70.8537C115.894 70.8698 115.926 70.8973 115.946 70.9324C115.968 70.9685 115.981 71.0089 115.985 71.0508C115.992 71.068 115.993 71.087 115.988 71.105C115.994 71.1225 115.995 71.1411 115.992 71.1592C115.98 71.1772 115.964 71.1926 115.947 71.2046C115.918 71.2232 115.885 71.2318 115.852 71.2291Z" fill="#525B61"/>
<path d="M115.366 67.2668C114.068 66.3376 112.639 65.6062 111.126 65.0963C110.941 65.0302 110.754 64.952 110.569 64.8918L110.002 64.7243L108.862 64.3836C108.096 64.2173 107.328 64.0209 106.552 63.8856C105.776 63.7502 105.008 63.6385 104.223 63.5521L101.886 63.3764C100.329 63.3318 98.7751 63.3615 97.224 63.4656L95.4926 63.5819L94.8942 63.6644L92.5906 63.9823C91.819 64.0763 91.054 64.2185 90.3002 64.4082L88.0246 64.8754C86.5302 65.2841 85.029 65.6812 83.5418 66.1075L79.1377 67.6126L83.5298 66.1083C85.0098 65.6643 86.4921 65.2564 88.0034 64.8284L90.2773 64.3371C91.0403 64.1891 91.7873 63.9818 92.5661 63.8872L94.8745 63.5508L95.4725 63.4623L97.276 63.3412C98.8317 63.2168 100.393 63.1705 101.953 63.2026L104.307 63.359C105.091 63.4334 105.879 63.568 106.652 63.6672C107.426 63.7665 108.213 63.9857 108.985 64.1455L110.143 64.479L110.716 64.6462C110.907 64.7059 111.093 64.7841 111.285 64.8498C112.844 65.3544 114.319 66.0912 115.659 67.0355C115.659 67.0355 115.736 67.1089 115.636 67.2426C115.64 67.2785 115.628 67.3141 115.605 67.3418C115.582 67.3694 115.549 67.3867 115.513 67.3899C115.478 67.3931 115.442 67.382 115.414 67.3589C115.387 67.3358 115.369 67.3027 115.366 67.2668Z" fill="#525B61"/>
<path d="M118.325 72.9991C115.699 73.8371 113.144 74.8826 110.683 76.126C108.198 77.363 105.81 78.7875 103.54 80.3872C102.386 81.1967 101.295 82.0384 100.239 82.9504C99.1652 83.8504 98.1386 84.806 97.1639 85.8131C95.187 87.8452 93.4416 90.0912 91.9599 92.5096C93.4161 90.07 95.1397 87.801 97.0989 85.7448C98.0686 84.7341 99.0886 83.773 100.155 82.8653C101.205 81.9477 102.312 81.0807 103.433 80.225C105.691 78.5921 108.071 77.1338 110.551 75.8626C113.014 74.5774 115.577 73.4928 118.215 72.6192C118.215 72.6192 118.323 72.612 118.382 72.7654C118.404 72.8042 118.41 72.8501 118.4 72.8936C118.389 72.937 118.362 72.9748 118.325 72.9991Z" fill="#525B61"/>
<path d="M113.91 69.0457C112.318 68.9048 110.718 68.8788 109.122 68.9679C107.531 69.0333 105.944 69.1802 104.368 69.408C101.215 69.8545 98.0931 70.5065 95.0241 71.3598L92.7382 72.0334C91.9675 72.2484 91.2258 72.5341 90.47 72.7905C88.9564 73.2731 87.4869 73.8737 85.9978 74.4515C85.2552 74.7251 84.5287 75.0582 83.7954 75.3796L81.6074 76.3429L77.3218 78.4451C78.7423 77.7449 80.1596 76.9966 81.5926 76.3016L83.7669 75.315C84.4934 74.9819 85.2195 74.6429 85.9616 74.3632C87.4435 73.7678 88.9002 73.1559 90.4246 72.6544C91.1804 72.398 91.9218 72.1063 92.6868 71.8977L94.9711 71.2001C98.039 70.3098 101.162 69.6234 104.321 69.1451C105.906 68.9237 107.494 68.7385 109.119 68.6596C110.729 68.5518 112.344 68.5626 113.953 68.692C113.953 68.692 114.057 68.7213 114.063 68.8903C114.068 69.0593 113.91 69.0457 113.91 69.0457Z" fill="#525B61"/>
<path d="M148.916 69.0115C150.936 68.8345 152.966 68.7811 154.993 68.8516C157.011 68.9219 159.034 69.0764 161.063 69.3153C165.083 69.82 169.047 70.7024 172.902 71.951C174.834 72.5824 176.733 73.311 178.592 74.1342C179.053 74.3332 179.509 74.5687 179.97 74.7798C180.431 74.9908 180.894 75.2199 181.339 75.4623L182.691 76.1762L184.017 76.9463C184.463 77.1947 184.899 77.4921 185.327 77.7477C185.755 78.0033 186.191 78.2947 186.591 78.5825C187.428 79.1857 188.281 79.7395 189.086 80.3933C190.728 81.6517 192.293 83.0073 193.773 84.4529C192.303 82.9952 190.747 81.6268 189.113 80.3552C188.314 79.6949 187.461 79.1291 186.629 78.5254C186.205 78.2333 185.771 77.978 185.365 77.6786C184.958 77.3792 184.501 77.1316 184.053 76.8591L182.733 76.0826L181.38 75.3567C180.941 75.1079 180.479 74.8848 180.017 74.6617C179.555 74.4386 179.104 74.2027 178.638 74.0041C176.782 73.1613 174.884 72.4164 172.95 71.7723C169.09 70.4958 165.119 69.5875 161.088 69.0595C159.059 68.7964 157.043 68.6232 155.015 68.5537C152.972 68.4608 150.925 68.4952 148.886 68.6565C148.854 68.6791 148.829 68.7101 148.813 68.7461C148.804 68.7862 148.807 68.8281 148.821 68.8666C148.814 68.8823 148.811 68.8995 148.813 68.9167C148.814 68.9339 148.82 68.9504 148.829 68.9649C148.838 68.9793 148.851 68.9912 148.866 68.9993C148.882 69.0074 148.899 69.0116 148.916 69.0115Z" fill="#525B61"/>
<path d="M148.838 65.0216C150.003 63.9297 151.321 63.0141 152.75 62.3039C152.931 62.2131 153.099 62.1111 153.281 62.0264L153.82 61.7846L154.898 61.2949C155.641 61.0274 156.376 60.7301 157.121 60.4926C157.866 60.2552 158.631 60.0406 159.385 59.8509L161.678 59.3644C163.213 59.1102 164.765 58.9334 166.316 58.8293L168.065 58.7118L168.669 58.7136L171.001 58.7204C171.776 58.7112 172.551 58.7501 173.321 58.8367L175.645 58.9952C177.175 59.2009 178.691 59.3954 180.246 59.6175L184.812 60.5204L180.258 59.6167C178.726 59.3749 177.209 59.1684 175.66 58.9458L173.335 58.7632C172.559 58.7186 171.785 58.6133 171.012 58.6228L168.674 58.5984L168.069 58.5906L166.308 58.7089C164.745 58.7937 163.188 58.9567 161.642 59.1974L159.331 59.6671C158.57 59.8451 157.813 60.0834 157.047 60.286C156.282 60.4885 155.548 60.8099 154.805 61.0714L153.708 61.5562L153.157 61.7989C152.975 61.8836 152.795 61.9864 152.626 62.0764C151.147 62.7834 149.784 63.7108 148.583 64.827C148.564 64.8582 148.554 64.8948 148.557 64.9316C148.559 64.9683 148.573 65.0034 148.597 65.0317C148.683 65.1529 148.838 65.0216 148.838 65.0216Z" fill="#525B61"/>
<path d="M146.72 71.0942C149.434 71.5747 152.106 72.2693 154.71 73.1718C157.334 74.0668 159.887 75.1596 162.346 76.4409C163.598 77.0891 164.785 77.7778 165.966 78.5396C167.145 79.2903 168.286 80.1003 169.384 80.9664C171.619 82.7127 173.651 84.7055 175.441 86.907C173.67 84.6838 171.657 82.6657 169.439 80.8901C168.347 80.008 167.211 79.1815 166.036 78.4139C164.861 77.6456 163.66 76.9336 162.423 76.2361C159.968 74.9209 157.417 73.7935 154.792 72.8637C152.179 71.9194 149.494 71.187 146.764 70.6738C146.764 70.6738 146.656 70.681 146.618 70.8409C146.603 70.8884 146.606 70.9394 146.624 70.9855C146.643 71.0316 146.676 71.07 146.72 71.0942Z" fill="#525B61"/>
<path d="M150.555 66.5877C152.11 66.2355 153.688 65.9961 155.277 65.8715C156.879 65.7224 158.487 65.6548 160.095 65.669C163.278 65.6905 166.457 65.9196 169.61 66.3548L171.972 66.7164C172.752 66.8273 173.531 67.0109 174.308 67.1644C175.879 67.44 177.422 67.8384 178.968 68.2124C179.747 68.3839 180.511 68.6168 181.269 68.8382L183.566 69.5005L188.1 71.0105C186.599 70.5065 185.094 69.9543 183.581 69.4571L181.289 68.7703C180.53 68.537 179.765 68.298 178.986 68.1205C177.444 67.728 175.913 67.3167 174.335 67.0235C173.558 66.87 172.784 66.68 171.998 66.5755L169.641 66.1894C166.482 65.7197 163.295 65.4589 160.102 65.4085C158.507 65.4006 156.908 65.4293 155.281 65.5688C153.671 65.6768 152.072 65.9034 150.495 66.2469C150.495 66.2469 150.402 66.2895 150.413 66.4581C150.424 66.6267 150.555 66.5877 150.555 66.5877Z" fill="#525B61"/>
<g opacity="0.33">
<path opacity="0.33" d="M142.621 55.5328C141.122 54.7081 137.853 53.1437 134.843 53.0317C133.195 52.9551 132.118 52.9308 131.471 52.9199L131.468 52.8657L130.704 52.9171L130.708 52.9713C130.068 53.0688 128.998 53.2376 127.381 53.534C124.397 54.0676 121.383 56.0549 120.006 57.055C119.319 57.5435 118.831 58.2636 118.632 59.0832C118.433 59.901 118.532 60.7626 118.909 61.5144C119.704 63.197 124.609 67.1798 126.596 68.0684C128.213 68.7762 131.083 68.5164 132.108 68.393C133.152 68.3772 136.03 68.25 137.533 67.3322C139.397 66.2026 143.726 61.5801 144.278 59.8068C144.556 59.023 144.545 58.166 144.249 57.3891C143.947 56.5944 143.369 55.9353 142.621 55.5328Z" fill="#535C62"/>
</g>
<path d="M127.238 56.6381C127.941 57.0043 128.703 57.2401 129.489 57.3342C130.119 57.4077 130.752 57.4359 131.386 57.4187L132.055 67.401C131.007 67.5259 128.077 67.7891 126.423 67.0892C124.39 66.2212 119.38 62.2186 118.573 60.542C118.187 59.7885 118.088 58.9204 118.294 58.0994C118.501 57.2785 118.997 56.5606 119.693 56.0795C121.104 55.0589 124.202 53.0658 127.23 52.5479C128.883 52.2553 129.977 52.0851 130.635 51.9865L130.632 51.9383L131.016 51.9124L131.1 53.1655C131.1 53.1655 127.98 53.4778 126.713 54.5735C125.446 55.6691 127.238 56.6381 127.238 56.6381Z" fill="#525B61"/>
<path d="M127.238 56.6381C127.94 57.0043 128.703 57.2401 129.489 57.3342C130.119 57.4077 131.308 57.365 131.941 57.3477L132.393 67.2111C131.344 67.336 128.077 67.7891 126.423 67.0892C124.39 66.2212 119.38 62.2186 118.573 60.542C118.187 59.7885 118.088 58.9204 118.294 58.0995C118.501 57.2785 118.997 56.5606 119.693 56.0795C121.104 55.0589 124.202 53.0658 127.229 52.5479C128.883 52.2554 129.977 52.0851 130.635 51.9865L130.631 51.9383L131.338 51.9437L131.564 53.0018C131.564 53.0018 127.98 53.4778 126.713 54.5735C125.446 55.6692 127.238 56.6381 127.238 56.6381Z" fill="#525B61"/>
<path d="M144.504 58.8015C143.928 60.5708 139.496 65.1887 137.598 66.3388C136.053 67.2533 133.115 67.384 132.053 67.4008L131.383 57.4191C130.75 57.4363 130.116 57.4081 129.487 57.3346C128.701 57.2405 127.938 57.0047 127.236 56.6385C127.236 56.6385 125.426 55.6769 126.704 54.5684C127.983 53.46 131.091 53.1605 131.091 53.1605L131.008 51.9136L131.405 51.8869L131.408 51.9412C132.067 51.9514 133.168 51.9743 134.852 52.0428C137.923 52.1755 141.265 53.7363 142.792 54.5354C143.549 54.9173 144.14 55.5626 144.456 56.3504C144.771 57.1381 144.788 58.0139 144.505 58.8135L144.504 58.8015Z" fill="#525B61"/>
<g opacity="0.4">
<path d="M144.511 58.8722C143.935 60.6412 139.502 65.2592 137.604 66.4094C136.058 67.3241 133.119 67.4554 132.057 67.4724L131.389 57.4865C130.756 57.5088 130.122 57.4827 129.493 57.4084C128.707 57.3144 127.944 57.0788 127.241 56.7129C127.241 56.7129 125.431 55.7517 126.71 54.6432C127.989 53.5347 131.098 53.2347 131.098 53.2347L131.014 51.982L131.411 51.9553L131.415 52.0095C132.074 52.0196 133.175 52.0423 134.859 52.1105C137.93 52.2426 141.272 53.8024 142.8 54.6011C143.549 54.9824 144.135 55.6227 144.45 56.4034C144.764 57.1842 144.785 58.0527 144.51 58.8481L144.511 58.8722Z" fill="#525B61"/>
<g style="mix-blend-mode:multiply" opacity="0.2">
<path d="M144.511 58.8724C143.935 60.6414 139.502 65.2594 137.604 66.4096C136.058 67.3243 133.119 67.4556 132.057 67.4726L131.389 57.4867C130.756 57.509 130.122 57.4829 129.493 57.4086C128.707 57.3147 127.944 57.079 127.241 56.7131C127.241 56.7131 125.431 55.7519 126.71 54.6434C127.989 53.5349 131.098 53.2349 131.098 53.2349L131.014 51.9822L131.411 51.9555L131.415 52.0097C132.074 52.0198 133.175 52.0425 134.859 52.1107C137.93 52.2428 141.272 53.8026 142.8 54.6013C143.549 54.9826 144.135 55.6229 144.45 56.4037C144.764 57.1844 144.785 58.0529 144.51 58.8483L144.511 58.8724Z" fill="#525B61"/>
</g>
</g>
<path d="M136.883 61.9034C136.787 61.6412 136.768 61.3569 136.828 61.0842C136.884 60.8089 137.015 60.5548 137.208 60.3507C137.88 59.5673 138.6 59.047 139.13 59.199C139.246 59.217 139.358 59.2589 139.458 59.3219C139.558 59.385 139.644 59.4679 139.71 59.5655C139.778 59.6608 139.826 59.7686 139.852 59.8827C139.884 59.9963 139.892 60.1153 139.876 60.2321C139.868 60.5499 139.774 60.8597 139.604 61.1278C139.439 61.4025 139.204 61.6275 138.922 61.7786C138.384 62.0318 137.798 62.168 137.204 62.1784C136.918 62.0645 136.883 61.9034 136.883 61.9034Z" fill="#6D7780"/>
<path d="M126.538 62.5977C126.598 62.3249 126.579 62.0406 126.483 61.7784C126.391 61.5131 126.227 61.2788 126.009 61.1022C125.232 60.4161 124.455 59.9963 123.95 60.2177C123.837 60.2512 123.732 60.3076 123.642 60.3834C123.551 60.4592 123.477 60.5528 123.424 60.6585C123.367 60.7609 123.334 60.8748 123.326 60.9919C123.312 61.1088 123.32 61.2272 123.349 61.3413C123.404 61.6548 123.54 61.9482 123.745 62.1922C123.943 62.4438 124.206 62.6356 124.506 62.7461C125.074 62.9251 125.673 62.9818 126.263 62.9126C126.329 62.8827 126.387 62.8392 126.435 62.7849C126.482 62.7306 126.517 62.6667 126.538 62.5977Z" fill="#6D7780"/>
<g opacity="0.51">
<path opacity="0.51" d="M135.395 56.0885C134.749 56.5459 134.024 56.8815 133.257 57.0787C132.662 57.2154 132.197 57.3011 131.88 57.3526C131.718 57.3828 131.552 57.3939 131.387 57.3857C130.754 57.4079 130.121 57.3817 129.492 57.3073C128.705 57.2133 127.943 56.9776 127.24 56.6117C127.24 56.6117 125.43 55.6506 126.709 54.5427C127.988 53.4347 131.096 53.1353 131.096 53.1353C131.096 53.1353 134.23 53.0278 135.638 53.9433C137.046 54.8588 135.395 56.0885 135.395 56.0885Z" fill="white"/>
</g>
<path d="M154.153 70.2319C153.969 70.2755 153.809 70.3888 153.707 70.5479C153.605 70.707 153.569 70.8996 153.606 71.085C153.606 71.085 153.329 74.5265 151.565 75.8545C147.421 78.9932 141.886 77.0546 133.197 75.8055C133.012 75.7624 132.821 75.7526 132.633 75.7768C132.446 75.7782 132.26 75.8132 132.085 75.8801C123.645 78.261 118.413 80.9405 113.882 78.3842C111.968 77.3032 111.218 73.9547 111.222 73.9303C111.23 73.8366 111.22 73.7422 111.191 73.6527C111.162 73.5632 111.116 73.4804 111.054 73.4093C110.932 73.2663 110.759 73.1761 110.572 73.1574C110.038 73.1207 109.822 73.5888 109.837 73.993C110.176 75.998 111.236 77.8093 112.818 79.0846C114.601 80.4647 117.643 80.7987 120.957 80.2376C124.271 79.6764 128.179 78.3376 132.735 77.0278C137.43 77.6984 141.518 78.5005 144.842 78.6341C148.167 78.7678 151.178 78.0093 152.755 76.4036C154.15 74.9271 154.959 72.991 155.029 70.9593C154.954 70.5591 154.703 70.1526 154.153 70.2319Z" fill="#525B61"/>
<path d="M132.68 76.7192L133.26 85.3756C130.488 85.5617 127.885 84.2115 125.888 82.7178C123.606 81.0194 122.138 79.7504 122.138 79.7504C125.413 78.0418 128.998 77.0109 132.68 76.7192Z" fill="#525B61"/>
<path d="M133.149 75.9051C136.83 75.6134 133.487 85.2391 133.487 85.2391C130.716 85.4251 127.886 84.2116 125.889 82.7179C123.607 81.0195 122.139 79.7505 122.139 79.7505C125.414 78.0419 129.467 76.1969 133.149 75.9051Z" fill="#525B61"/>
<path d="M143.584 78.3051C143.584 78.3051 142.298 79.759 140.269 81.7468C138.49 83.4939 136.084 85.1803 133.264 85.3696L132.684 76.7192C136.387 76.5031 140.095 77.0426 143.584 78.3051Z" fill="#525B61"/>
<g style="mix-blend-mode:multiply" opacity="0.2">
<path d="M143.584 78.3051C143.584 78.3051 142.298 79.7589 140.269 81.7467C138.49 83.4939 136.084 85.1802 133.264 85.3695L132.684 76.7192C136.387 76.5031 140.095 77.0426 143.584 78.3051Z" fill="#525B61"/>
</g>
<g opacity="0.33">
<g style="mix-blend-mode:multiply" opacity="0.33">
<path d="M154.199 70.8946C154.017 70.9381 153.858 71.0504 153.756 71.2081C153.654 71.3659 153.617 71.5568 153.652 71.7413C153.652 71.7413 153.376 75.1872 151.611 76.5147C147.467 79.6522 141.932 77.7151 133.242 76.4675C133.059 76.4185 132.867 76.4088 132.679 76.4389C132.491 76.4373 132.305 76.4724 132.13 76.5422C123.69 78.9228 118.458 81.6015 113.927 79.0469C112.013 77.9666 111.263 74.6199 111.267 74.5894C111.279 74.4027 111.219 74.2185 111.1 74.0748C110.977 73.9328 110.804 73.8429 110.618 73.8231C110.084 73.7864 109.868 74.2543 109.883 74.6583C110.222 76.6695 111.289 78.485 112.881 79.7578C114.665 81.1431 117.707 81.4706 121.02 80.9034C124.334 80.3362 128.244 79.0157 132.799 77.6941C137.494 78.3639 141.582 79.1591 144.906 79.2984C148.231 79.4376 151.243 78.6852 152.82 77.0742C154.215 75.6005 155.024 73.6673 155.095 71.6383C155 71.2216 154.747 70.7852 154.199 70.8946Z" fill="#535C62"/>
</g>
</g>
<path d="M132.717 75.7408L132.804 77.0417C128.24 78.3281 124.194 79.6885 120.941 80.2578C117.688 80.827 114.585 80.4848 112.802 79.1043C111.22 77.8312 110.159 76.021 109.821 74.0171C109.802 73.9117 109.808 73.8034 109.837 73.7004C109.865 73.5973 109.917 73.5021 109.988 73.4218C110.058 73.3415 110.146 73.2782 110.245 73.2365C110.343 73.1949 110.45 73.176 110.556 73.1813C110.744 73.1971 110.918 73.2864 111.041 73.4299C111.164 73.5734 111.225 73.7595 111.212 73.9479C111.216 74.0142 111.97 77.3331 113.872 78.4093C118.404 80.9605 123.602 78.2401 132.041 75.8346C132.261 75.7723 132.488 75.7408 132.717 75.7408Z" fill="#525B61"/>
<path d="M154.993 70.961C154.923 72.9916 154.114 74.9263 152.719 76.401C151.141 78.0071 148.166 78.7513 144.806 78.6321C141.446 78.5128 137.498 77.7312 132.8 77.0181L132.713 75.7173C132.868 75.6979 133.026 75.712 133.175 75.7589C141.857 76.9909 147.4 78.948 151.543 75.8084C153.296 74.4808 153.589 71.0976 153.584 71.0314C153.547 70.8469 153.584 70.6552 153.688 70.4981C153.79 70.34 153.949 70.2275 154.131 70.184C154.241 70.168 154.353 70.1764 154.459 70.2085C154.564 70.2407 154.662 70.2958 154.744 70.37C154.826 70.4442 154.891 70.5356 154.934 70.6377C154.977 70.7399 154.997 70.8503 154.993 70.961Z" fill="#525B61"/>
<g style="mix-blend-mode:multiply" opacity="0.2">
<path d="M154.993 70.9611C154.922 72.9916 154.114 74.9263 152.719 76.401C151.141 78.0072 148.166 78.7514 144.806 78.6321C141.446 78.5128 137.498 77.7312 132.8 77.0182L132.713 75.7173C132.868 75.6979 133.026 75.7121 133.175 75.7589C141.857 76.991 147.4 78.948 151.543 75.8084C153.296 74.4808 153.589 71.0976 153.584 71.0314C153.547 70.847 153.584 70.6553 153.687 70.4982C153.79 70.34 153.949 70.2275 154.131 70.184C154.241 70.168 154.353 70.1764 154.458 70.2086C154.564 70.2407 154.662 70.2958 154.744 70.37C154.826 70.4442 154.891 70.5356 154.934 70.6378C154.977 70.7399 154.997 70.8503 154.993 70.9611Z" fill="#525B61"/>
</g>
<g opacity="0.33">
<path opacity="0.33" d="M136.91 86.8396C136.06 87.2241 135.161 87.488 134.239 87.6237L133.436 87.726L132.633 87.7315C131.701 87.7203 130.774 87.5789 129.881 87.3114C128.95 87.0352 127.901 87.6923 128.162 88.6969C128.423 89.7015 129.92 90.8651 131.419 91.3269C132.885 91.7848 134.47 91.6785 135.862 91.0287C137.286 90.3706 138.591 89.0311 138.744 87.9865C138.898 86.942 137.777 86.4427 136.91 86.8396Z" fill="#535C62"/>
</g>
<path d="M126.551 86.0157C127.612 86.5628 128.739 86.9689 129.905 87.2238C132.227 87.7258 134.646 87.5361 136.862 86.6782C137.976 86.2527 139.028 85.6797 139.99 84.9744C139.133 85.8389 138.123 86.5363 137.012 87.031C134.752 88.0713 132.196 88.2708 129.803 87.5935C128.632 87.2709 127.53 86.7361 126.551 86.0157Z" fill="#535C62"/>
<path d="M139.592 81.8231C137.596 81.7816 135.958 81.6738 134.611 82.1151C134.116 82.274 133.603 82.3714 133.084 82.4052L133.283 85.3745C136.067 85.1876 138.389 83.5253 140.172 81.8326C139.941 81.8118 139.828 81.8315 139.592 81.8231Z" fill="#D24A60"/>
<g style="mix-blend-mode:multiply" opacity="0.3">
<path d="M139.591 81.8232C137.596 81.7817 135.958 81.6738 134.61 82.1152C134.115 82.274 133.602 82.3715 133.084 82.4052L133.283 85.3746C136.066 85.1877 138.389 83.5253 140.172 81.8326C139.941 81.8118 139.827 81.8315 139.591 81.8232Z" fill="#D24A60"/>
</g>
<path d="M133.061 82.4066L133.26 85.3759C130.488 85.562 128.032 84.3172 125.978 82.7852C126.192 82.7345 126.333 82.7614 126.576 82.6967C128.548 82.3888 130.157 82.063 131.557 82.3199C132.053 82.4088 132.558 82.4379 133.061 82.4066Z" fill="#D24A60"/>
<g opacity="0.5">
<path opacity="0.5" d="M105.272 53.9018C106.779 53.8016 108.223 53.2559 109.421 52.3337C110.619 51.4115 111.517 50.1542 112.001 48.721C112.485 47.2878 112.534 45.743 112.142 44.282C111.75 42.8209 110.933 41.5094 109.797 40.5132C108.66 39.517 107.253 38.881 105.755 38.6855C104.257 38.49 102.735 38.7439 101.381 39.4151C100.027 40.0862 98.9022 41.1445 98.1486 42.4559C97.3951 43.7674 97.0468 45.2732 97.1478 46.7828C97.214 47.7847 97.4768 48.7637 97.921 49.6638C98.3652 50.564 98.9821 51.3676 99.7366 52.0287C100.491 52.6898 101.368 53.1956 102.318 53.517C103.268 53.8384 104.272 53.9691 105.272 53.9018Z" fill="#525B61"/>
</g>
<path d="M105.235 53.3489C106.632 53.2563 107.971 52.7504 109.082 51.8953C110.192 51.0402 111.025 49.8743 111.474 48.545C111.923 47.2157 111.968 45.7829 111.604 44.4276C111.24 43.0724 110.483 41.8557 109.428 40.9315C108.374 40.0073 107.07 39.417 105.681 39.2354C104.292 39.0538 102.88 39.289 101.625 39.9113C100.37 40.5335 99.3267 41.5149 98.6282 42.7312C97.9296 43.9475 97.6069 45.3441 97.7008 46.7443C97.7624 47.6736 98.0061 48.5817 98.4181 49.4167C98.8301 50.2517 99.4023 50.9971 100.102 51.6105C100.802 52.2239 101.615 52.6931 102.496 52.9914C103.377 53.2897 104.307 53.4112 105.235 53.3489Z" fill="#525B61"/>
<path d="M107.574 45.6456C107.827 45.6298 108.069 45.5393 108.27 45.3856C108.471 45.2319 108.622 45.0218 108.704 44.782C108.785 44.5422 108.794 44.2835 108.729 44.0386C108.664 43.7938 108.528 43.5738 108.338 43.4065C108.148 43.2392 107.912 43.1322 107.662 43.0991C107.411 43.0659 107.156 43.1081 106.929 43.2202C106.702 43.3324 106.514 43.5094 106.388 43.729C106.261 43.9486 106.203 44.2008 106.22 44.4536C106.243 44.7913 106.398 45.1062 106.652 45.3296C106.905 45.553 107.237 45.6666 107.574 45.6456Z" fill="#E6F4FD"/>
<path d="M105.314 42.7407C105.473 42.7312 105.625 42.6748 105.751 42.5786C105.878 42.4824 105.973 42.3508 106.024 42.2004C106.076 42.05 106.082 41.8876 106.041 41.7338C106.001 41.58 105.915 41.4417 105.796 41.3366C105.677 41.2314 105.53 41.1641 105.372 41.1431C105.215 41.1221 105.055 41.1484 104.912 41.2187C104.77 41.289 104.651 41.4001 104.572 41.5379C104.493 41.6757 104.456 41.834 104.467 41.9927C104.483 42.2036 104.58 42.4 104.738 42.5397C104.897 42.6795 105.103 42.7517 105.314 42.7407Z" fill="#E6F4FD"/>
<path d="M110.999 34.4901C110.999 34.4901 107.386 31.6718 103.329 31.43C99.273 31.1881 96.098 31.6614 94.8872 32.6984C93.6765 33.7354 93.7057 34.3504 94.1487 34.5626C94.5917 34.7748 95.6023 34.3562 96.0419 34.1573C96.3818 34.0014 96.9687 33.3873 101.566 33.3147C107.658 33.2142 110.184 35.7606 110.693 35.3272C111.201 34.8939 110.999 34.4901 110.999 34.4901Z" fill="#525B61"/>
<path opacity="0.5" d="M163.892 42.3024C163.79 40.7936 163.243 39.349 162.321 38.1514C161.399 36.9539 160.143 36.0572 158.712 35.5749C157.281 35.0926 155.74 35.0463 154.283 35.4418C152.826 35.8374 151.519 36.657 150.528 37.797C149.536 38.937 148.904 40.3462 148.713 41.8462C148.521 43.3462 148.777 44.8696 149.45 46.2236C150.122 47.5776 151.181 48.7015 152.491 49.4529C153.801 50.2043 155.304 50.5495 156.81 50.4448C158.826 50.3046 160.705 49.3685 162.033 47.8418C163.36 46.3152 164.029 44.3229 163.892 42.3024Z" fill="#525B61"/>
<path d="M163.338 42.3396C163.243 40.9403 162.736 39.6007 161.881 38.4903C161.026 37.3798 159.861 36.5483 158.534 36.1012C157.207 35.654 155.778 35.6112 154.427 35.9781C153.076 36.3451 151.864 37.1053 150.945 38.1627C150.025 39.22 149.44 40.5269 149.262 41.9179C149.084 43.309 149.322 44.7217 149.946 45.9772C150.57 47.2328 151.552 48.2748 152.767 48.9715C153.982 49.6681 155.376 49.9879 156.772 49.8906C158.642 49.7603 160.383 48.892 161.615 47.4762C162.846 46.0605 163.466 44.2131 163.338 42.3396Z" fill="#525B61"/>
<g style="mix-blend-mode:multiply" opacity="0.2">
<path d="M163.339 42.3394C163.244 40.9402 162.737 39.6005 161.881 38.4901C161.026 37.3796 159.862 36.5482 158.535 36.101C157.208 35.6538 155.779 35.611 154.428 35.978C153.077 36.3449 151.865 37.1052 150.945 38.1625C150.026 39.2198 149.44 40.5267 149.262 41.9177C149.085 43.3088 149.323 44.7215 149.947 45.977C150.57 47.2326 151.552 48.2746 152.767 48.9713C153.982 49.6679 155.376 49.9877 156.773 49.8904C158.642 49.7601 160.384 48.8918 161.615 47.476C162.846 46.0603 163.466 44.2129 163.339 42.3394Z" fill="#525B61"/>
</g>
<path d="M154.578 41.2086C154.56 40.9575 154.468 40.7174 154.314 40.5186C154.16 40.3198 153.95 40.1711 153.712 40.0914C153.474 40.0117 153.217 40.0045 152.975 40.0707C152.732 40.1369 152.515 40.2736 152.35 40.4635C152.185 40.6533 152.08 40.8879 152.048 41.1376C152.016 41.3872 152.059 41.6408 152.171 41.8662C152.282 42.0917 152.458 42.2789 152.676 42.4043C152.894 42.5297 153.144 42.5877 153.395 42.5709C153.562 42.5597 153.725 42.5155 153.875 42.4409C154.025 42.3662 154.159 42.2627 154.269 42.1361C154.379 42.0095 154.463 41.8624 154.516 41.7032C154.569 41.5441 154.59 41.376 154.578 41.2086Z" fill="#E6F4FD"/>
<path d="M156.009 38.516C155.999 38.3575 155.941 38.2058 155.844 38.0799C155.748 37.954 155.616 37.8597 155.466 37.8089C155.316 37.7581 155.154 37.753 155.001 37.7943C154.848 37.8357 154.71 37.9215 154.606 38.0411C154.502 38.1607 154.435 38.3085 154.415 38.466C154.394 38.6235 154.421 38.7835 154.491 38.9259C154.561 39.0682 154.672 39.1865 154.81 39.2657C154.947 39.3449 155.105 39.3815 155.263 39.3709C155.475 39.3551 155.671 39.2566 155.811 39.0966C155.951 38.9367 156.022 38.7281 156.009 38.516Z" fill="#E6F4FD"/>
<path d="M148.937 32.7553C149.522 33.1092 151.662 30.2557 157.719 29.5405C162.279 28.9986 162.943 29.5287 163.3 29.6377C163.768 29.7757 164.821 30.08 165.231 29.7864C165.64 29.4928 165.61 28.8778 164.25 28.0376C162.889 27.1974 159.702 27.1331 155.714 27.9089C151.726 28.6847 148.522 31.9726 148.522 31.9726C148.522 31.9726 148.351 32.4015 148.937 32.7553Z" fill="#525B61"/>
<g style="mix-blend-mode:multiply" opacity="0.2">
<path d="M148.937 32.7551C149.523 33.109 151.662 30.2554 157.72 29.5403C162.279 28.9983 162.943 29.5284 163.301 29.6375C163.769 29.7754 164.822 30.0798 165.231 29.7862C165.64 29.4925 165.611 28.8775 164.25 28.0373C162.889 27.1971 159.702 27.1328 155.714 27.9086C151.726 28.6845 148.522 31.9724 148.522 31.9724C148.522 31.9724 148.352 32.4012 148.937 32.7551Z" fill="#525B61"/>
</g>
<path d="M183.9 55.5411C183.481 60.268 182.624 64.9432 181.799 69.608C181.236 72.825 180.834 75.8525 178.182 78.0261C175.375 80.3147 171.553 81.7502 168.26 83.1621C164.25 84.8751 160.124 86.3024 155.915 87.4336C154.975 87.6813 154.675 86.2054 155.609 85.9511C162.606 84.0184 170.579 81.6533 176.573 77.3608C180.109 74.824 180.051 70.099 180.672 66.1319C181.241 62.5042 181.854 58.8791 182.717 55.3068C182.883 54.6318 183.985 54.8673 183.9 55.5411Z" fill="#525B61"/>
<g style="mix-blend-mode:multiply" opacity="0.4">
<path d="M183.9 55.5411C183.481 60.268 182.624 64.9432 181.799 69.608C181.236 72.825 180.834 75.8525 178.182 78.0261C175.375 80.3147 171.553 81.7502 168.26 83.1621C164.25 84.8751 160.124 86.3024 155.915 87.4336C154.975 87.6813 154.675 86.2054 155.609 85.9511C162.606 84.0184 170.579 81.6533 176.573 77.3608C180.109 74.824 180.051 70.099 180.672 66.1319C181.241 62.5042 181.854 58.8791 182.717 55.3068C182.883 54.6318 183.985 54.8673 183.9 55.5411Z" fill="#525B61"/>
</g>
<path d="M187.348 43.7364C187.071 43.7194 186.823 44.1369 186.79 44.6726L186.417 50.7743C186.384 51.31 186.58 51.7546 186.857 51.7715L187.411 51.8054C187.738 51.8254 188.043 51.5845 188.388 51.1915C189.168 50.2712 189.623 49.1196 189.683 47.9149C189.773 46.7116 189.461 45.5124 188.797 44.5048C188.502 44.0727 188.223 43.796 187.902 43.7764L187.348 43.7364Z" fill="#545555"/>
<path d="M183.624 39.2906C182.824 39.2417 182.125 40.0851 182.058 41.1778L181.295 53.6614C181.227 54.7604 181.793 55.6812 182.618 55.7316L184.286 55.8336C186.177 55.9493 187.83 53.9558 187.989 51.3566L188.421 44.2875C188.58 41.6883 187.183 39.5083 185.292 39.3926L183.624 39.2906Z" fill="#F18854"/>
<path d="M155.187 82.1084C153.422 81.8762 151.675 82.5769 150.033 83.2779C148.983 83.723 147.874 84.2329 147.281 85.203C146.941 85.8397 146.811 86.5684 146.911 87.2836C147.011 87.9989 147.336 88.6637 147.837 89.1818C148.352 89.6841 148.965 90.0749 149.637 90.3297C150.309 90.5846 151.027 90.6981 151.744 90.6633C153.184 90.5865 154.598 90.2523 155.92 89.6762C156.926 89.3655 157.822 88.7738 158.504 87.9706C160.13 85.7094 157.516 82.431 155.187 82.1084Z" fill="#525B61"/>
<g style="mix-blend-mode:multiply" opacity="0.4">
<path d="M155.186 82.1078C153.421 81.8756 151.674 82.5763 150.032 83.2773C148.982 83.7224 147.872 84.2323 147.28 85.2025C146.939 85.8391 146.81 86.5678 146.91 87.2831C147.01 87.9983 147.334 88.6631 147.836 89.1813C148.351 89.6836 148.964 90.0743 149.636 90.3292C150.308 90.584 151.025 90.6976 151.743 90.6627C153.182 90.586 154.597 90.2517 155.919 89.6757C156.924 89.3649 157.82 88.7732 158.502 87.97C160.128 85.7088 157.515 82.4304 155.186 82.1078Z" fill="#525B61"/>
</g>
</svg>
