<svg width="306" height="358" viewBox="0 0 306 358" fill="none" xmlns="http://www.w3.org/2000/svg">
<g clip-path="url(#clip0)">
<path d="M111.323 342.462C109.868 352.242 77.7159 411.171 72.4196 417.288C71.2831 418.589 69.3965 420.94 67.112 423.861C59.6905 433.321 48.1547 448.59 45.4271 452.196L44.8474 452.972L36.0166 449.32L17.6389 441.777C17.6389 441.777 17.6957 441.538 17.8207 441.081L18.0708 440.088C20.1961 431.94 29.7316 396.051 38.7556 372.977C47.7797 349.903 74.329 314.435 80.6595 308.558C85.342 304.211 96.3208 305.546 104.754 308.182C114.346 311.24 112.789 332.671 111.323 342.462Z" fill="#4D9BE2"/>
<path d="M199.095 342.462C200.55 352.242 232.703 411.171 237.999 417.288C239.135 418.589 241.022 420.94 243.306 423.861C250.728 433.321 262.264 448.59 264.991 452.196L265.571 452.972L274.402 449.32L292.78 441.777C292.78 441.777 292.723 441.538 292.598 441.081L292.348 440.088C290.222 431.94 280.687 396.051 271.663 372.977C262.639 349.903 236.089 314.435 229.759 308.558C225.076 304.211 214.098 305.546 205.665 308.182C196.072 311.24 197.629 332.671 199.095 342.462Z" fill="#4D9BE2"/>
<g style="mix-blend-mode:multiply" opacity="0.4">
<path d="M199.095 342.462C200.55 352.242 232.703 411.171 237.999 417.288C239.135 418.589 241.022 420.94 243.306 423.861C250.728 433.321 262.264 448.59 264.991 452.196L265.571 452.972L274.402 449.32L292.78 441.777C292.78 441.777 292.723 441.538 292.598 441.081L292.348 440.088C290.222 431.94 280.687 396.051 271.663 372.977C262.639 349.903 236.089 314.435 229.759 308.558C225.076 304.211 214.098 305.546 205.665 308.182C196.072 311.24 197.629 332.671 199.095 342.462Z" fill="#4D9BE2"/>
</g>
<g style="mix-blend-mode:multiply" opacity="0.5">
<path d="M185.811 156.351C186.143 156.351 186.413 156.08 186.413 155.746C186.413 155.412 186.143 155.141 185.811 155.141C185.478 155.141 185.208 155.412 185.208 155.746C185.208 156.08 185.478 156.351 185.811 156.351Z" fill="#515A60"/>
</g>
<path d="M264.015 538.217C264.015 556.076 264.015 565.604 260.31 594.316C260.31 594.316 258.73 606.401 240.568 637.258C224.305 664.885 188.663 679.595 188.663 679.595L178.923 681.306C171.366 682.448 163.75 683.165 156.113 683.452H155.465V217.232C155.465 217.232 163.08 218.499 184.572 209.164C208.996 198.551 230.669 182.598 237.693 161.087C234.704 181.388 230.522 205.763 228.544 220.427C228.135 223.383 227.828 225.939 227.635 227.982C226.009 245.27 229.703 293.119 230.249 308.456C230.249 309.175 230.249 309.825 230.306 310.396C230.306 310.613 230.306 310.852 230.306 311.103C230.567 316.809 232.647 330.035 235.034 343.718C235.039 343.794 235.039 343.87 235.034 343.946C235.034 344.003 235.034 344.083 235.034 344.174C238.011 361.234 241.432 378.934 242.364 383.715L242.614 384.971C242.614 384.971 243.83 390.596 245.785 400.137C247.74 409.677 252.604 428.745 257.957 461.268C263.31 493.791 264.015 536.436 264.015 538.217Z" fill="#4D9BE2"/>
<path d="M214.292 537.189C211.456 556.067 207.582 574.772 202.688 593.22C198.229 610.142 192.795 626.789 186.413 643.077C181.234 656.59 175.269 669.786 168.547 682.596C163.262 683.086 158.318 683.337 156.113 683.429H154.817C147.176 683.142 139.557 682.426 131.996 681.283L122.256 679.572C122.256 679.572 120.233 683.566 117.63 688.45C115.027 693.334 108.697 697.99 108.697 697.99C107.743 696.747 106.591 695.671 105.287 694.806C104.419 694.16 103.499 693.588 102.537 693.094C101.619 694.333 100.584 695.48 99.4457 696.518L97.9909 697.75C97.949 696.267 97.4964 694.825 96.6839 693.585L95.4678 692.204C95.4678 692.204 94.0131 693.266 92.0582 694.897C91.3704 695.514 90.6064 696.04 89.7852 696.461C89.5949 696.562 89.3924 696.639 89.1828 696.689C89.1828 696.689 89.592 695.137 87.6371 693.756C85.6823 692.375 82.6023 690.572 77.0106 683.566C71.4189 676.559 52.1661 644.595 50.6999 613.544C50.3379 605.211 50.4214 596.865 50.95 588.542L51.0522 586.898C51.2568 583.726 51.5069 580.648 51.8024 577.666C51.8085 577.583 51.8085 577.499 51.8024 577.415C51.9728 575.589 52.1661 573.798 52.3706 572.075C52.4502 571.401 52.5297 570.728 52.6093 570.078C52.6888 569.427 52.8025 568.571 52.8934 567.795L52.9616 567.27C53.2003 565.467 53.439 563.733 53.689 562.101C53.814 561.279 53.939 560.48 54.0527 559.716C54.1209 559.328 54.1777 558.94 54.2459 558.575C54.3709 557.822 54.4846 557.103 54.6096 556.395C54.7346 555.688 54.8483 554.992 54.9733 554.341C55.1324 553.428 55.2915 552.572 55.4506 551.773C55.5302 551.408 55.5984 551.054 55.6666 550.724C55.7347 550.393 55.7802 550.187 55.8257 549.925C55.8327 549.906 55.8327 549.886 55.8257 549.868C55.8825 549.639 55.928 549.4 55.9734 549.183C56.2348 547.973 56.4735 546.958 56.6667 546.182C56.6667 546.033 56.7576 545.896 56.7917 545.76C56.8258 545.623 56.9281 545.246 56.9963 545.041C57.1895 544.436 57.36 543.899 57.5191 543.26C57.6782 542.621 57.826 542.119 57.9396 541.514C58.1488 540.52 58.3006 539.514 58.3942 538.502C58.3942 538.148 58.4511 537.806 58.4624 537.452C58.4738 537.098 58.4624 536.493 58.4624 536.003C58.4624 535.512 58.4624 534.953 58.3942 534.416C58.2771 532.971 58.053 531.537 57.7237 530.126C56.5076 524.739 47.4949 493.689 52.848 461.166C58.201 428.643 63.0767 409.574 65.0316 400.034C66.9864 390.494 68.1911 384.868 68.1911 384.868C68.1911 384.868 80.3747 323.006 80.6134 310.293C80.852 297.581 85.0004 245.978 83.2956 227.879C83.1024 225.836 82.7955 223.314 82.3977 220.324C80.4088 205.683 76.2036 181.285 73.2146 160.984C80.2156 182.529 101.912 198.505 126.359 209.13C147.85 218.464 155.465 217.198 155.465 217.198C155.465 217.198 161.33 218.179 177.309 212.085C182.162 244.882 186.788 279.824 192.721 301.963C202.949 340.112 214.656 399.783 218.645 447.711C220.634 471.653 219.406 503.103 214.292 537.189Z" fill="#4D9BE2"/>
<g style="mix-blend-mode:multiply" opacity="0.4">
<path d="M264.015 538.217C264.015 556.076 264.015 565.605 260.31 594.316C260.31 594.316 258.73 606.401 240.568 637.258C224.304 664.885 188.663 679.595 188.663 679.595L178.923 681.306C175.74 681.877 172.047 682.299 168.546 682.619C175.268 669.809 181.234 656.614 186.412 643.101C192.795 626.812 198.229 610.165 202.688 593.243C207.582 574.788 211.456 556.075 214.291 537.19C219.406 503.081 220.633 471.63 218.644 447.723C214.655 399.794 202.949 340.123 192.72 301.974C186.787 279.836 182.162 244.916 177.309 212.097C179.582 211.264 181.946 210.282 184.571 209.141C208.995 198.528 230.669 182.575 237.693 161.064C234.704 181.365 230.521 205.741 228.544 220.404C228.134 223.36 227.828 225.916 227.634 227.959C226.009 245.247 229.703 293.096 230.248 308.433C230.248 309.152 230.248 309.803 230.305 310.373C230.305 310.59 230.305 310.83 230.305 311.081C230.567 316.787 232.646 330.013 235.033 343.695C235.038 343.771 235.038 343.847 235.033 343.923C235.033 343.98 235.033 344.06 235.033 344.152C238.011 361.212 241.432 378.911 242.364 383.693L242.614 384.948C242.614 384.948 243.83 390.574 245.785 400.114C247.74 409.654 252.604 428.723 257.957 461.246C263.037 492.057 263.821 531.918 263.89 537.612C264.015 537.909 264.015 538.126 264.015 538.217Z" fill="#4D9BE2"/>
</g>
<path d="M219.777 447.745C215.788 399.817 204.082 340.146 193.853 301.997C187.92 279.858 183.295 244.939 178.442 212.119C172.98 214.332 167.3 215.954 161.496 216.958C161.269 216.958 161.053 217.026 160.848 217.049C160.644 217.072 160.178 217.14 159.871 217.163H159.712C159.359 217.163 159.041 217.232 158.757 217.243C158.039 217.317 157.315 217.317 156.598 217.243C156.034 217.296 155.467 217.296 154.904 217.243H154.188H153.506L152.847 217.175L152.313 217.106C151.782 217.038 151.191 216.946 150.54 216.832C147.11 216.196 143.73 215.315 140.425 214.196L138.606 213.591L136.572 212.861C133.867 211.88 130.889 210.681 127.48 209.221C111.693 202.374 97.0547 193.245 86.7919 181.833C88.508 190.757 103.84 198.734 105.692 206.938C107.069 214.635 107.803 222.433 107.886 230.252C107.147 256.168 109.147 269.702 105.942 294.887C102.533 321.682 104.567 355.083 91.2243 407.132C74.1764 473.673 78.4157 515.713 87.667 537.224C96.9184 558.734 102.931 571.287 117.387 583.189C127.002 591.109 143.039 600.923 159.087 600.923C171.713 600.923 190.25 599.907 203.809 593.22C218.311 538.764 222.834 484.388 219.777 447.745ZM190.943 569.359C190.716 568.902 191.614 568.72 192.751 568.605C192.012 569.644 191.319 570.112 190.943 569.359Z" fill="#DBF0FD"/>
<path d="M237.056 404.701C224.873 352.322 220.997 318.783 216.11 292.217C212.951 274.86 213.837 246.457 216.86 223.816C217.633 218.111 218.531 212.781 219.599 207.84C221.406 199.601 223.543 190.723 225.282 181.776C215.053 193.188 200.381 202.26 184.594 209.164C181.969 210.305 179.559 211.286 177.332 212.119C182.185 244.916 186.81 279.859 192.743 301.997C202.972 340.146 214.678 399.817 218.667 447.746C221.725 484.388 217.201 538.764 202.756 593.243C206.077 591.677 209.142 589.614 211.848 587.127C233.988 566.278 243.671 547.7 247.297 531.815C253.275 505.294 249.229 457.035 237.056 404.701Z" fill="#DBF0FD"/>
<g style="mix-blend-mode:multiply" opacity="0.5">
<path d="M237.056 404.701C224.873 352.322 220.997 318.783 216.11 292.217C212.951 274.86 213.837 246.457 216.86 223.816C217.633 218.111 218.531 212.781 219.599 207.84C221.406 199.601 223.543 190.723 225.282 181.776C215.053 193.188 200.381 202.26 184.594 209.164C181.969 210.305 179.559 211.286 177.332 212.119C182.185 244.916 186.81 279.859 192.743 301.997C202.972 340.146 214.678 399.817 218.667 447.746C221.725 484.388 217.201 538.764 202.756 593.243C206.077 591.677 209.142 589.614 211.848 587.127C233.988 566.278 243.671 547.7 247.297 531.815C253.275 505.294 249.229 457.035 237.056 404.701Z" fill="#DBF0FD"/>
</g>
<path d="M218.645 447.745C214.655 399.817 202.949 340.146 192.72 301.997C186.788 279.858 182.162 244.939 177.309 212.119C171.848 214.332 166.167 215.954 160.363 216.958C160.136 216.958 159.92 217.026 159.716 217.049C159.511 217.072 159.045 217.14 158.738 217.163H158.579C158.227 217.163 157.908 217.232 157.624 217.243C156.906 217.317 156.183 217.317 155.465 217.243C154.902 217.296 154.335 217.296 153.772 217.243H153.056H152.374L151.714 217.175L151.18 217.106C150.65 217.038 150.059 216.946 149.407 216.832C145.977 216.196 142.597 215.315 139.292 214.196L137.474 213.591L135.439 212.861C132.734 211.88 129.757 210.681 126.347 209.221C110.561 202.374 95.9222 193.245 85.6593 181.833C87.3755 190.757 102.707 198.734 104.56 206.938C105.936 214.635 106.67 222.433 106.753 230.252C106.015 256.168 108.015 269.702 104.81 294.887C101.4 321.682 103.435 355.084 90.0918 407.132C73.0438 473.673 77.2831 515.713 86.5344 537.224C95.7858 558.734 101.798 571.287 116.255 583.189C125.87 591.109 141.906 600.923 157.954 600.923C170.581 600.923 189.118 599.907 202.676 593.22C217.179 538.764 221.702 484.388 218.645 447.745ZM189.811 569.359C189.584 568.902 190.481 568.72 191.618 568.605C190.879 569.644 190.186 570.112 189.811 569.359Z" fill="#DBF0FD"/>
<path d="M155.215 193.701C154.991 193.417 154.727 193.167 154.431 192.959L155.215 193.701Z" fill="#2E98D5"/>
<path d="M155.215 193.701C154.991 193.417 154.727 193.167 154.431 192.959L155.215 193.701Z" fill="#DBF0FD"/>
<g opacity="0.33">
<path opacity="0.33" d="M155.215 193.701C154.991 193.417 154.727 193.167 154.431 192.959L155.215 193.701Z" fill="#535C62"/>
</g>
<g opacity="0.33">
<path opacity="0.33" d="M155.977 194.842H155.215V193.701C155.535 194.033 155.793 194.419 155.977 194.842Z" fill="#535C62"/>
</g>
<path d="M155.988 194.899H155.215V193.701C155.543 194.061 155.801 194.479 155.977 194.934L155.988 194.899Z" fill="#E6F4FD"/>
<path d="M155.215 193.701C154.991 193.417 154.727 193.167 154.431 192.959L155.215 193.701Z" fill="#E6F4FD"/>
<g opacity="0.3">
<path opacity="0.3" d="M253.343 139.336C253.093 146.32 251.661 157.755 249.763 170.764C249.684 171.266 249.615 171.768 249.536 172.27C241.501 196.908 216.667 215.166 188.754 227.331C164.182 238.023 155.465 236.563 155.465 236.563C155.465 236.563 146.737 238.023 122.165 227.331C94.195 215.155 69.3618 196.862 61.3492 172.19C59.8717 161.92 58.6329 152.699 57.9396 145.624C57.7351 143.25 57.5759 141.151 57.5077 139.336C56.6894 117.209 54.1777 92.0011 77.5789 75.4315C100.98 58.8619 134.405 47.1536 145.282 45.7614C150.567 45.0767 153.238 44.7458 154.681 44.5518H156.215C157.602 44.7458 160.318 45.0767 165.592 45.7614C176.468 47.1764 209.916 58.9417 233.295 75.4315C256.673 91.9212 254.196 117.243 253.343 139.336Z" fill="#525B61"/>
<path opacity="0.3" d="M58.8713 148.819C53.2092 145.932 48.1119 142.043 43.8237 137.339C37.0045 129.694 31.3218 122.219 33.6972 116.433C36.0725 110.648 44.1987 105.41 50.0405 101.302C55.8823 97.1935 64.3494 95.0481 64.3494 95.0481C64.3494 95.0481 59.0532 124.364 59.4282 134.167C59.8033 143.97 58.8713 148.819 58.8713 148.819Z" fill="#525B61"/>
<path opacity="0.3" d="M251.491 134.167C251.866 124.364 246.569 95.0481 246.569 95.0481C246.569 95.0481 255.025 97.1935 260.878 101.302C266.731 105.41 274.869 110.648 277.222 116.433C279.574 122.219 273.971 129.694 267.095 137.339C262.807 142.043 257.71 145.932 252.047 148.819C252.047 148.819 251.115 143.958 251.491 134.167Z" fill="#525B61"/>
</g>
<path d="M58.8713 139.713C53.2092 136.825 48.1119 132.936 43.8237 128.233C37.0045 120.576 31.3218 113.101 33.6972 107.316C36.0725 101.53 44.1987 96.3034 50.0405 92.1952C55.8823 88.087 64.3494 85.9417 64.3494 85.9417C64.3494 85.9417 59.0532 115.258 59.4282 125.049C59.8033 134.84 58.8713 139.713 58.8713 139.713Z" fill="#4D9BE2"/>
<path d="M58.8714 107.315C58.8714 107.315 52.575 105.455 48.7563 105.729C44.9376 106.003 43.5396 107.601 43.6419 110.682C43.7136 114.107 44.9578 117.404 47.1652 120.016C49.7678 123.28 53.1888 126.167 55.2459 126.27C57.303 126.373 58.8714 123.565 58.8714 123.565V107.315Z" fill="#DBF0FD"/>
<g opacity="0.18">
<path opacity="0.18" d="M44.0737 108.171C50.0519 108.422 51.4043 110.979 52.95 114.037C54.2457 116.616 54.6207 123.543 54.7117 126.202C54.8658 126.254 55.0265 126.285 55.189 126.293C57.2347 126.396 58.8145 123.588 58.8145 123.588V107.315C58.8145 107.315 52.5181 105.455 48.6994 105.729C46.1877 105.889 44.7443 106.699 44.0737 108.171Z" fill="#535C62"/>
</g>
<path opacity="0.16" d="M33.4019 108.171C37.8493 106.88 42.4213 106.069 47.0402 105.752C50.5445 105.626 54.0475 106.037 57.4281 106.973L61.3037 100.617L62.8266 95.0477C63.6904 89.7642 64.3723 86.0098 64.3723 86.0098C64.3723 86.0098 55.9165 88.1437 50.0634 92.2519C44.2103 96.3601 36.05 101.587 33.7087 107.372C33.5723 107.635 33.47 107.897 33.4019 108.171Z" fill="#525B61"/>
<path d="M251.491 125.049C251.866 115.258 246.569 85.9417 246.569 85.9417C246.569 85.9417 255.025 88.0756 260.878 92.1952C266.731 96.3148 274.869 101.53 277.222 107.316C279.574 113.101 273.971 120.576 267.095 128.233C262.807 132.936 257.71 136.825 252.047 139.713C252.047 139.713 251.115 134.852 251.491 125.049Z" fill="#4D9BE2"/>
<g style="mix-blend-mode:multiply" opacity="0.4">
<path d="M251.491 125.049C251.866 115.258 246.569 85.9417 246.569 85.9417C246.569 85.9417 255.025 88.0756 260.878 92.1952C266.731 96.3148 274.869 101.53 277.222 107.316C279.574 113.101 273.971 120.576 267.095 128.233C262.807 132.936 257.71 136.825 252.047 139.713C252.047 139.713 251.115 134.852 251.491 125.049Z" fill="#4D9BE2"/>
</g>
<path d="M252.047 123.566C252.047 123.566 253.627 126.373 255.673 126.27C257.719 126.167 261.151 123.28 263.754 120.017C265.961 117.404 267.205 114.107 267.277 110.682C267.379 107.601 265.993 106.015 262.174 105.729C258.355 105.444 252.047 107.316 252.047 107.316V123.566Z" fill="#DBF0FD"/>
<g style="mix-blend-mode:multiply" opacity="0.18">
<path d="M262.163 105.729C258.344 105.455 252.047 107.315 252.047 107.315V123.588C252.047 123.588 253.627 126.396 255.673 126.293H255.73C255.892 126.285 256.053 126.254 256.207 126.202C256.298 123.543 256.673 116.616 257.969 114.037C259.514 110.979 260.867 108.422 266.845 108.171C266.186 106.699 264.731 105.889 262.163 105.729Z" fill="#525B61"/>
</g>
<path opacity="0.16" d="M277.245 107.372C274.903 101.587 266.732 96.3486 260.89 92.2519C255.048 88.1551 246.581 86.0098 246.581 86.0098C246.581 86.0098 247.263 89.7642 248.127 95.0477L249.65 100.617L253.525 106.973C256.906 106.037 260.409 105.626 263.913 105.752C268.532 106.069 273.104 106.88 277.551 108.171C277.438 107.897 277.347 107.635 277.245 107.372Z" fill="#525B61"/>
<path d="M155.436 38.013L155.215 230.024H154.783C154.476 230.024 153.999 230.024 153.34 230.024H152.942L152.192 229.967H152.067C147.68 229.602 138.349 227.867 121.915 220.758C103.833 212.895 87.0461 202.499 75.3171 189.399L74.6806 188.68C72.6036 186.327 70.6753 183.846 68.9071 181.251C68.6911 180.943 68.4866 180.623 68.282 180.315C66.986 178.355 65.7984 176.324 64.7246 174.233C64.0313 172.864 63.3949 171.483 62.8039 170.079C62.3379 168.938 61.906 167.797 61.5196 166.713C61.272 165.998 61.0969 165.26 60.9968 164.51C59.9285 157.173 59.0079 150.337 58.3487 144.506C58.1328 142.577 57.9395 140.751 57.7918 139.063C57.5872 136.712 57.4281 134.601 57.3599 132.775C56.5303 110.659 54.0299 85.451 77.431 68.927C100.832 52.4031 134.258 40.6492 145.134 39.257L154.09 38.1158C154.381 38.0984 154.672 37.9956 154.963 38.013H155.436Z" fill="#4D9BE2"/>
<path d="M253.093 132.752C253.025 134.578 252.866 136.689 252.661 139.04C252.513 140.729 252.32 142.554 252.104 144.483C251.445 150.337 250.547 157.184 249.411 164.487C249.311 165.237 249.136 165.975 248.888 166.69C248.502 167.831 248.07 168.972 247.604 170.056C247.013 171.46 246.376 172.841 245.683 174.21C244.613 176.298 243.429 178.324 242.137 180.281C241.898 180.646 241.66 181.011 241.41 181.365C239.633 183.953 237.697 186.426 235.613 188.771C223.839 202.111 206.836 212.736 188.47 220.724C176.525 225.893 168.331 228.221 163.057 229.248C162.239 229.408 161.489 229.533 160.784 229.636C160.08 229.739 159.182 229.853 158.511 229.91L157.772 229.967H157.602H157.204H156.84C156.181 229.967 155.704 229.967 155.397 229.967H155.124V38.013H155.397C155.688 37.9957 155.981 37.9957 156.272 38.013L165.228 39.1542C176.093 40.5578 209.553 52.3117 232.931 68.8243C256.309 85.3368 253.957 110.636 253.093 132.752Z" fill="#4D9BE2"/>
<path d="M155.215 38.0131V230.024H154.783C154.477 230.024 153.999 230.024 153.34 230.024H152.942L152.192 229.967H152.067C147.68 229.602 138.349 227.867 121.915 220.758C103.833 212.895 87.0463 202.499 75.3173 189.399L74.6809 188.68C72.6038 186.327 70.6755 183.846 68.9073 181.251C68.6914 180.943 68.4868 180.623 68.2822 180.315C66.9863 178.355 65.7987 176.324 64.7249 174.233C64.0316 172.864 63.3951 171.483 62.8041 170.079C62.3382 168.938 61.9063 167.797 61.5199 166.713C61.2723 165.998 61.0971 165.26 60.9971 164.51C59.9287 157.173 59.0081 150.337 58.3489 144.506C58.133 142.577 57.9398 140.751 57.792 139.062C57.5875 136.712 57.4284 134.601 57.3602 132.775C56.5305 110.659 54.0301 85.451 77.4313 68.927C100.832 52.403 134.258 40.6491 145.134 39.2569L154.09 38.1158C154.382 38.0984 154.661 37.9958 154.952 38.0132L155.215 38.0131Z" fill="#4D9BE2"/>
<g style="mix-blend-mode:multiply" opacity="0.4">
<path d="M253.093 132.752C253.025 134.578 252.866 136.689 252.661 139.04C252.514 140.729 252.321 142.554 252.105 144.483C251.445 150.337 250.548 157.184 249.411 164.487C249.311 165.237 249.136 165.975 248.888 166.69C248.502 167.831 248.07 168.972 247.604 170.056C247.013 171.46 246.376 172.841 245.683 174.21C244.613 176.298 243.429 178.324 242.137 180.281C241.899 180.646 241.66 181.011 241.41 181.365C239.634 183.953 237.698 186.426 235.614 188.771C223.839 202.111 206.837 212.736 188.47 220.724C176.525 225.893 168.331 228.221 163.057 229.248C162.239 229.408 161.489 229.533 160.784 229.636C160.08 229.739 159.182 229.853 158.511 229.91L157.773 229.967H157.602H157.204H156.841C156.181 229.967 155.704 229.967 155.397 229.967H155.125V38.013H155.397C155.689 37.9957 155.981 37.9957 156.272 38.013L165.228 39.1542C176.093 40.5578 209.553 52.3117 232.931 68.8243C256.31 85.3368 253.957 110.636 253.093 132.752Z" fill="#4D9BE2"/>
</g>
<path d="M155.227 138.093L156.806 229.776L154.783 230.024C154.476 230.024 153.999 230.024 153.34 230.024H152.942L152.192 229.967H152.067C147.68 229.602 138.349 227.868 121.915 220.758C103.833 212.896 87.0462 202.5 75.3173 189.399L74.6808 188.68C72.6037 186.327 70.6754 183.846 68.9072 181.251C76.181 167.945 88.9897 157.447 103.708 149.938C132.723 135.103 154.602 138.024 155.238 138.116L155.227 138.093Z" fill="#DBF0FD"/>
<path d="M241.455 181.365C239.679 183.953 237.743 186.427 235.659 188.771C223.884 202.112 206.882 212.736 188.516 220.724C176.571 225.893 168.376 228.221 163.103 229.248C162.284 229.408 161.534 229.534 160.83 229.636C160.125 229.739 159.239 229.842 158.557 229.91L157.818 229.967H157.647H157.25H156.886C156.227 229.967 155.749 229.967 155.443 229.967H155.079V138.093H155.249C157.318 137.842 178.662 135.673 206.62 149.938C221.35 157.447 234.204 167.991 241.455 181.365Z" fill="#CCE9FC"/>
<g opacity="0.5">
<path opacity="0.5" d="M182.356 168.504C182.591 168.504 182.816 168.411 182.982 168.244C183.149 168.077 183.242 167.85 183.242 167.614C183.242 167.378 183.149 167.152 182.982 166.985C182.816 166.818 182.591 166.724 182.356 166.724C182.12 166.724 181.895 166.818 181.729 166.985C181.562 167.152 181.469 167.378 181.469 167.614C181.469 167.85 181.562 168.077 181.729 168.244C181.895 168.411 182.12 168.504 182.356 168.504Z" fill="#525B61"/>
</g>
<g opacity="0.5">
<path opacity="0.5" d="M186.652 164.716C186.812 164.718 186.97 164.672 187.104 164.584C187.239 164.496 187.344 164.369 187.406 164.221C187.469 164.072 187.486 163.909 187.455 163.75C187.424 163.592 187.347 163.447 187.234 163.333C187.12 163.219 186.975 163.141 186.818 163.11C186.66 163.08 186.497 163.097 186.349 163.159C186.201 163.222 186.075 163.328 185.987 163.463C185.9 163.598 185.854 163.756 185.856 163.917C185.856 164.129 185.94 164.332 186.089 164.482C186.238 164.632 186.441 164.716 186.652 164.716Z" fill="#525B61"/>
</g>
<g opacity="0.5">
<path opacity="0.5" d="M186.901 157.31C187.048 157.312 187.192 157.27 187.315 157.19C187.438 157.11 187.534 156.995 187.592 156.86C187.65 156.724 187.666 156.575 187.639 156.43C187.611 156.286 187.542 156.152 187.439 156.047C187.336 155.943 187.205 155.871 187.061 155.841C186.918 155.812 186.768 155.826 186.633 155.882C186.497 155.937 186.381 156.032 186.299 156.155C186.218 156.277 186.174 156.421 186.174 156.568C186.174 156.763 186.25 156.95 186.386 157.088C186.523 157.227 186.707 157.307 186.901 157.31Z" fill="#525B61"/>
</g>
<g opacity="0.5">
<path opacity="0.5" d="M189.925 160.345C190.121 160.345 190.309 160.267 190.447 160.128C190.586 159.989 190.664 159.8 190.664 159.603C190.664 159.407 190.586 159.218 190.447 159.079C190.309 158.94 190.121 158.862 189.925 158.862C189.729 158.862 189.541 158.94 189.402 159.079C189.264 159.218 189.186 159.407 189.186 159.603C189.186 159.8 189.264 159.989 189.402 160.128C189.541 160.267 189.729 160.345 189.925 160.345Z" fill="#525B61"/>
</g>
<g opacity="0.5">
<path opacity="0.5" d="M128.518 168.504C128.693 168.504 128.865 168.452 129.011 168.354C129.156 168.256 129.27 168.117 129.337 167.955C129.404 167.792 129.422 167.613 129.388 167.441C129.353 167.268 129.269 167.109 129.145 166.985C129.021 166.86 128.863 166.776 128.691 166.741C128.519 166.707 128.341 166.725 128.179 166.792C128.017 166.859 127.878 166.973 127.781 167.12C127.684 167.266 127.632 167.438 127.632 167.614C127.632 167.85 127.725 168.077 127.891 168.244C128.057 168.411 128.283 168.504 128.518 168.504Z" fill="#525B61"/>
</g>
<g opacity="0.5">
<path opacity="0.5" d="M124.165 164.716C124.325 164.716 124.481 164.668 124.614 164.579C124.747 164.489 124.851 164.362 124.911 164.213C124.972 164.064 124.988 163.901 124.955 163.743C124.923 163.586 124.845 163.442 124.731 163.329C124.617 163.216 124.473 163.14 124.315 163.11C124.158 163.08 123.995 163.097 123.848 163.16C123.701 163.224 123.576 163.329 123.488 163.464C123.401 163.599 123.356 163.756 123.358 163.917C123.358 164.023 123.379 164.128 123.42 164.225C123.46 164.323 123.52 164.412 123.595 164.486C123.67 164.56 123.759 164.619 123.857 164.658C123.955 164.698 124.059 164.717 124.165 164.716Z" fill="#525B61"/>
</g>
<g opacity="0.5">
<path opacity="0.5" d="M123.926 157.31C124.073 157.31 124.215 157.266 124.337 157.185C124.458 157.103 124.553 156.987 124.609 156.852C124.665 156.716 124.68 156.567 124.651 156.423C124.623 156.279 124.552 156.147 124.449 156.043C124.346 155.94 124.214 155.869 124.071 155.84C123.927 155.812 123.779 155.826 123.644 155.883C123.509 155.939 123.393 156.034 123.312 156.156C123.231 156.278 123.188 156.421 123.188 156.568C123.188 156.765 123.266 156.953 123.404 157.092C123.543 157.232 123.731 157.31 123.926 157.31Z" fill="#525B61"/>
</g>
<g opacity="0.5">
<path opacity="0.5" d="M120.915 160.345C121.061 160.345 121.204 160.302 121.325 160.22C121.447 160.139 121.541 160.023 121.597 159.887C121.653 159.752 121.668 159.603 121.639 159.459C121.611 159.315 121.54 159.183 121.437 159.079C121.334 158.975 121.202 158.904 121.059 158.876C120.916 158.847 120.767 158.862 120.632 158.918C120.497 158.974 120.382 159.069 120.301 159.191C120.219 159.313 120.176 159.457 120.176 159.603C120.176 159.8 120.254 159.989 120.392 160.128C120.531 160.267 120.719 160.345 120.915 160.345Z" fill="#525B61"/>
</g>
<path d="M124.233 164.293C120.409 164.215 116.583 164.372 112.777 164.761C109.004 165.149 105.219 165.697 101.412 166.405C93.8959 167.867 86.5331 170.033 79.4199 172.875C75.882 174.315 72.4188 175.934 69.0434 177.725C68.1796 178.158 67.3613 178.661 66.5203 179.117C65.6792 179.573 64.8382 180.064 64.0313 180.578L61.5763 182.004L59.2237 183.67C58.4282 184.195 57.644 184.811 56.8711 185.348C56.0983 185.884 55.3027 186.489 54.5981 187.082C53.0978 188.326 51.5522 189.479 50.1315 190.814C47.2035 193.398 44.4294 196.153 41.8235 199.064C44.4034 196.126 47.1588 193.348 50.0747 190.745C51.484 189.399 53.0297 188.223 54.5185 186.98C55.2686 186.375 56.0642 185.838 56.7916 185.222C57.519 184.606 58.3372 184.081 59.1328 183.51L61.5309 181.879L63.9744 180.338C64.7927 179.813 65.6338 179.334 66.4634 178.855C67.2931 178.375 68.1228 177.873 68.9752 177.439C72.362 175.629 75.8322 173.986 79.3858 172.51C86.4964 169.613 93.8635 167.397 101.389 165.891C105.14 165.138 108.936 164.567 112.754 164.168C116.584 163.735 120.436 163.54 124.29 163.586C124.359 163.621 124.414 163.677 124.449 163.746C124.485 163.816 124.504 163.894 124.506 163.974C124.517 164.007 124.517 164.043 124.506 164.077C124.514 164.11 124.514 164.146 124.506 164.179C124.481 164.212 124.45 164.239 124.415 164.259C124.36 164.291 124.296 164.303 124.233 164.293Z" fill="#525B61"/>
<path d="M123.825 156.773C121.498 154.855 118.901 153.294 116.119 152.14C115.778 151.992 115.437 151.821 115.096 151.684L114.05 151.296L111.948 150.508C110.527 150.097 109.106 149.63 107.663 149.276C106.22 148.922 104.788 148.614 103.321 148.351L98.9459 147.724C96.0212 147.442 93.0927 147.302 90.1605 147.302H86.8873L85.7508 147.381L81.3751 147.69C79.9111 147.769 78.4535 147.941 77.0108 148.203L72.6693 148.796C69.8053 149.378 66.9298 149.938 64.0771 150.554L55.5986 152.836L64.0544 150.554C66.8957 149.903 69.7371 149.321 72.6352 148.705L76.9768 148.066C78.4315 147.884 79.8635 147.587 81.341 147.507L85.728 147.165L86.8646 147.073H90.2741C93.2176 147.036 96.1611 147.146 99.0936 147.404L103.503 147.998C104.969 148.237 106.436 148.591 107.879 148.876C109.322 149.162 110.777 149.675 112.209 150.075L114.346 150.851L115.403 151.239C115.755 151.376 116.096 151.547 116.448 151.695C119.319 152.845 122.001 154.422 124.404 156.374C124.404 156.374 124.541 156.522 124.336 156.762C124.337 156.83 124.312 156.896 124.265 156.945C124.218 156.994 124.154 157.023 124.086 157.024C124.018 157.026 123.952 157 123.903 156.953C123.854 156.906 123.826 156.841 123.825 156.773Z" fill="#525B61"/>
<path d="M128.666 167.945C123.619 169.193 118.678 170.842 113.891 172.875C109.058 174.893 104.385 177.278 99.9117 180.007C97.6386 181.388 95.4792 182.837 93.3766 184.424C91.2418 185.985 89.1895 187.657 87.228 189.433C83.2514 193.016 79.6836 197.03 76.5901 201.404C79.6381 196.987 83.1681 192.926 87.1143 189.296C89.0667 187.513 91.1075 185.829 93.2289 184.252C95.3201 182.655 97.5136 181.16 99.7298 179.688C104.186 176.894 108.848 174.445 113.675 172.361C118.474 170.25 123.433 168.528 128.507 167.215C128.507 167.215 128.711 167.215 128.802 167.512C128.839 167.588 128.845 167.675 128.82 167.756C128.795 167.836 128.739 167.904 128.666 167.945Z" fill="#525B61"/>
<path d="M120.858 159.934C117.879 159.467 114.871 159.215 111.856 159.181C108.854 159.103 105.85 159.179 102.855 159.409C96.8633 159.852 90.9067 160.687 85.023 161.908L80.636 162.89C79.1585 163.198 77.7265 163.643 76.2717 164.031C73.3622 164.75 70.5209 165.697 67.6455 166.598C66.2135 167.021 64.8042 167.557 63.3835 168.071L59.1442 169.611L50.8135 173.035C53.5752 171.893 56.337 170.661 59.1215 169.531L63.338 167.945C64.7473 167.409 66.1566 166.861 67.5887 166.427C70.4527 165.492 73.2713 164.522 76.2036 163.768C77.6583 163.38 79.0903 162.924 80.5565 162.627L84.9435 161.6C90.8296 160.309 96.7942 159.409 102.798 158.907C105.81 158.69 108.822 158.542 111.891 158.599C114.934 158.599 117.973 158.824 120.983 159.272C120.983 159.272 121.176 159.341 121.165 159.66C121.153 159.98 120.858 159.934 120.858 159.934Z" fill="#525B61"/>
<path d="M186.754 164.293C190.578 164.215 194.404 164.372 198.21 164.761C201.998 165.149 205.787 165.697 209.575 166.405C217.077 167.865 224.425 170.032 231.522 172.875C235.078 174.311 238.561 175.925 241.955 177.713C242.796 178.147 243.626 178.649 244.467 179.106C245.308 179.562 246.149 180.053 246.956 180.566L249.411 182.084L251.809 183.705C252.616 184.229 253.4 184.846 254.173 185.382C254.946 185.918 255.73 186.523 256.446 187.117C257.946 188.36 259.48 189.513 260.912 190.848C263.843 193.43 266.617 196.185 269.22 199.099C266.638 196.163 263.882 193.385 260.969 190.78C259.549 189.433 258.014 188.258 256.525 187.014C255.764 186.409 254.98 185.873 254.252 185.256C253.525 184.64 252.695 184.115 251.888 183.545L249.502 181.913L247.047 180.372C246.251 179.847 245.41 179.368 244.569 178.889C243.728 178.41 242.91 177.907 242.057 177.474C238.671 175.649 235.193 174.004 231.635 172.544C224.532 169.648 217.173 167.431 209.655 165.925C205.87 165.172 202.097 164.59 198.29 164.202C194.456 163.768 190.6 163.574 186.742 163.62C186.679 163.659 186.628 163.714 186.595 163.78C186.572 163.854 186.572 163.934 186.595 164.008C186.579 164.037 186.571 164.069 186.572 164.102C186.572 164.134 186.581 164.166 186.596 164.195C186.612 164.223 186.635 164.247 186.662 164.264C186.69 164.282 186.721 164.292 186.754 164.293Z" fill="#525B61"/>
<path d="M187.106 156.773C189.436 154.86 192.032 153.299 194.812 152.14C195.164 151.992 195.494 151.821 195.846 151.684L196.892 151.296L198.983 150.508C200.415 150.097 201.835 149.63 203.267 149.276C204.7 148.922 206.166 148.614 207.609 148.352L211.985 147.724C214.906 147.439 217.849 147.302 220.781 147.302H224.089L225.225 147.382L229.612 147.69C231.072 147.771 232.526 147.942 233.965 148.203L238.318 148.797C241.171 149.379 244.001 149.938 246.899 150.554L255.377 152.836L246.922 150.554C244.069 149.903 241.239 149.322 238.352 148.705L233.999 148.066C232.544 147.884 231.101 147.587 229.646 147.507L225.248 147.165L224.111 147.073H220.781C217.83 147.036 214.879 147.146 211.939 147.404L207.529 147.998C206.075 148.237 204.62 148.591 203.154 148.876C201.688 149.162 200.267 149.675 198.835 150.075L196.71 150.851L195.641 151.239C195.289 151.376 194.937 151.547 194.607 151.695C191.735 152.842 189.053 154.42 186.651 156.374C186.611 156.43 186.589 156.498 186.589 156.568C186.589 156.637 186.611 156.705 186.651 156.762C186.799 157.001 187.106 156.773 187.106 156.773Z" fill="#525B61"/>
<path d="M182.355 167.945C187.402 169.195 192.342 170.843 197.13 172.875C201.955 174.895 206.62 177.28 211.087 180.007C213.36 181.388 215.508 182.837 217.633 184.424C219.758 185.989 221.802 187.661 223.759 189.433C227.745 193.01 231.317 197.025 234.408 201.404C231.356 196.987 227.822 192.926 223.873 189.296C221.929 187.494 219.895 185.792 217.781 184.195C215.667 182.598 213.496 181.103 211.257 179.631C206.803 176.84 202.145 174.39 197.323 172.305C192.525 170.193 187.565 168.472 182.492 167.158C182.492 167.158 182.287 167.158 182.196 167.455C182.163 167.542 182.16 167.639 182.189 167.728C182.218 167.818 182.277 167.894 182.355 167.945Z" fill="#525B61"/>
<path d="M190.14 159.934C193.111 159.467 196.112 159.215 199.119 159.181C202.152 159.103 205.186 159.179 208.211 159.409C214.199 159.853 220.152 160.688 226.032 161.909L230.43 162.89C231.885 163.198 233.329 163.643 234.772 164.031C237.693 164.75 240.545 165.697 243.41 166.599C244.853 167.021 246.262 167.557 247.66 168.071L251.899 169.611L260.242 173.035C257.48 171.894 254.718 170.661 251.934 169.532L247.706 167.945C246.308 167.409 244.898 166.861 243.455 166.428C240.602 165.492 237.772 164.522 234.84 163.769C233.397 163.381 231.965 162.924 230.499 162.628L226.112 161.601C220.225 160.314 214.26 159.418 208.257 158.919C205.256 158.702 202.244 158.554 199.164 158.611C196.121 158.611 193.082 158.836 190.072 159.284C190.072 159.284 189.89 159.352 189.89 159.672C189.89 159.991 190.14 159.934 190.14 159.934Z" fill="#525B61"/>
<g opacity="0.33">
<path opacity="0.33" d="M176.593 138.093C173.877 136.347 167.922 132.98 162.273 132.387C159.182 132.033 157.159 131.85 155.943 131.748V131.645H154.499V131.748C153.283 131.85 151.249 132.033 148.169 132.387C142.486 133.014 136.565 136.381 133.848 138.093C132.495 138.927 131.486 140.224 131.007 141.744C130.531 143.262 130.608 144.9 131.223 146.366C132.507 149.641 141.236 157.778 144.861 159.706C147.816 161.247 153.249 161.121 155.192 161.018C157.159 161.121 162.591 161.247 165.535 159.706C169.183 157.812 177.912 149.641 179.173 146.366C179.794 144.923 179.883 143.304 179.423 141.801C178.955 140.264 177.95 138.947 176.593 138.093Z" fill="#535C62"/>
</g>
<path d="M147.51 138.229C148.785 139.009 150.19 139.55 151.658 139.827C152.833 140.045 154.48 140.031 155.673 140.079V158.813C153.684 158.916 147.68 159.364 144.657 157.835C140.94 155.94 132.019 147.758 130.712 144.494C130.082 143.025 130.005 141.375 130.497 139.853C130.988 138.331 132.014 137.04 133.382 136.221C136.167 134.475 142.247 131.109 148.01 130.515C151.158 130.173 153.238 129.99 154.488 129.888L155.673 129.86V132.131C155.673 132.131 149.305 132.364 146.782 134.27C144.259 136.175 147.51 138.229 147.51 138.229Z" fill="#525B61"/>
<path d="M147.509 138.23C148.785 139.009 150.19 139.55 151.658 139.827C152.832 140.045 154.021 140.179 155.215 140.227V159.136C153.226 159.238 147.68 159.364 144.657 157.835C140.94 155.94 132.018 147.758 130.711 144.494C130.081 143.025 130.005 141.375 130.496 139.853C130.988 138.331 132.013 137.04 133.382 136.221C136.167 134.475 142.247 131.109 148.009 130.515C151.158 130.173 153.237 129.99 154.488 129.888L155.215 129.796V132.17C155.215 132.17 149.305 132.364 146.782 134.27C144.259 136.175 147.509 138.23 147.509 138.23Z" fill="#525B61"/>
<path d="M179.73 144.494C178.423 147.758 169.501 155.906 165.785 157.835C162.762 159.364 157.215 159.238 155.215 159.136V140.227C154.021 140.179 152.833 140.045 151.658 139.827C150.19 139.55 148.785 139.009 147.509 138.23C147.509 138.23 144.225 136.187 146.771 134.258C149.317 132.33 155.204 132.159 155.204 132.159V129.796L155.954 129.899C157.193 130.002 159.261 130.184 162.421 130.527C168.183 131.166 174.275 134.532 177.048 136.233C178.423 137.048 179.455 138.34 179.949 139.866C180.442 141.391 180.365 143.045 179.73 144.517V144.494Z" fill="#525B61"/>
<g opacity="0.4">
<path d="M179.73 144.631C178.423 147.895 169.501 156.043 165.785 157.972C162.762 159.501 157.215 159.375 155.215 159.272V140.352C154.021 140.314 152.832 140.184 151.658 139.964C150.19 139.687 148.785 139.146 147.509 138.366C147.509 138.366 144.225 136.324 146.771 134.395C149.317 132.467 155.204 132.295 155.204 132.295V129.922H155.954V130.025C157.193 130.127 159.261 130.31 162.421 130.652C168.183 131.291 174.275 134.658 177.048 136.358C178.41 137.172 179.432 138.454 179.925 139.967C180.418 141.48 180.349 143.12 179.73 144.586V144.631Z" fill="#525B61"/>
<g style="mix-blend-mode:multiply" opacity="0.2">
<path d="M179.73 144.631C178.423 147.895 169.501 156.043 165.785 157.972C162.762 159.501 157.215 159.375 155.215 159.272V140.352C154.021 140.314 152.832 140.184 151.658 139.964C150.19 139.687 148.785 139.146 147.509 138.366C147.509 138.366 144.225 136.324 146.771 134.395C149.317 132.467 155.204 132.295 155.204 132.295V129.922L155.954 130.025C157.193 130.127 159.261 130.31 162.421 130.652C168.183 131.291 174.275 134.658 177.048 136.358C178.41 137.172 179.432 138.454 179.925 139.967C180.418 141.48 180.349 143.12 179.73 144.586V144.631Z" fill="#525B61"/>
</g>
</g>
<path d="M165.001 149.379C164.853 148.872 164.853 148.333 165.001 147.827C165.14 147.315 165.42 146.852 165.808 146.491C167.171 145.099 168.592 144.209 169.57 144.563C169.787 144.612 169.992 144.705 170.171 144.836C170.351 144.968 170.502 145.135 170.615 145.327C170.731 145.516 170.808 145.725 170.842 145.944C170.888 146.162 170.888 146.387 170.842 146.606C170.788 147.204 170.572 147.776 170.217 148.26C169.874 148.757 169.403 149.152 168.854 149.401C167.809 149.811 166.689 149.993 165.569 149.938C165.046 149.687 165.001 149.379 165.001 149.379Z" fill="#6D7780"/>
<path d="M145.441 149.379C145.589 148.872 145.589 148.333 145.441 147.827C145.301 147.315 145.022 146.852 144.634 146.491C143.259 145.099 141.85 144.209 140.872 144.563C140.655 144.612 140.45 144.705 140.27 144.836C140.09 144.968 139.939 145.135 139.827 145.327C139.706 145.513 139.629 145.724 139.599 145.944C139.559 146.162 139.559 146.387 139.599 146.606C139.663 147.204 139.882 147.774 140.236 148.26C140.577 148.76 141.049 149.155 141.6 149.401C142.645 149.811 143.764 149.993 144.884 149.938C145.011 149.89 145.127 149.815 145.223 149.718C145.319 149.622 145.393 149.506 145.441 149.379Z" fill="#6D7780"/>
<g opacity="0.51">
<path opacity="0.51" d="M162.932 138.23C161.658 139.011 160.252 139.552 158.784 139.827C157.647 140.01 156.761 140.113 156.159 140.17C155.849 140.206 155.536 140.206 155.227 140.17C154.033 140.131 152.844 140.002 151.669 139.782C150.202 139.505 148.796 138.963 147.521 138.184C147.521 138.184 144.236 136.141 146.782 134.213C149.328 132.284 155.215 132.113 155.215 132.113C155.215 132.113 161.125 132.307 163.66 134.213C166.194 136.118 162.932 138.23 162.932 138.23Z" fill="white"/>
</g>
<path d="M196.448 167.261C196.097 167.32 195.782 167.513 195.57 167.801C195.358 168.088 195.266 168.447 195.312 168.801C195.312 168.801 194.357 175.26 190.868 177.542C182.674 182.94 172.502 178.581 156.306 175.123C155.964 175.018 155.606 174.976 155.249 174.998C154.896 174.977 154.542 175.019 154.204 175.123C138.019 178.547 127.836 182.94 119.63 177.542C116.164 175.26 115.175 168.847 115.187 168.801C115.214 168.626 115.206 168.446 115.163 168.274C115.12 168.101 115.043 167.939 114.936 167.797C114.725 167.512 114.411 167.319 114.061 167.261C113.061 167.124 112.595 167.98 112.573 168.744C112.956 172.57 114.723 176.123 117.539 178.729C120.721 181.559 126.404 182.575 132.712 181.936C139.02 181.297 146.543 179.266 155.283 177.371C164.035 179.231 171.627 181.263 177.866 181.936C184.106 182.609 189.868 181.559 193.039 178.729C195.851 176.12 197.617 172.569 198.005 168.744C197.914 167.98 197.494 167.181 196.448 167.261Z" fill="#525B61"/>
<path d="M156.239 176.979V192.875C151 192.875 145.248 190.3 141.679 187.231C137.599 183.739 134.996 181.16 134.996 181.16C141.375 178.352 149.275 177.064 156.239 176.979Z" fill="#525B61"/>
<path d="M155.215 176.778V193.176C149.976 193.176 145.248 190.301 141.679 187.231C137.599 183.739 134.997 181.16 134.997 181.16C141.375 178.352 148.251 176.862 155.215 176.778Z" fill="#525B61"/>
<path d="M175.536 181.148C175.536 181.148 172.934 183.727 168.865 187.219C165.296 190.289 160.557 193.165 155.227 193.165V176.778C162.221 176.839 169.131 178.326 175.536 181.148Z" fill="#525B61"/>
<g style="mix-blend-mode:multiply" opacity="0.2">
<path d="M175.536 181.148C175.536 181.148 172.934 183.727 168.865 187.219C165.296 190.289 160.557 193.165 155.227 193.165V176.778C162.221 176.839 169.131 178.326 175.536 181.148Z" fill="#525B61"/>
</g>
<g opacity="0.33">
<g style="mix-blend-mode:multiply" opacity="0.33">
<path d="M196.448 168.516C196.099 168.575 195.786 168.767 195.575 169.052C195.363 169.336 195.269 169.692 195.312 170.045C195.312 170.045 194.357 176.515 190.868 178.798C182.674 184.195 172.502 179.836 156.306 176.378C155.966 176.263 155.606 176.22 155.249 176.253C154.896 176.226 154.541 176.269 154.204 176.378C138.019 179.802 127.836 184.195 119.63 178.798C116.164 176.515 115.175 170.102 115.187 170.045C115.233 169.694 115.143 169.339 114.936 169.052C114.723 168.768 114.41 168.577 114.061 168.516C113.061 168.379 112.595 169.235 112.573 169.999C112.957 173.839 114.737 177.402 117.573 180.007C120.756 182.849 126.438 183.853 132.746 183.202C139.054 182.552 146.577 180.555 155.317 178.638C164.069 180.498 171.661 182.518 177.9 183.202C184.14 183.887 189.902 182.849 193.073 180.007C195.884 177.402 197.651 173.855 198.039 170.034C197.914 169.235 197.494 168.379 196.448 168.516Z" fill="#535C62"/>
</g>
</g>
<path d="M155.408 174.941V177.405C146.657 179.254 138.872 181.308 132.678 181.97C126.484 182.632 120.687 181.594 117.505 178.763C114.689 176.162 112.922 172.613 112.538 168.79C112.517 168.589 112.54 168.385 112.607 168.194C112.675 168.004 112.784 167.83 112.927 167.688C113.07 167.545 113.243 167.437 113.434 167.371C113.624 167.305 113.827 167.283 114.027 167.306C114.379 167.36 114.695 167.55 114.908 167.837C115.121 168.123 115.213 168.482 115.164 168.835C115.164 168.961 116.164 175.317 119.608 177.588C127.813 182.974 137.94 178.501 154.124 175.032C154.546 174.942 154.978 174.911 155.408 174.941Z" fill="#525B61"/>
<path d="M197.937 168.744C197.549 172.566 195.782 176.113 192.971 178.718C189.8 181.548 184.106 182.575 177.798 181.925C171.49 181.274 164.16 179.3 155.408 177.36V174.936C155.719 174.936 155.964 174.967 156.272 175.032C172.456 178.455 182.64 182.849 190.834 177.451C194.301 175.169 195.278 168.824 195.278 168.699C195.231 168.346 195.325 167.989 195.539 167.706C195.751 167.42 196.065 167.228 196.414 167.169C196.623 167.153 196.832 167.183 197.027 167.257C197.222 167.331 197.399 167.447 197.544 167.598C197.69 167.748 197.8 167.929 197.868 168.127C197.936 168.325 197.96 168.536 197.937 168.744Z" fill="#525B61"/>
<g style="mix-blend-mode:multiply" opacity="0.2">
<path d="M197.937 168.744C197.549 172.566 195.782 176.113 192.971 178.718C189.8 181.548 184.106 182.575 177.798 181.925C171.49 181.274 164.16 179.3 155.408 177.36V174.936C155.719 174.936 155.964 174.967 156.272 175.032C172.456 178.455 182.64 182.849 190.834 177.451C194.301 175.169 195.278 168.824 195.278 168.699C195.231 168.346 195.325 167.989 195.539 167.706C195.751 167.42 196.065 167.228 196.414 167.169C196.623 167.153 196.832 167.183 197.027 167.257C197.222 167.331 197.399 167.447 197.544 167.598C197.69 167.748 197.8 167.929 197.868 168.127C197.936 168.325 197.96 168.536 197.937 168.744Z" fill="#525B61"/>
</g>
<g opacity="0.33">
<path opacity="0.33" d="M161.898 196.394C160.251 197.012 158.525 197.396 156.772 197.535L155.249 197.627L153.738 197.535C151.985 197.396 150.259 197.012 148.612 196.394C146.896 195.755 144.839 196.862 145.202 198.791C145.566 200.719 148.237 203.104 150.999 204.166C153.701 205.215 156.696 205.215 159.398 204.166C162.159 203.104 164.785 200.742 165.205 198.791C165.626 196.839 163.58 195.755 161.898 196.394Z" fill="#535C62"/>
</g>
<path d="M166.448 187.276C162.697 186.945 159.628 186.534 157.037 187.196C156.085 187.433 155.108 187.552 154.128 187.55V193.119C159.39 193.119 163.97 190.335 167.539 187.367C167.107 187.299 166.891 187.322 166.448 187.276Z" fill="#CA3850"/>
<path d="M167.58 187.276C163.83 186.945 160.761 186.534 158.17 187.196C157.218 187.433 156.241 187.552 155.26 187.55V193.176C160.523 193.176 165.103 190.335 168.672 187.367C168.24 187.299 168.024 187.322 167.58 187.276Z" fill="#CA3850"/>
<path d="M155.215 187.55V193.176C149.976 193.176 145.509 190.517 141.838 187.367C142.247 187.299 142.509 187.367 142.975 187.276C146.725 186.945 149.794 186.534 152.397 187.196C153.319 187.427 154.265 187.545 155.215 187.55Z" fill="#CA3850"/>
<g opacity="0.5">
<path opacity="0.5" d="M106.515 130.299C109.363 130.301 112.149 129.455 114.518 127.867C116.888 126.28 118.735 124.023 119.827 121.381C120.918 118.739 121.205 115.832 120.651 113.026C120.097 110.221 118.726 107.644 116.713 105.62C114.699 103.597 112.133 102.219 109.34 101.66C106.546 101.101 103.65 101.387 101.018 102.481C98.3865 103.575 96.1368 105.428 94.5541 107.806C92.9713 110.184 92.1265 112.98 92.1265 115.84C92.125 117.738 92.496 119.618 93.2185 121.372C93.9409 123.126 95.0005 124.72 96.3367 126.063C97.673 127.406 99.2597 128.471 101.006 129.198C102.753 129.924 104.624 130.299 106.515 130.299Z" fill="#525B61"/>
</g>
<path d="M106.515 129.249C109.156 129.251 111.739 128.466 113.937 126.994C116.135 125.522 117.848 123.429 118.861 120.979C119.873 118.529 120.139 115.833 119.625 113.231C119.111 110.629 117.84 108.239 115.973 106.363C114.106 104.486 111.726 103.208 109.136 102.69C106.545 102.172 103.859 102.436 101.418 103.451C98.9775 104.466 96.8911 106.184 95.4233 108.389C93.9554 110.595 93.1719 113.188 93.1719 115.84C93.1704 117.6 93.5144 119.344 94.1843 120.97C94.8541 122.597 95.8367 124.075 97.0759 125.321C98.315 126.566 99.7865 127.554 101.406 128.228C103.026 128.902 104.762 129.249 106.515 129.249Z" fill="#525B61"/>
<path d="M111.891 115.018C112.368 115.021 112.835 114.881 113.232 114.616C113.63 114.352 113.941 113.975 114.125 113.533C114.309 113.091 114.358 112.604 114.267 112.134C114.175 111.664 113.946 111.232 113.61 110.893C113.273 110.553 112.844 110.322 112.376 110.227C111.909 110.133 111.424 110.18 110.983 110.363C110.542 110.546 110.165 110.856 109.9 111.254C109.634 111.652 109.493 112.12 109.493 112.599C109.493 113.239 109.745 113.852 110.194 114.306C110.644 114.759 111.254 115.015 111.891 115.018Z" fill="#E6F4FD"/>
<path d="M108.004 109.255C108.303 109.258 108.596 109.171 108.847 109.005C109.097 108.84 109.292 108.604 109.408 108.326C109.524 108.049 109.556 107.744 109.499 107.449C109.442 107.153 109.299 106.882 109.088 106.669C108.877 106.455 108.608 106.309 108.314 106.25C108.021 106.19 107.716 106.22 107.439 106.334C107.162 106.449 106.926 106.643 106.759 106.893C106.592 107.143 106.503 107.437 106.503 107.738C106.506 108.137 106.665 108.52 106.945 108.804C107.226 109.087 107.606 109.249 108.004 109.255Z" fill="#E6F4FD"/>
<path d="M119.744 94.4207C119.744 94.4207 113.3 88.6464 105.697 87.6764C98.0933 86.7064 92.0583 87.1971 89.6489 89.0002C87.2395 90.8032 87.2167 91.9672 88.0237 92.4236C88.8306 92.8801 90.7854 92.2182 91.6378 91.8987C92.297 91.6476 93.479 90.5635 102.139 91.0086C113.618 91.5906 118.051 96.7144 119.062 95.9612C120.074 95.2081 119.744 94.4207 119.744 94.4207Z" fill="#525B61"/>
<path opacity="0.5" d="M218.304 115.84C218.302 112.982 217.455 110.188 215.871 107.813C214.287 105.438 212.037 103.588 209.406 102.498C206.774 101.407 203.88 101.125 201.089 101.686C198.297 102.248 195.735 103.628 193.725 105.652C191.715 107.676 190.349 110.254 189.798 113.058C189.248 115.863 189.538 118.768 190.633 121.407C191.728 124.045 193.577 126.298 195.948 127.881C198.318 129.464 201.103 130.305 203.949 130.299C207.762 130.29 211.414 128.762 214.106 126.051C216.797 123.34 218.307 119.668 218.304 115.84Z" fill="#525B61"/>
<path d="M217.258 115.84C217.256 113.189 216.471 110.599 215.002 108.396C213.533 106.194 211.446 104.479 209.006 103.467C206.566 102.456 203.881 102.194 201.293 102.715C198.705 103.236 196.328 104.517 194.465 106.394C192.601 108.272 191.334 110.662 190.824 113.263C190.314 115.864 190.584 118.558 191.599 121.005C192.615 123.451 194.33 125.541 196.529 127.008C198.727 128.476 201.31 129.255 203.95 129.248C207.485 129.239 210.871 127.822 213.367 125.308C215.862 122.794 217.261 119.389 217.258 115.84Z" fill="#525B61"/>
<g style="mix-blend-mode:multiply" opacity="0.2">
<path d="M217.258 115.84C217.256 113.189 216.471 110.599 215.002 108.396C213.533 106.194 211.446 104.479 209.006 103.467C206.565 102.456 203.881 102.194 201.293 102.715C198.704 103.236 196.328 104.517 194.464 106.394C192.601 108.272 191.334 110.662 190.824 113.263C190.314 115.864 190.584 118.558 191.599 121.005C192.615 123.451 194.33 125.541 196.528 127.008C198.727 128.476 201.31 129.255 203.949 129.248C207.484 129.239 210.871 127.822 213.366 125.308C215.862 122.794 217.261 119.389 217.258 115.84Z" fill="#525B61"/>
</g>
<path d="M200.915 112.599C200.913 112.123 200.77 111.659 200.505 111.264C200.24 110.87 199.865 110.563 199.427 110.383C198.988 110.202 198.506 110.156 198.042 110.25C197.578 110.344 197.151 110.575 196.817 110.912C196.483 111.249 196.256 111.678 196.164 112.145C196.072 112.612 196.12 113.095 196.302 113.535C196.484 113.974 196.792 114.349 197.186 114.613C197.58 114.877 198.043 115.018 198.517 115.018C198.833 115.018 199.145 114.956 199.437 114.834C199.729 114.712 199.994 114.534 200.217 114.309C200.439 114.084 200.616 113.817 200.736 113.524C200.855 113.231 200.916 112.916 200.915 112.599Z" fill="#E6F4FD"/>
<path d="M203.949 107.704C203.949 107.403 203.861 107.11 203.695 106.86C203.529 106.611 203.292 106.416 203.016 106.301C202.74 106.186 202.436 106.156 202.143 106.215C201.85 106.274 201.58 106.418 201.369 106.63C201.158 106.843 201.014 107.113 200.955 107.407C200.897 107.702 200.927 108.007 201.041 108.284C201.156 108.562 201.349 108.799 201.598 108.965C201.847 109.132 202.139 109.221 202.438 109.221C202.838 109.218 203.221 109.057 203.503 108.773C203.786 108.489 203.946 108.105 203.949 107.704Z" fill="#E6F4FD"/>
<path d="M191.368 95.9498C192.425 96.6916 196.812 91.5792 208.302 90.9972C216.951 90.5522 218.133 91.6363 218.792 91.8873C219.656 92.2068 221.6 92.9144 222.407 92.4123C223.213 91.9101 223.236 90.7462 220.781 88.9888C218.326 87.2314 212.337 86.7064 204.733 87.665C197.13 88.6236 190.686 94.4207 190.686 94.4207C190.686 94.4207 190.311 95.2081 191.368 95.9498Z" fill="#525B61"/>
<path d="M201.142 112.382C201.144 111.903 201.005 111.435 200.742 111.035C200.478 110.636 200.103 110.324 199.663 110.139C199.223 109.954 198.738 109.905 198.27 109.997C197.801 110.089 197.371 110.318 197.033 110.656C196.695 110.994 196.464 111.425 196.37 111.895C196.276 112.364 196.324 112.851 196.506 113.294C196.688 113.737 196.996 114.115 197.393 114.382C197.789 114.648 198.256 114.79 198.733 114.79C199.37 114.79 199.981 114.537 200.432 114.086C200.884 113.634 201.139 113.022 201.142 112.382Z" fill="#E6F4FD"/>
<path d="M204.154 107.475C204.154 107.175 204.065 106.882 203.899 106.632C203.733 106.382 203.497 106.188 203.221 106.073C202.945 105.958 202.641 105.928 202.348 105.987C202.054 106.045 201.785 106.19 201.574 106.402C201.362 106.614 201.218 106.885 201.16 107.179C201.102 107.474 201.132 107.779 201.246 108.056C201.36 108.333 201.554 108.57 201.803 108.737C202.051 108.904 202.343 108.993 202.642 108.993C202.841 108.995 203.039 108.956 203.223 108.881C203.407 108.805 203.574 108.693 203.715 108.552C203.855 108.411 203.967 108.243 204.042 108.058C204.117 107.873 204.156 107.675 204.154 107.475Z" fill="#E6F4FD"/>
<path d="M191.584 95.7214C192.653 96.4631 197.04 91.3622 208.518 90.7688C217.179 90.3237 218.361 91.4192 219.009 91.6703C219.872 91.9898 221.827 92.6973 222.623 92.1952C223.418 91.6931 223.452 90.5177 221.009 88.7147C218.565 86.9117 212.565 86.4324 204.961 87.4024C197.358 88.3723 190.902 94.1352 190.902 94.1352C190.902 94.1352 190.527 94.9796 191.584 95.7214Z" fill="#525B61"/>
<path d="M142.725 193.861C144.653 195.026 146.724 195.935 148.885 196.565C153.193 197.801 157.766 197.749 162.046 196.417C164.2 195.756 166.256 194.808 168.16 193.598C166.434 195.121 164.442 196.309 162.284 197.102C157.9 198.776 153.065 198.828 148.646 197.25C146.483 196.492 144.476 195.343 142.725 193.861Z" fill="#535C62"/>
<path d="M258.712 131.381C258.454 140.797 257.323 150.164 256.254 159.507C255.529 165.949 255.099 171.996 250.11 176.624C244.827 181.499 237.43 184.807 231.077 188.003C223.341 191.883 215.343 195.211 207.141 197.963C205.31 198.567 204.536 195.679 206.355 195.062C219.982 190.385 235.488 184.733 246.842 175.501C253.539 170.046 252.851 160.692 253.6 152.756C254.288 145.499 255.062 138.243 256.34 131.06C256.586 129.702 258.798 130.036 258.712 131.381Z" fill="#525B61"/>
<g style="mix-blend-mode:multiply" opacity="0.4">
<path d="M258.712 131.381C258.454 140.797 257.323 150.164 256.254 159.507C255.529 165.949 255.099 171.996 250.11 176.624C244.827 181.499 237.43 184.807 231.077 188.003C223.341 191.883 215.343 195.211 207.141 197.963C205.31 198.567 204.536 195.679 206.355 195.062C219.982 190.385 235.488 184.733 246.842 175.501C253.539 170.046 252.851 160.692 253.6 152.756C254.288 145.499 255.062 138.243 256.34 131.06C256.586 129.702 258.798 130.036 258.712 131.381Z" fill="#525B61"/>
</g>
<path d="M264.115 107.574C263.564 107.574 263.123 108.432 263.123 109.497V121.632C263.123 122.697 263.564 123.554 264.115 123.554H265.217C265.866 123.554 266.441 123.04 267.078 122.22C268.511 120.302 269.273 117.965 269.245 115.571C269.277 113.176 268.515 110.837 267.078 108.921C266.441 108.101 265.853 107.587 265.217 107.587L264.115 107.574Z" fill="#545555"/>
<path d="M256.198 99.2156C254.608 99.2156 253.326 100.971 253.326 103.145V127.972C253.326 130.157 254.558 131.913 256.198 131.913H259.514C263.274 131.913 266.307 127.763 266.307 122.594V108.535C266.307 103.366 263.274 99.2156 259.514 99.2156H256.198Z" fill="#F18854"/>
<path d="M205.054 187.499C201.53 187.253 198.154 188.853 194.987 190.441C192.961 191.45 190.825 192.595 189.769 194.589C189.171 195.892 189.003 197.351 189.288 198.756C189.572 200.161 190.296 201.439 191.352 202.405C192.433 203.338 193.694 204.038 195.057 204.461C196.419 204.885 197.854 205.023 199.271 204.867C202.114 204.54 204.874 203.707 207.424 202.405C209.378 201.668 211.081 200.387 212.335 198.713C215.281 194.035 209.707 187.856 205.054 187.499Z" fill="#525B61"/>
<g style="mix-blend-mode:multiply" opacity="0.4">
<path d="M205.054 187.499C201.53 187.253 198.154 188.853 194.987 190.441C192.961 191.45 190.825 192.595 189.769 194.589C189.171 195.892 189.003 197.351 189.288 198.756C189.572 200.161 190.296 201.439 191.352 202.405C192.433 203.338 193.694 204.038 195.057 204.461C196.419 204.885 197.854 205.023 199.271 204.867C202.114 204.54 204.874 203.706 207.424 202.405C209.378 201.667 211.081 200.386 212.335 198.712C215.281 194.035 209.707 187.856 205.054 187.499Z" fill="#525B61"/>
</g>
</g>
<defs>
<clipPath id="clip0">
<rect width="306" height="358" fill="white"/>
</clipPath>
</defs>
</svg>
