<svg width="368" height="451" viewBox="0 0 368 451" fill="none" xmlns="http://www.w3.org/2000/svg">
<ellipse cx="186.5" cy="420.5" rx="127.5" ry="13.5" fill="#C4C4C4" fill-opacity="0.3"/>
<path d="M135.982 299.199L137.995 299.421C138.048 299.421 138.118 299.362 138.176 299.368C139.279 299.421 140.16 297.691 140.399 296.732C140.667 295.639 139.991 293.851 139.442 293.576C138.894 293.301 136.764 292.407 136.227 292.167C136.214 292.162 136.199 292.159 136.184 292.16C136.17 292.162 136.156 292.167 136.144 292.175C136.131 292.183 136.121 292.194 136.115 292.207C136.108 292.22 136.104 292.235 136.105 292.249L135.9 299.105C135.9 299.128 135.908 299.15 135.923 299.168C135.939 299.185 135.959 299.196 135.982 299.199Z" fill="#E7E8E9"/>
<path d="M208.45 411.326C208.601 411.878 208.796 412.417 209.033 412.939C210.124 415.4 212.102 417.293 214.786 417.708C218.036 418.211 254.351 417.644 255.507 417.778C256.149 417.702 256.749 417.415 257.21 416.96C259.293 415.259 261.668 411.302 257.531 408.532C256.983 408.164 252.123 403.64 239.8 402.599C235.429 402.231 230.091 401.594 227.547 399.759C226.905 399.31 226.305 398.803 225.755 398.245C225.513 398.014 225.315 397.741 225.172 397.438C225.142 397.372 225.128 397.3 225.131 397.228L224.192 396.281L218.065 395.737L210.731 397.59C210.82 398.246 210.82 398.91 210.731 399.566C210.693 399.882 210.638 400.196 210.568 400.507L210.48 400.84C209.99 402.664 207.574 408.111 208.45 411.326Z" fill="#515A60"/>
<g style="mix-blend-mode:multiply" opacity="0.2">
<path d="M208.45 411.326C208.601 411.878 208.796 412.417 209.033 412.939C210.124 415.399 212.102 417.293 214.786 417.708C218.036 418.211 254.351 417.644 255.507 417.778C256.149 417.702 256.749 417.415 257.21 416.96C259.293 415.259 261.668 411.302 257.531 408.532C256.983 408.164 252.123 403.64 239.8 402.599C235.429 402.231 230.091 401.594 227.547 399.759C226.905 399.31 226.305 398.803 225.755 398.245C225.513 398.014 225.315 397.741 225.172 397.438C225.142 397.372 225.128 397.3 225.131 397.228L224.192 396.281L218.065 395.737L210.731 397.59C210.82 398.246 210.82 398.91 210.731 399.566C210.693 399.882 210.638 400.196 210.568 400.507L210.48 400.84C209.99 402.664 207.574 408.111 208.45 411.326Z" fill="#515A60"/>
</g>
<g style="mix-blend-mode:multiply" opacity="0.4">
<path d="M209.027 412.939C210.118 415.4 212.096 417.293 214.78 417.708C218.03 418.211 254.346 417.644 255.501 417.778C256.144 417.702 256.743 417.415 257.205 416.96H215.743C215.743 416.96 213.03 416.896 210.574 414.143C210.145 413.64 209.619 413.231 209.027 412.939Z" fill="#515A60"/>
</g>
<g style="mix-blend-mode:multiply" opacity="0.4">
<path d="M210.574 400.513C211.338 401.162 212.838 402.372 212.838 402.372L213.217 401.957C214.174 400.94 216.245 400.349 216.245 400.349C216.245 400.349 217.05 401.232 217.558 401.699C217.804 401.932 218.091 402.118 218.404 402.249C218.404 402.249 218.439 402.249 218.497 401.553C218.608 400.384 220.09 399.8 220.09 399.8C220.09 399.8 220.592 400.174 221.403 400.864C221.871 401.278 222.411 401.603 222.996 401.822C222.957 401.63 222.946 401.433 222.961 401.238C222.961 400.77 222.856 400.951 223.544 400.367C223.859 400.086 224.921 399.028 225.756 398.216L226.421 397.591L226.602 397.433C225.82 397.287 226.637 397.62 225.785 397.491L225.201 397.409C224.752 397.345 224.32 397.292 223.9 397.251C217.657 396.667 213.042 397.392 210.76 399.525C210.716 399.858 210.654 400.187 210.574 400.513Z" fill="#515A60"/>
</g>
<path d="M170.028 411.326C169.877 411.879 169.682 412.418 169.445 412.939C168.354 415.4 166.376 417.294 163.692 417.709C160.442 418.211 124.126 417.645 122.971 417.779C122.328 417.703 121.729 417.415 121.267 416.961C119.184 415.26 116.81 411.303 120.946 408.532C121.495 408.164 126.355 403.64 138.678 402.6C143.048 402.232 148.387 401.595 150.931 399.759C151.573 399.311 152.173 398.804 152.722 398.246C152.965 398.015 153.163 397.742 153.306 397.439C153.336 397.373 153.35 397.301 153.347 397.229L154.286 396.282L160.413 395.738L167.747 397.591C167.657 398.246 167.657 398.911 167.747 399.567C167.785 399.883 167.839 400.197 167.91 400.508L167.998 400.841C168.488 402.664 170.903 408.112 170.028 411.326Z" fill="#515A60"/>
<g style="mix-blend-mode:multiply" opacity="0.2">
<path d="M169.451 412.939C168.36 415.4 166.382 417.293 163.698 417.708C160.448 418.211 124.132 417.644 122.977 417.778C122.334 417.702 121.735 417.415 121.273 416.96H162.735C162.735 416.96 165.448 416.896 167.905 414.143C168.333 413.64 168.859 413.231 169.451 412.939Z" fill="#515A60"/>
</g>
<g style="mix-blend-mode:multiply" opacity="0.2">
<path d="M167.904 400.513C167.14 401.162 165.641 402.372 165.641 402.372L165.261 401.957C164.304 400.94 162.233 400.349 162.233 400.349C162.233 400.349 161.428 401.232 160.92 401.699C160.674 401.932 160.387 402.118 160.074 402.249C160.074 402.249 160.039 402.249 159.981 401.553C159.87 400.384 158.388 399.8 158.388 399.8C158.388 399.8 157.886 400.174 157.075 400.864C156.607 401.278 156.067 401.603 155.482 401.822C155.521 401.63 155.533 401.433 155.517 401.238C155.517 400.77 155.622 400.951 154.934 400.367C154.619 400.086 153.557 399.028 152.722 398.216L152.057 397.591L151.876 397.433C152.658 397.287 151.841 397.62 152.693 397.491L153.277 397.409C153.726 397.345 154.158 397.292 154.578 397.251C160.821 396.667 165.436 397.392 167.718 399.525C167.762 399.858 167.824 400.187 167.904 400.513Z" fill="#515A60"/>
</g>
<path d="M62.7 404.429C62.9509 411.781 70.2034 416.288 79.8307 419.713C85.7208 421.754 92.0599 422.122 98.146 420.777L98.6069 420.455C98.7836 420.183 98.895 419.874 98.9324 419.551C98.9699 419.229 98.9324 418.902 98.8228 418.596C98.4435 417.533 90.1232 414.365 84.4577 410.092C83.7869 409.606 83.1861 409.03 82.6723 408.38C79.9533 404.814 83.6583 401.641 88.046 398.759C93.1339 395.422 115.469 391.664 126.392 388.905C137.314 386.146 142.811 384.515 142.811 384.515C142.811 384.515 143.342 381.33 143.791 378.46C144.112 376.38 144.375 374.462 144.375 374.042C144.375 373.042 137.209 347.658 136.043 348.576C135.871 348.712 135.661 348.893 135.412 349.119C132.728 351.745 129.894 354.212 126.923 356.507C121.969 360.265 99.202 370.874 81.9429 380.307C64.6838 389.741 62.4549 397.082 62.7 404.429Z" fill="#4D9BE2"/>
<g style="mix-blend-mode:multiply" opacity="0.16">
<path d="M82.6725 408.374C79.9535 404.809 83.6586 401.635 88.0463 398.754C93.1342 395.416 115.47 391.658 126.392 388.899C137.315 386.14 142.811 384.51 142.811 384.51C144.532 388.137 146.589 391.595 148.955 394.837C151.832 398.426 153.413 399.344 154.416 400.057C155.42 400.77 155.21 401.559 155.21 401.559C155.772 401.369 156.284 401.056 156.709 400.641L156.82 400.548C155.758 399.561 154.802 398.466 153.967 397.281C151.794 394.397 149.808 391.377 148.022 388.239C146.907 386.1 144.48 381.856 142.834 378.782C142.321 377.817 141.755 376.111 141.393 375.585C139.859 373.364 139.742 374.27 138.989 374.492C138.875 374.535 138.766 374.59 138.663 374.655C136.69 375.731 127.081 381.932 116.286 385.614C104.617 389.595 87.0719 395.188 83.9036 397.304C82.8284 398 81.9147 398.919 81.2242 399.999C80.5337 401.079 80.0825 402.294 79.901 403.564C79.831 404.604 80.4612 406.849 82.6725 408.374Z" fill="#4D9BE2"/>
</g>
<path d="M207.801 335.945C207.422 336.477 207.066 336.717 206.874 336.331C206.757 336.097 207.218 336.004 207.801 335.945Z" fill="#DBF0FD"/>
<g style="mix-blend-mode:multiply" opacity="0.5">
<path d="M204.821 124.796C204.991 124.796 205.13 124.657 205.13 124.486C205.13 124.315 204.991 124.177 204.821 124.177C204.65 124.177 204.511 124.315 204.511 124.486C204.511 124.657 204.65 124.796 204.821 124.796Z" fill="#515A60"/>
</g>
<path d="M269.673 242.791C269.673 242.791 269.136 242.896 268.203 243.06L267.666 243.153C263.704 243.814 254.695 245.07 248.213 244.123C243.399 243.396 238.626 242.42 233.912 241.201C233.06 240.979 232.582 240.845 232.582 240.845C232.582 240.845 231.882 239.874 230.866 238.22C228.328 234.076 223.865 225.619 223.666 217.384C223.415 205.858 226.747 201.936 226.747 201.936L227.634 202.655C229.805 204.411 231.848 206.319 233.749 208.365C236.503 211.451 247.84 219.692 252.42 222.17C256.247 224.24 264.428 226.501 267.007 227.191L267.538 227.331L267.812 227.402L268.74 235.169L269.673 242.791Z" fill="#4D9BE2"/>
<g style="mix-blend-mode:multiply" opacity="0.4">
<path d="M269.673 242.791C269.673 242.791 269.136 242.896 268.203 243.06L267.666 243.153C263.704 243.814 254.695 245.07 248.213 244.123C243.399 243.396 238.626 242.42 233.912 241.201C233.06 240.979 232.582 240.845 232.582 240.845C232.582 240.845 231.882 239.874 230.866 238.22C228.328 234.076 223.865 225.619 223.666 217.384C223.415 205.858 226.747 201.936 226.747 201.936L227.634 202.655C229.805 204.411 231.848 206.319 233.749 208.365C236.503 211.451 247.84 219.692 252.42 222.17C256.247 224.24 264.428 226.501 267.007 227.191L267.538 227.331L267.812 227.402L268.74 235.169L269.673 242.791Z" fill="#4D9BE2"/>
</g>
<path d="M243.043 358.974C242.702 364.319 241.612 369.59 239.805 374.632C238.638 378.009 237.258 381.308 235.674 384.51C233.953 388.137 231.896 391.595 229.53 394.837C226.654 398.426 225.072 399.344 224.069 400.057C223.065 400.77 223.275 401.559 223.275 401.559C222.713 401.369 222.201 401.056 221.776 400.641L221.665 400.548C220.726 399.765 220.025 399.262 220.025 399.262L219.401 399.969C218.984 400.604 218.754 401.343 218.736 402.102L217.983 401.471C217.402 400.938 216.872 400.351 216.402 399.718C215.905 399.969 215.431 400.262 214.984 400.595C214.315 401.038 213.723 401.589 213.234 402.225C213.047 402.085 209.955 399.776 208.659 397.345C207.364 394.913 206.285 392.798 206.285 392.798C206.285 392.798 224.582 385.264 232.932 371.113C242.267 355.333 243.067 349.12 243.067 349.12C242.653 352.317 243.201 355.666 243.043 358.974Z" fill="#4D9BE2"/>
<g style="mix-blend-mode:multiply" opacity="0.4">
<path d="M243.043 358.974C242.702 364.319 241.612 369.59 239.805 374.632C238.638 378.009 237.258 381.308 235.674 384.51C233.953 388.137 231.896 391.595 229.53 394.837C226.654 398.426 225.072 399.344 224.069 400.057C223.065 400.77 223.275 401.559 223.275 401.559C222.713 401.369 222.201 401.056 221.776 400.641L221.665 400.548C220.726 399.765 220.025 399.262 220.025 399.262L219.401 399.969C218.984 400.604 218.754 401.343 218.736 402.102L217.983 401.471C217.402 400.938 216.872 400.351 216.402 399.718C215.905 399.969 215.431 400.262 214.984 400.595C214.315 401.038 213.723 401.589 213.234 402.225C213.047 402.085 209.955 399.776 208.659 397.345C207.364 394.913 206.285 392.798 206.285 392.798C206.285 392.798 224.582 385.264 232.932 371.113C242.267 355.333 243.067 349.12 243.067 349.12C242.653 352.317 243.201 355.666 243.043 358.974Z" fill="#4D9BE2"/>
</g>
<g style="mix-blend-mode:multiply" opacity="0.2">
<path d="M244.029 322.368C244.029 331.515 244.969 334.408 243.067 349.113C243.067 349.113 242.256 357.057 232.932 372.861C224.582 387.011 206.284 394.545 206.284 394.545L201.284 395.422C199.65 395.714 197.754 395.93 195.957 396.094C193.244 396.345 190.706 396.474 189.574 396.521H188.909C184.986 396.374 181.074 396.007 177.192 395.422C172.227 394.551 171.41 394.311 171.41 394.311L137.452 331.474C137.516 331.106 137.575 330.755 137.639 330.422L137.884 329.107C137.925 328.92 137.96 328.739 137.995 328.569C138.03 328.4 138.053 328.294 138.076 328.16C138.08 328.151 138.08 328.14 138.076 328.131C138.106 328.014 138.129 327.891 138.152 327.78C138.287 327.16 138.409 326.64 138.508 326.243C138.508 326.167 138.555 326.097 138.572 326.027C138.59 325.956 138.642 325.764 138.677 325.658C138.777 325.349 138.864 325.074 138.946 324.747C139.028 324.419 139.103 324.162 139.162 323.852C139.272 323.344 139.35 322.828 139.395 322.309C139.395 322.134 139.424 321.953 139.43 321.772C139.436 321.59 139.43 321.281 139.43 321.029L219.43 321.614L243.936 321.935C243.959 322.081 243.99 322.225 244.029 322.368Z" fill="#515A60"/>
</g>
<path d="M244.969 320.38C244.969 329.527 244.969 334.408 243.067 349.113C243.067 349.113 242.256 355.303 232.932 371.107C224.583 385.258 206.285 392.792 206.285 392.792L201.285 393.668C197.405 394.253 193.495 394.62 189.574 394.767H189.242V155.978C189.242 155.978 193.151 156.627 204.184 151.846C216.723 146.41 227.85 138.239 231.456 127.222C229.921 137.62 227.774 150.104 226.759 157.615C226.549 159.128 226.391 160.438 226.292 161.484C225.458 170.339 227.354 194.846 227.634 202.701C227.634 203.07 227.634 203.403 227.663 203.695C227.663 203.806 227.663 203.929 227.663 204.057C227.798 206.98 228.865 213.754 230.091 220.762C230.093 220.801 230.093 220.84 230.091 220.879C230.091 220.908 230.091 220.949 230.091 220.995C231.619 229.733 233.376 238.799 233.854 241.248L233.982 241.891C233.982 241.891 234.607 244.772 235.61 249.658C236.614 254.545 239.111 264.311 241.859 280.969C244.607 297.627 244.969 319.469 244.969 320.38Z" fill="#4D9BE2"/>
<path d="M219.442 319.854C217.986 329.523 215.997 339.104 213.485 348.552C211.196 357.219 208.406 365.746 205.13 374.088C202.471 381.009 199.408 387.768 195.957 394.329C193.244 394.58 190.706 394.709 189.574 394.755H188.909C184.986 394.608 181.075 394.242 177.193 393.657L172.192 392.78C172.192 392.78 171.154 394.826 169.818 397.327C168.482 399.829 165.232 402.213 165.232 402.213C164.742 401.577 164.151 401.026 163.481 400.583C163.036 400.252 162.563 399.959 162.069 399.706C161.598 400.34 161.066 400.928 160.482 401.459L159.735 402.091C159.714 401.331 159.481 400.592 159.064 399.957L158.44 399.25C158.44 399.25 157.693 399.794 156.69 400.629C156.336 400.945 155.944 401.214 155.523 401.43C155.425 401.482 155.321 401.521 155.213 401.547C155.213 401.547 155.423 400.752 154.42 400.045C153.416 399.338 151.835 398.414 148.964 394.826C146.094 391.237 136.21 374.866 135.457 358.962C135.271 354.694 135.314 350.419 135.585 346.156L135.638 345.314C135.743 343.689 135.871 342.113 136.023 340.586C136.026 340.543 136.026 340.5 136.023 340.457C136.111 339.522 136.21 338.605 136.315 337.722C136.356 337.377 136.396 337.032 136.437 336.699C136.478 336.366 136.536 335.928 136.583 335.53L136.618 335.261C136.741 334.338 136.863 333.449 136.992 332.614C137.056 332.193 137.12 331.784 137.178 331.392C137.213 331.193 137.242 330.995 137.277 330.808C137.342 330.422 137.4 330.054 137.464 329.691C137.528 329.329 137.587 328.972 137.651 328.639C137.733 328.172 137.814 327.733 137.896 327.324C137.937 327.137 137.972 326.956 138.007 326.786C138.042 326.617 138.065 326.512 138.089 326.377C138.092 326.368 138.092 326.357 138.089 326.348C138.118 326.231 138.141 326.108 138.164 325.997C138.299 325.378 138.421 324.858 138.52 324.46C138.52 324.384 138.567 324.314 138.584 324.244C138.602 324.174 138.654 323.981 138.689 323.876C138.789 323.566 138.876 323.291 138.958 322.964C139.04 322.637 139.115 322.379 139.174 322.07C139.281 321.56 139.359 321.045 139.407 320.527C139.407 320.345 139.436 320.17 139.442 319.989C139.448 319.808 139.442 319.498 139.442 319.247C139.442 318.995 139.442 318.709 139.407 318.434C139.347 317.694 139.232 316.959 139.063 316.236C138.439 313.478 133.812 297.574 136.56 280.916C139.308 264.259 141.811 254.492 142.815 249.606C143.818 244.72 144.437 241.838 144.437 241.838C144.437 241.838 150.692 210.153 150.814 203.642C150.937 197.131 153.066 170.701 152.191 161.431C152.092 160.385 151.934 159.093 151.73 157.562C150.709 150.063 148.55 137.567 147.016 127.169C150.61 138.204 161.748 146.387 174.299 151.828C185.332 156.609 189.242 155.961 189.242 155.961C189.242 155.961 192.252 156.463 200.456 153.342C202.947 170.14 205.322 188.037 208.368 199.376C213.619 218.915 219.629 249.477 221.677 274.025C222.698 286.288 222.068 302.396 219.442 319.854Z" fill="#4D9BE2"/>
<g style="mix-blend-mode:multiply" opacity="0.4">
<path d="M244.97 320.381C244.97 329.528 244.97 334.408 243.068 349.114C243.068 349.114 242.257 355.303 232.933 371.107C224.583 385.258 206.285 392.792 206.285 392.792L201.285 393.668C199.651 393.961 197.755 394.177 195.958 394.341C199.409 387.78 202.472 381.021 205.13 374.1C208.407 365.757 211.196 357.231 213.486 348.564C215.998 339.112 217.987 329.527 219.443 319.854C222.068 302.384 222.699 286.276 221.677 274.031C219.629 249.483 213.62 218.921 208.368 199.382C205.323 188.043 202.948 170.158 200.457 153.348C201.624 152.921 202.837 152.419 204.185 151.834C216.724 146.398 227.851 138.227 231.456 127.21C229.922 137.608 227.775 150.092 226.76 157.603C226.549 159.117 226.392 160.426 226.293 161.472C225.458 170.327 227.355 194.834 227.635 202.69C227.635 203.058 227.635 203.391 227.664 203.683C227.664 203.794 227.664 203.917 227.664 204.046C227.798 206.968 228.866 213.742 230.091 220.75C230.094 220.789 230.094 220.828 230.091 220.867C230.091 220.896 230.091 220.937 230.091 220.984C231.62 229.722 233.376 238.787 233.855 241.236L233.983 241.879C233.983 241.879 234.607 244.761 235.611 249.647C236.614 254.533 239.112 264.3 241.86 280.957C244.468 296.738 244.87 317.154 244.906 320.071C244.97 320.223 244.97 320.334 244.97 320.381Z" fill="#4D9BE2"/>
</g>
<path d="M222.724 272.996C220.676 248.447 214.666 217.885 209.415 198.346C206.369 187.007 203.994 169.122 201.503 152.312C198.699 153.446 195.783 154.276 192.803 154.79C192.687 154.79 192.576 154.826 192.471 154.837C192.366 154.849 192.126 154.884 191.969 154.896H191.887C191.706 154.896 191.543 154.931 191.397 154.937C191.028 154.974 190.657 154.974 190.288 154.937C189.999 154.964 189.708 154.964 189.419 154.937H189.051H188.701L188.363 154.902L188.089 154.866C187.816 154.831 187.513 154.785 187.179 154.726C185.418 154.4 183.682 153.949 181.986 153.376L181.052 153.066L180.008 152.692C178.619 152.19 177.09 151.576 175.34 150.828C167.235 147.321 159.72 142.645 154.452 136.8C155.333 141.371 163.204 145.456 164.155 149.659C164.861 153.601 165.238 157.595 165.281 161.6C164.902 174.873 165.928 181.805 164.283 194.705C162.533 208.428 163.577 225.536 156.727 252.194C147.975 286.275 150.151 307.807 154.901 318.825C159.65 329.842 162.737 336.271 170.159 342.367C175.095 346.424 183.328 351.45 191.566 351.45C198.049 351.45 207.565 350.93 214.526 347.505C221.971 319.614 224.293 291.763 222.724 272.996ZM207.921 335.284C207.804 335.05 208.265 334.956 208.849 334.898C208.469 335.43 208.114 335.669 207.921 335.284Z" fill="#DBF0FD"/>
<path d="M231.129 251.996C224.874 225.169 222.884 207.991 220.375 194.384C218.753 185.494 219.208 170.947 220.761 159.351C221.157 156.428 221.618 153.699 222.167 151.168C223.094 146.948 224.191 142.401 225.084 137.818C219.833 143.663 212.3 148.31 204.196 151.846C202.848 152.43 201.611 152.933 200.467 153.36C202.959 170.158 205.333 188.054 208.379 199.393C213.63 218.932 219.64 249.495 221.688 274.043C223.258 292.811 220.936 320.661 213.52 348.564C215.224 347.762 216.798 346.705 218.187 345.431C229.553 334.753 234.525 325.238 236.386 317.102C239.455 303.518 237.378 278.801 231.129 251.996Z" fill="#DBF0FD"/>
<g style="mix-blend-mode:multiply" opacity="0.5">
<path d="M231.129 251.996C224.874 225.169 222.884 207.991 220.375 194.384C218.753 185.494 219.208 170.947 220.761 159.351C221.157 156.428 221.618 153.699 222.167 151.168C223.094 146.948 224.191 142.401 225.084 137.818C219.833 143.663 212.3 148.31 204.196 151.846C202.848 152.43 201.611 152.933 200.467 153.36C202.959 170.158 205.333 188.054 208.379 199.393C213.63 218.932 219.64 249.495 221.688 274.043C223.258 292.811 220.936 320.661 213.52 348.564C215.224 347.762 216.798 346.705 218.187 345.431C229.553 334.753 234.525 325.238 236.386 317.102C239.455 303.518 237.378 278.801 231.129 251.996Z" fill="#DBF0FD"/>
</g>
<path d="M221.677 274.043C219.629 249.495 213.62 218.932 208.368 199.393C205.323 188.054 202.948 170.169 200.456 153.36C197.653 154.493 194.736 155.324 191.757 155.838C191.64 155.838 191.529 155.873 191.424 155.885C191.319 155.896 191.08 155.931 190.922 155.943H190.841C190.66 155.943 190.497 155.978 190.351 155.984C189.982 156.022 189.611 156.022 189.242 155.984C188.953 156.011 188.662 156.011 188.373 155.984H188.005H187.655L187.317 155.949L187.042 155.914C186.77 155.879 186.467 155.832 186.132 155.774C184.371 155.448 182.636 154.996 180.939 154.423L180.006 154.114L178.961 153.74C177.573 153.237 176.044 152.623 174.293 151.875C166.189 148.368 158.674 143.692 153.405 137.848C154.286 142.418 162.157 146.504 163.108 150.706C163.815 154.648 164.192 158.642 164.234 162.647C163.855 175.921 164.882 182.852 163.237 195.752C161.486 209.475 162.531 226.583 155.681 253.241C146.929 287.322 149.105 308.855 153.854 319.872C158.604 330.889 161.69 337.319 169.112 343.415C174.048 347.471 182.281 352.498 190.52 352.498C197.002 352.498 206.519 351.977 213.48 348.552C220.925 320.661 223.247 292.811 221.677 274.043ZM206.875 336.331C206.758 336.097 207.219 336.004 207.802 335.945C207.423 336.477 207.067 336.717 206.875 336.331Z" fill="#DBF0FD"/>
<g style="mix-blend-mode:multiply" opacity="0.2">
<path d="M269.65 213.026V221.441C269.65 221.441 268.283 224.831 268.105 224.831C267.928 224.831 265.832 225.388 265.104 225.423C264.904 225.443 264.706 225.48 264.512 225.536C263.206 225.934 261.931 226.431 260.7 227.023C258.735 227.918 255.752 227.456 254.414 225.797C253.964 225.234 253.638 224.712 253.686 223.225C253.733 221.738 256.503 219.924 258.025 219.592C260.517 219.047 262.583 216.902 264.572 214.917C265.098 214.389 265.625 213.874 266.146 213.4C267.656 212.049 269.65 213.026 269.65 213.026Z" fill="#515A60"/>
</g>
<path d="M269.65 213.026V221.441C269.65 221.441 268.283 224.831 268.105 224.831C267.928 224.831 265.832 225.388 265.104 225.423C264.904 225.443 264.706 225.48 264.512 225.536C263.206 225.934 261.931 226.431 260.7 227.023C258.735 227.918 255.752 227.456 254.414 225.797C253.964 225.234 253.638 224.712 253.686 223.225C253.733 221.738 256.503 219.924 258.025 219.592C260.517 219.047 262.583 216.902 264.572 214.917C265.098 214.389 265.625 213.874 266.146 213.4C267.656 212.049 269.65 213.026 269.65 213.026Z" fill="#515A60"/>
<g style="mix-blend-mode:multiply" opacity="0.2">
<path d="M269.651 213.026V221.441C269.651 221.441 268.284 224.831 268.106 224.831C267.929 224.831 265.833 225.388 265.105 225.423C264.905 225.443 264.707 225.48 264.513 225.536C264.294 223.912 264.294 222.508 264.253 221.898C264.194 220.884 264.312 217.844 264.395 216.007C264.413 215.638 264.472 215.272 264.572 214.917C265.099 214.389 265.626 213.874 266.147 213.4C267.656 212.049 269.651 213.026 269.651 213.026Z" fill="#515A60"/>
</g>
<path d="M329.123 221.945H218.957V299.444H329.123V221.945Z" fill="#FDC73C"/>
<path d="M274.037 250.668L329.123 299.444H218.957L274.037 250.668Z" fill="#F59F3C"/>
<path d="M274.037 270.727L329.123 221.945H218.957L274.037 270.727Z" fill="#FFE23D"/>
<path d="M287.942 233.008C287.308 235.586 284.591 237.868 282.531 235.918C281.77 235.159 281.192 234.237 280.838 233.222C279.767 230.401 279.814 226.928 279.755 225.874C279.696 224.819 279.808 221.88 279.879 220.102C279.907 219.208 280.171 218.337 280.643 217.577C280.832 217.27 281.059 216.988 281.318 216.736C281.614 216.411 281.983 216.161 282.395 216.005C282.806 215.85 283.248 215.794 283.685 215.841C286.106 216.179 288.243 218.549 288.285 222.869C288.326 227.189 288.533 230.425 287.942 233.008Z" fill="#515A60"/>
<g style="mix-blend-mode:multiply" opacity="0.2">
<path d="M287.942 233.008C287.308 235.586 284.591 237.868 282.531 235.918C281.77 235.159 281.192 234.237 280.838 233.222C279.767 230.401 279.814 226.928 279.755 225.874C279.696 224.819 279.808 221.88 279.879 220.102C279.907 219.208 280.171 218.337 280.643 217.577C280.832 217.27 281.059 216.988 281.318 216.736C281.614 216.411 281.983 216.161 282.395 216.005C282.806 215.85 283.248 215.794 283.685 215.841C286.106 216.179 288.243 218.549 288.285 222.869C288.326 227.189 288.533 230.425 287.942 233.008Z" fill="#515A60"/>
</g>
<g style="mix-blend-mode:multiply" opacity="0.2">
<path d="M281.537 231.788C281.382 232.3 281.146 232.784 280.838 233.222C279.767 230.401 279.814 226.929 279.755 225.874C279.696 224.819 279.808 221.88 279.879 220.102C279.907 219.208 280.171 218.337 280.643 217.577C281.511 218.899 281.957 220.453 281.921 222.034C281.969 226.211 282.235 229.305 281.537 231.788Z" fill="#515A60"/>
</g>
<path d="M281.123 231.397C280.412 234.158 277.37 236.594 275.061 234.508C274.349 233.84 273.781 233.033 273.392 232.137C271.995 229.05 272.054 224.991 271.983 223.8C271.918 222.751 272.036 219.58 272.119 217.672C272.144 216.935 272.321 216.21 272.64 215.545C272.899 214.968 273.272 214.45 273.735 214.022C274.074 213.672 274.488 213.404 274.945 213.239C275.403 213.074 275.892 213.015 276.375 213.068C279.081 213.429 281.472 215.965 281.519 220.582C281.567 225.198 281.827 228.635 281.123 231.397Z" fill="#515A60"/>
<g style="mix-blend-mode:multiply" opacity="0.2">
<path d="M281.123 231.397C280.412 234.158 277.37 236.594 275.061 234.508C274.349 233.84 273.781 233.033 273.392 232.137C271.995 229.05 272.054 224.991 271.983 223.8C271.918 222.751 272.036 219.58 272.119 217.672C272.144 216.935 272.321 216.21 272.64 215.545C272.899 214.968 273.272 214.45 273.735 214.022C274.074 213.672 274.488 213.404 274.945 213.239C275.403 213.074 275.892 213.015 276.375 213.068C279.081 213.429 281.472 215.965 281.519 220.582C281.567 225.198 281.827 228.635 281.123 231.397Z" fill="#515A60"/>
</g>
<g style="mix-blend-mode:multiply" opacity="0.2">
<path d="M274.327 230.366C274.134 231.017 273.81 231.622 273.374 232.143C271.977 229.056 272.036 224.997 271.965 223.806C271.9 222.757 272.018 219.586 272.101 217.678C272.126 216.941 272.303 216.216 272.622 215.551C273.853 216.653 274.694 218.419 274.724 220.825C274.783 224.89 275.049 227.924 274.327 230.366Z" fill="#515A60"/>
</g>
<path d="M264.987 216.179C265.023 214.796 265.604 213.484 266.603 212.528C266.94 212.179 267.353 211.911 267.809 211.746C268.266 211.58 268.754 211.522 269.237 211.574C271.942 211.936 274.339 214.472 274.387 219.088C274.434 223.705 274.695 227.154 273.984 229.915C273.274 232.677 270.237 235.112 267.929 233.026C264.815 230.211 264.933 223.847 264.845 222.306C264.785 221.257 264.904 218.087 264.987 216.179Z" fill="#515A60"/>
<g style="mix-blend-mode:multiply" opacity="0.2">
<path d="M264.987 216.179C265.023 214.796 265.604 213.484 266.603 212.528C266.94 212.179 267.353 211.911 267.809 211.746C268.266 211.58 268.754 211.522 269.237 211.574C271.942 211.936 274.339 214.472 274.387 219.088C274.434 223.705 274.695 227.154 273.984 229.915C273.274 232.677 270.237 235.112 267.929 233.026C264.815 230.211 264.933 223.847 264.845 222.306C264.785 221.257 264.904 218.087 264.987 216.179Z" fill="#515A60"/>
</g>
<path d="M152.096 211.091C152.096 211.091 157.933 213.117 160.087 221.248C162.242 229.378 161.23 238.516 159.454 242.202C158.397 244.383 157.48 246.63 156.707 248.928C157.821 250.728 159.417 252.179 161.313 253.117C164.657 254.895 169.6 257.266 169.6 257.266L172.512 274.599L170.808 275.286C170.808 275.286 148.675 274.012 141.571 269.319C133.533 263.986 129.395 259.731 130.283 250.587C131.171 241.443 139.446 222.783 143.507 217.74C147.568 212.697 149.332 211.381 150.308 211.097C150.891 210.92 151.512 210.918 152.096 211.091Z" fill="#4D9BE2"/>
<path d="M213.238 258.101C213.238 259.5 212.931 260.679 212.126 261.384C211.637 261.8 211.026 262.045 210.385 262.083C210.243 262.083 210.095 262.083 209.941 262.083H202.939H199.482C200.196 263.072 200.585 264.259 200.595 265.479C200.596 266.233 200.431 266.979 200.113 267.663C199.795 268.347 199.331 268.953 198.754 269.437C198.23 269.779 197.67 270.061 197.084 270.279C196.236 270.605 195.355 270.84 194.456 270.978H194.391C194.391 270.978 196.167 271.796 195.818 274.913C195.51 277.586 193.355 278.32 191.473 278.706C189.59 279.091 181.783 279.891 178.503 278.907C175.922 278.131 173.063 277.046 172.229 276.495C171.711 276.153 171.233 275.756 170.802 275.31C170.802 275.31 168.523 273.722 168.138 269.212C167.753 264.703 167.191 261.467 169.6 257.277C172.01 253.088 175.372 248.454 175.875 244.957C176.378 241.461 176.704 236.389 176.129 235.12C175.555 233.852 177.313 231.435 179.367 232.069C181.421 232.703 185.879 236.513 184.884 241.402C183.89 246.291 183.233 249.023 185.328 251.565C187.424 254.107 191.1 254.528 195.664 254.676C200.228 254.824 207.461 254.99 208.686 255.12C209.912 255.251 213.238 255.79 213.238 258.101Z" fill="#515A60"/>
<g style="mix-blend-mode:multiply" opacity="0.2">
<path d="M212.126 261.354C211.489 261.784 210.744 262.026 209.977 262.054H190.129C189.738 261.888 189.484 261.639 189.46 261.354H212.126Z" fill="#515A60"/>
</g>
<g style="mix-blend-mode:multiply" opacity="0.2">
<path d="M197.09 270.249C196.241 270.576 195.36 270.81 194.461 270.948H189.436C189.292 270.889 189.166 270.794 189.071 270.671C188.975 270.548 188.913 270.403 188.891 270.249H197.09Z" fill="#515A60"/>
</g>
<path d="M207.801 335.945C207.422 336.477 207.066 336.717 206.874 336.331C206.757 336.097 207.218 336.004 207.801 335.945Z" fill="#DBF0FD"/>
<path d="M107.457 292.226H107.602V292.529L107.457 292.226Z" fill="#3F9BD6"/>
<path d="M137.453 329.72L172.193 392.792C172.193 392.792 171.154 394.837 169.818 397.339C168.482 399.84 165.232 402.225 165.232 402.225C164.742 401.588 164.151 401.037 163.481 400.594C163.036 400.264 162.563 399.97 162.069 399.718C161.598 400.352 161.067 400.939 160.482 401.471L159.735 402.102C159.714 401.343 159.482 400.604 159.064 399.969L158.44 399.262C158.44 399.262 157.693 399.805 156.69 400.641C156.337 400.957 155.944 401.226 155.523 401.442C155.425 401.494 155.321 401.533 155.214 401.559C155.214 401.559 155.424 400.764 154.42 400.057C153.416 399.349 151.835 398.426 148.965 394.837C146.094 391.249 136.21 374.877 135.457 358.974C134.914 347.857 136.28 336.495 137.453 329.72Z" fill="#4D9BE2"/>
<path d="M154.793 402.225H154.881C154.869 402.235 154.853 402.241 154.837 402.241C154.821 402.241 154.806 402.235 154.793 402.225Z" fill="#515A60"/>
<path d="M128.268 407.638H128.123L128.07 407.632L128.268 407.638Z" fill="#515A60"/>
<path d="M191.048 143.869C190.923 143.732 190.779 143.613 190.621 143.517L191.048 143.869Z" fill="#2E98D5"/>
<path d="M191.048 143.869C190.923 143.732 190.779 143.613 190.621 143.517L191.048 143.869Z" fill="#DBF0FD"/>
<g opacity="0.33">
<path opacity="0.33" d="M191.048 143.869C190.923 143.732 190.779 143.613 190.621 143.517L191.048 143.869Z" fill="#535C62"/>
</g>
<g opacity="0.33">
<path opacity="0.33" d="M191.477 144.426L191.087 144.452L191.048 143.869C191.223 144.027 191.368 144.216 191.477 144.426Z" fill="#535C62"/>
</g>
<path d="M191.485 144.455L191.089 144.481L191.048 143.869C191.228 144.041 191.375 144.246 191.48 144.472L191.485 144.455Z" fill="#E6F4FD"/>
<path d="M191.048 143.869C190.923 143.732 190.779 143.613 190.621 143.517L191.048 143.869Z" fill="#E6F4FD"/>
<g opacity="0.3">
<path opacity="0.3" d="M239.464 112.717C239.575 116.293 239.234 122.184 238.708 128.895C238.684 129.154 238.666 129.413 238.643 129.672C235.371 142.534 223.273 152.715 209.387 159.888C197.163 166.195 192.647 165.748 192.647 165.748C192.647 165.748 188.224 166.794 175.267 162.176C160.517 156.916 147.165 148.424 142.213 136.096C141.104 130.9 140.153 126.232 139.555 122.642C139.369 121.436 139.215 120.369 139.118 119.444C137.94 108.169 135.788 95.3773 147.21 86.1087C158.632 76.8402 175.358 69.7107 180.883 68.6258C183.568 68.0945 184.925 67.8337 185.658 67.685L186.444 67.6323C187.161 67.6837 188.564 67.7595 191.29 67.9281C196.912 68.2773 214.454 73.1386 226.999 80.7593C239.544 88.3801 239.143 101.401 239.464 112.717Z" fill="#525B61"/>
<path opacity="0.3" d="M140.159 124.24C137.159 122.96 134.413 121.148 132.054 118.892C128.297 115.22 125.128 111.596 126.147 108.559C127.166 105.521 131.151 102.566 134.003 100.266C136.856 97.9665 141.122 96.5795 141.122 96.5795C141.122 96.5795 139.414 111.74 139.942 116.735C140.471 121.73 140.159 124.24 140.159 124.24Z" fill="#525B61"/>
<path opacity="0.3" d="M238.319 110.138C238.175 105.116 234.455 90.3202 234.455 90.3202C234.455 90.3202 238.862 91.1257 242.002 93.0236C245.143 94.9214 249.493 97.3179 250.897 100.193C252.302 103.068 249.686 107.08 246.425 111.222C244.389 113.773 241.91 115.935 239.107 117.605C239.107 117.605 238.462 115.153 238.319 110.138Z" fill="#525B61"/>
</g>
<path d="M139.847 119.585C136.846 118.304 134.1 116.493 131.742 114.237C127.984 110.559 124.816 106.936 125.835 103.898C126.854 100.86 130.839 97.9105 133.692 95.6107C136.545 93.3108 140.81 91.9236 140.81 91.9236C140.81 91.9236 139.101 107.084 139.629 112.074C140.157 117.063 139.847 119.585 139.847 119.585Z" fill="#4D9BE2"/>
<path d="M138.735 103.034C138.735 103.034 135.444 102.3 133.497 102.572C131.549 102.843 130.888 103.707 131.046 105.278C131.2 107.025 131.951 108.667 133.172 109.926C134.617 111.504 136.469 112.861 137.527 112.843C138.585 112.825 139.292 111.337 139.292 111.337L138.735 103.034Z" fill="#DBF0FD"/>
<g opacity="0.18">
<path opacity="0.18" d="M131.181 103.98C134.254 103.903 135.035 105.162 135.932 106.672C136.685 107.945 137.115 111.47 137.253 112.826C137.333 112.847 137.417 112.857 137.5 112.856C138.552 112.838 139.266 111.35 139.266 111.35L138.707 103.036C138.707 103.036 135.416 102.302 133.468 102.573C132.187 102.741 131.475 103.205 131.181 103.98Z" fill="#535C62"/>
</g>
<g style="mix-blend-mode:multiply" opacity="0.16">
<path d="M125.715 104.343C127.949 103.531 130.264 102.96 132.619 102.639C134.411 102.454 136.219 102.544 137.984 102.906L139.751 99.5259L140.34 96.6289C140.602 93.9003 140.822 91.959 140.822 91.959C140.822 91.959 136.563 93.3396 133.705 95.6392C130.847 97.9388 126.846 100.889 125.845 103.925C125.784 104.064 125.74 104.201 125.715 104.343Z" fill="#515A60"/>
</g>
<path d="M238.007 105.478C237.863 100.462 234.143 85.666 234.143 85.666C234.143 85.666 238.55 86.4657 241.691 88.3694C244.831 90.273 249.181 92.6579 250.585 95.5331C251.989 98.4083 249.374 102.42 246.113 106.568C244.077 109.119 241.598 111.281 238.795 112.951C238.795 112.951 238.151 110.499 238.007 105.478Z" fill="#4D9BE2"/>
<g style="mix-blend-mode:multiply" opacity="0.4">
<path d="M238.007 105.478C237.863 100.462 234.143 85.6658 234.143 85.6658C234.143 85.6658 238.55 86.4656 241.691 88.3692C244.831 90.2729 249.181 92.6578 250.585 95.533C251.989 98.4082 249.374 102.42 246.113 106.568C244.077 109.119 241.598 111.281 238.795 112.951C238.795 112.951 238.151 110.499 238.007 105.478Z" fill="#4D9BE2"/>
</g>
<path d="M238.242 104.701C238.242 104.701 239.148 106.081 240.193 105.958C241.238 105.835 242.897 104.242 244.119 102.485C245.161 101.075 245.685 99.3477 245.604 97.5952C245.551 96.0175 244.786 95.2547 242.82 95.2402C240.853 95.2256 237.685 96.3985 237.685 96.3985L238.242 104.701Z" fill="#DBF0FD"/>
<g opacity="0.18">
<g style="mix-blend-mode:multiply" opacity="0.18">
<path d="M242.815 95.2408C240.848 95.232 237.685 96.3984 237.685 96.3984L238.244 104.712C238.244 104.712 239.15 106.092 240.195 105.969L240.224 105.967C240.307 105.957 240.388 105.936 240.465 105.904C240.42 104.542 240.375 100.991 240.95 99.6288C241.638 98.0134 242.243 96.6611 245.298 96.3276C244.91 95.5982 244.136 95.2342 242.815 95.2408Z" fill="#525B61"/>
</g>
</g>
<g style="mix-blend-mode:multiply" opacity="0.16">
<path d="M250.597 95.559C249.199 92.6839 244.832 90.289 241.699 88.397C238.565 86.5049 234.153 85.6999 234.153 85.6999C234.153 85.6999 234.631 87.5943 235.255 90.2636L236.227 93.056L238.43 96.1698C240.13 95.5759 241.911 95.2452 243.711 95.1892C246.088 95.1923 248.458 95.4495 250.781 95.9565C250.714 95.8205 250.658 95.6895 250.597 95.559Z" fill="#3583B9"/>
</g>
<path d="M187.199 64.534L193.819 161.245L193.48 162.261C193.323 162.271 193.078 162.288 192.74 162.31L192.537 162.324L192.15 162.321L192.086 162.325C189.826 162.289 184.985 161.723 176.32 158.655C166.785 155.259 157.827 150.524 151.368 144.233L151.017 143.887C149.872 142.756 148.799 141.555 147.804 140.289C147.683 140.139 147.567 139.983 147.452 139.833C146.72 138.876 146.042 137.879 145.42 136.847C145.018 136.171 144.644 135.488 144.293 134.791C144.015 134.224 143.755 133.655 143.52 133.115C143.368 132.758 143.253 132.387 143.176 132.007C142.377 128.295 141.671 124.834 141.133 121.877C140.956 120.899 140.795 119.972 140.661 119.114C140.475 117.92 140.321 116.847 140.224 115.916C139.04 104.645 136.894 91.8499 148.318 82.6027C159.741 73.3555 176.465 66.2013 181.99 65.1163L186.687 64.6438C186.836 64.6249 187.049 64.5351 187.199 64.534Z" fill="#4D9BE2"/>
<path d="M239.102 109.36C239.13 110.296 239.12 111.38 239.096 112.588C239.079 113.456 239.042 114.396 238.998 115.388C238.861 118.402 238.636 121.932 238.304 125.703C238.278 126.089 238.214 126.472 238.112 126.846C237.953 127.442 237.771 128.04 237.569 128.61C237.314 129.348 237.036 130.075 236.727 130.799C236.251 131.902 235.714 132.978 235.119 134.023C235.009 134.217 234.899 134.412 234.783 134.601C233.962 135.985 233.055 137.315 232.067 138.585C226.492 145.806 218.144 151.818 209.008 156.531C203.064 159.583 198.945 161.054 196.279 161.76C195.865 161.87 195.485 161.96 195.127 162.036C194.77 162.113 194.314 162.202 193.972 162.254L193.595 162.309L193.508 162.315L193.304 162.328L193.118 162.341C192.78 162.363 192.535 162.38 192.378 162.39L192.238 162.4L185.652 64.3175L185.792 64.3081C185.941 64.2892 186.091 64.2792 186.24 64.2781L190.869 64.5535C196.484 64.8974 214.032 69.7538 226.577 77.388C239.123 85.0222 238.786 98.0302 239.102 109.36Z" fill="#4D9BE2"/>
<g style="mix-blend-mode:multiply" opacity="0.4">
<path d="M239.101 109.36C239.129 110.296 239.12 111.38 239.096 112.588C239.078 113.456 239.042 114.396 238.997 115.389C238.86 118.403 238.635 121.932 238.303 125.703C238.278 126.089 238.213 126.472 238.111 126.846C237.952 127.442 237.77 128.04 237.569 128.61C237.314 129.348 237.035 130.075 236.727 130.799C236.25 131.902 235.713 132.979 235.118 134.023C235.008 134.218 234.899 134.412 234.783 134.602C233.961 135.985 233.054 137.315 232.067 138.585C226.491 145.806 218.144 151.819 209.007 156.531C203.064 159.583 198.945 161.054 196.278 161.76C195.864 161.87 195.484 161.96 195.127 162.036C194.769 162.113 194.313 162.202 193.971 162.254L193.595 162.309L193.507 162.315L193.304 162.329L193.117 162.341C192.78 162.364 192.535 162.38 192.378 162.391L192.238 162.4L185.652 64.3177L185.792 64.3083C185.94 64.2894 186.09 64.2794 186.24 64.2783L190.868 64.5537C196.484 64.8976 214.031 69.754 226.577 77.3882C239.123 85.0224 238.785 98.0304 239.101 109.36Z" fill="#4D9BE2"/>
</g>
<path d="M185.714 64.314L192.302 162.425L192.081 162.44C191.924 162.451 191.679 162.467 191.342 162.49L191.138 162.503L190.751 162.5L190.687 162.504C188.427 162.469 183.586 161.903 174.922 158.835C165.387 155.438 156.428 150.703 149.969 144.412L149.618 144.067C148.473 142.936 147.4 141.734 146.405 140.469C146.284 140.319 146.168 140.163 146.053 140.012C145.321 139.055 144.643 138.059 144.021 137.027C143.619 136.351 143.245 135.667 142.894 134.97C142.617 134.403 142.356 133.835 142.121 133.294C141.97 132.938 141.854 132.567 141.777 132.187C140.978 128.474 140.272 125.013 139.734 122.056C139.557 121.078 139.396 120.152 139.262 119.294C139.077 118.1 138.923 117.027 138.825 116.096C137.641 104.824 135.495 92.0295 146.919 82.7823C158.342 73.5351 175.066 66.3809 180.592 65.2959L185.141 64.4051C185.29 64.3862 185.44 64.3411 185.583 64.3104L185.714 64.314Z" fill="#4D9BE2"/>
<path d="M191.197 115.016L194.351 161.987L194.124 162.003C193.967 162.013 193.722 162.03 193.384 162.052L193.181 162.066L192.794 162.062L192.73 162.067C190.47 162.031 185.63 161.465 176.966 158.397C167.432 155.001 158.475 150.266 152.017 143.975L151.666 143.63C150.521 142.499 149.448 141.298 148.453 140.033C151.723 132.984 157.925 127.18 165.208 122.838C179.565 114.262 190.874 115.003 191.203 115.028L191.197 115.016Z" fill="#DBF0FD"/>
<path d="M189.15 115.455L192.305 162.426L192.077 162.442C191.92 162.452 191.676 162.469 191.338 162.491L191.134 162.505L190.748 162.502L190.684 162.506C188.424 162.47 183.584 161.904 174.92 158.836C165.386 155.44 156.429 150.705 149.97 144.415L149.619 144.069C148.475 142.938 147.401 141.737 146.406 140.472C149.677 133.423 155.879 127.619 163.162 123.277C177.519 114.701 188.828 115.442 189.157 115.467L189.15 115.455Z" fill="#DBF0FD"/>
<path d="M234.805 134.603C233.983 135.986 233.076 137.316 232.089 138.586C226.514 145.806 218.168 151.819 209.032 156.531C203.09 159.582 198.971 161.053 196.305 161.759C195.891 161.869 195.511 161.959 195.153 162.036C194.796 162.112 194.345 162.195 193.998 162.254L193.622 162.308L193.534 162.314L193.33 162.328L193.144 162.34C192.806 162.363 192.562 162.379 192.405 162.39L192.218 162.402L189.066 115.46L189.153 115.455C190.205 115.255 201.066 113.414 215.879 119.742C223.683 123.073 230.631 128.018 234.805 134.603Z" fill="#CCE9FC"/>
<g opacity="0.5">
<path opacity="0.5" d="M204.086 130.06C204.207 130.052 204.319 129.997 204.398 129.906C204.478 129.815 204.518 129.696 204.51 129.575C204.502 129.455 204.446 129.342 204.355 129.263C204.264 129.183 204.146 129.143 204.025 129.151C203.905 129.159 203.792 129.215 203.713 129.306C203.633 129.397 203.593 129.515 203.601 129.636C203.609 129.757 203.665 129.869 203.756 129.949C203.847 130.028 203.966 130.068 204.086 130.06Z" fill="#525B61"/>
</g>
<g opacity="0.5">
<path opacity="0.5" d="M206.157 127.977C206.239 127.972 206.319 127.943 206.385 127.894C206.45 127.844 206.5 127.776 206.527 127.698C206.554 127.62 206.557 127.536 206.536 127.456C206.514 127.376 206.47 127.304 206.408 127.25C206.346 127.196 206.269 127.161 206.187 127.151C206.105 127.14 206.022 127.155 205.949 127.192C205.875 127.229 205.814 127.287 205.774 127.359C205.733 127.431 205.715 127.514 205.722 127.596C205.729 127.704 205.779 127.805 205.861 127.876C205.942 127.948 206.049 127.984 206.157 127.977Z" fill="#525B61"/>
</g>
<g opacity="0.5">
<path opacity="0.5" d="M206.031 124.183C206.106 124.18 206.178 124.153 206.238 124.108C206.299 124.063 206.344 124.001 206.369 123.93C206.394 123.859 206.397 123.782 206.378 123.709C206.359 123.636 206.319 123.57 206.263 123.52C206.206 123.47 206.137 123.438 206.062 123.428C205.987 123.418 205.911 123.43 205.844 123.463C205.776 123.496 205.72 123.549 205.682 123.614C205.645 123.679 205.627 123.754 205.632 123.83C205.639 123.929 205.685 124.022 205.759 124.088C205.834 124.154 205.931 124.189 206.031 124.183Z" fill="#525B61"/>
</g>
<g opacity="0.5">
<path opacity="0.5" d="M207.684 125.631C207.784 125.624 207.878 125.578 207.944 125.502C208.01 125.426 208.044 125.327 208.037 125.226C208.03 125.126 207.984 125.032 207.908 124.966C207.832 124.9 207.733 124.866 207.633 124.873C207.533 124.88 207.439 124.926 207.373 125.002C207.306 125.078 207.273 125.177 207.28 125.277C207.287 125.378 207.333 125.471 207.409 125.538C207.484 125.604 207.583 125.637 207.684 125.631Z" fill="#525B61"/>
</g>
<g opacity="0.5">
<path opacity="0.5" d="M176.508 131.91C176.598 131.904 176.684 131.871 176.756 131.816C176.827 131.761 176.88 131.686 176.909 131.601C176.938 131.516 176.941 131.424 176.918 131.337C176.894 131.25 176.845 131.171 176.778 131.112C176.71 131.053 176.626 131.015 176.537 131.003C176.447 130.992 176.357 131.007 176.276 131.047C176.195 131.087 176.128 131.15 176.083 131.228C176.038 131.306 176.018 131.396 176.024 131.486C176.032 131.606 176.087 131.719 176.178 131.798C176.269 131.878 176.388 131.918 176.508 131.91Z" fill="#525B61"/>
</g>
<g opacity="0.5">
<path opacity="0.5" d="M174.149 130.123C174.231 130.118 174.309 130.088 174.374 130.038C174.439 129.987 174.488 129.919 174.514 129.841C174.54 129.763 174.542 129.679 174.52 129.599C174.499 129.52 174.454 129.449 174.391 129.395C174.329 129.341 174.252 129.307 174.171 129.298C174.089 129.288 174.006 129.302 173.933 129.34C173.86 129.377 173.799 129.435 173.759 129.507C173.719 129.579 173.701 129.661 173.708 129.743C173.712 129.797 173.726 129.85 173.75 129.898C173.774 129.947 173.808 129.99 173.849 130.025C173.89 130.061 173.938 130.088 173.989 130.104C174.041 130.121 174.095 130.128 174.149 130.123Z" fill="#525B61"/>
</g>
<g opacity="0.5">
<path opacity="0.5" d="M173.772 126.347C173.847 126.342 173.919 126.315 173.978 126.269C174.038 126.223 174.082 126.161 174.106 126.089C174.13 126.018 174.133 125.942 174.113 125.869C174.094 125.797 174.053 125.731 173.996 125.682C173.94 125.633 173.87 125.601 173.796 125.591C173.721 125.582 173.646 125.594 173.578 125.628C173.511 125.661 173.455 125.713 173.418 125.779C173.38 125.844 173.363 125.918 173.368 125.993C173.375 126.094 173.421 126.188 173.497 126.254C173.573 126.32 173.672 126.354 173.772 126.347Z" fill="#525B61"/>
</g>
<g opacity="0.5">
<path opacity="0.5" d="M172.333 128.002C172.408 127.997 172.48 127.969 172.539 127.924C172.599 127.878 172.643 127.815 172.667 127.744C172.691 127.673 172.694 127.596 172.674 127.524C172.655 127.451 172.614 127.386 172.557 127.337C172.501 127.287 172.431 127.256 172.357 127.246C172.282 127.236 172.207 127.249 172.139 127.282C172.072 127.316 172.016 127.368 171.979 127.433C171.941 127.498 171.924 127.573 171.929 127.648C171.936 127.749 171.982 127.842 172.058 127.909C172.134 127.975 172.233 128.008 172.333 128.002Z" fill="#525B61"/>
</g>
<path d="M174.171 129.908C172.209 130 170.255 130.211 168.318 130.541C166.399 130.869 164.479 131.279 162.552 131.771C158.752 132.776 155.055 134.136 151.508 135.832C149.745 136.689 148.027 137.635 146.359 138.666C145.931 138.917 145.529 139.201 145.114 139.463C144.699 139.725 144.285 140.005 143.889 140.295L142.68 141.108L141.532 142.04C141.143 142.335 140.762 142.677 140.385 142.978C140.007 143.278 139.62 143.615 139.28 143.942C138.554 144.629 137.801 145.271 137.119 146.002C135.708 147.422 134.382 148.925 133.146 150.502C134.367 148.912 135.684 147.398 137.088 145.969C137.764 145.232 138.515 144.579 139.235 143.892C139.599 143.557 139.988 143.256 140.34 142.916C140.691 142.577 141.092 142.28 141.48 141.961L142.653 141.045L143.852 140.175C144.253 139.878 144.667 139.605 145.076 139.331C145.484 139.058 145.892 138.773 146.314 138.522C147.987 137.481 149.708 136.522 151.478 135.646C155.021 133.922 158.72 132.537 162.523 131.509C164.419 130.996 166.344 130.574 168.286 130.239C170.233 129.886 172.2 129.654 174.176 129.545C174.212 129.561 174.243 129.587 174.263 129.621C174.284 129.656 174.296 129.695 174.3 129.736C174.307 129.753 174.308 129.771 174.303 129.788C174.309 129.805 174.31 129.823 174.307 129.841C174.295 129.858 174.28 129.873 174.263 129.885C174.236 129.903 174.204 129.911 174.171 129.908Z" fill="#525B61"/>
<path d="M173.702 126.075C172.444 125.175 171.061 124.467 169.596 123.973C169.416 123.909 169.236 123.834 169.056 123.775L168.507 123.613L167.403 123.283C166.661 123.122 165.918 122.932 165.166 122.801C164.415 122.67 163.67 122.562 162.91 122.478L160.647 122.308C159.14 122.265 157.635 122.294 156.133 122.394L154.456 122.507L153.876 122.587L151.646 122.894C150.898 122.985 150.158 123.123 149.428 123.306L147.224 123.759C145.777 124.154 144.323 124.539 142.883 124.951L138.618 126.408L142.871 124.952C144.304 124.522 145.74 124.127 147.203 123.713L149.405 123.238C150.144 123.094 150.868 122.894 151.622 122.802L153.857 122.477L154.436 122.391L156.183 122.274C157.69 122.154 159.201 122.109 160.712 122.14L162.991 122.291C163.751 122.363 164.514 122.494 165.263 122.59C166.012 122.686 166.775 122.898 167.522 123.053L168.643 123.376L169.198 123.538C169.383 123.595 169.564 123.671 169.749 123.735C171.26 124.223 172.687 124.937 173.985 125.851C173.985 125.851 174.06 125.922 173.964 126.051C173.967 126.086 173.956 126.12 173.934 126.147C173.911 126.174 173.879 126.191 173.845 126.194C173.81 126.197 173.775 126.186 173.749 126.164C173.722 126.141 173.705 126.109 173.702 126.075Z" fill="#525B61"/>
<path d="M176.567 131.621C174.024 132.432 171.549 133.444 169.166 134.648C166.76 135.845 164.447 137.223 162.249 138.771C161.132 139.555 160.076 140.37 159.053 141.252C158.013 142.123 157.019 143.048 156.075 144.023C154.161 145.99 152.47 148.163 151.036 150.504C152.446 148.143 154.115 145.947 156.012 143.957C156.951 142.978 157.939 142.048 158.971 141.17C159.988 140.282 161.06 139.443 162.145 138.614C164.333 137.034 166.637 135.623 169.038 134.393C171.424 133.149 173.906 132.099 176.46 131.254C176.46 131.254 176.565 131.247 176.622 131.395C176.643 131.433 176.649 131.477 176.639 131.519C176.629 131.561 176.603 131.598 176.567 131.621Z" fill="#525B61"/>
<path d="M172.291 127.795C170.749 127.659 169.2 127.634 167.654 127.72C166.114 127.783 164.577 127.925 163.051 128.146C159.997 128.578 156.974 129.209 154.002 130.035L151.788 130.687C151.042 130.895 150.324 131.171 149.592 131.419C148.126 131.886 146.703 132.468 145.261 133.027C144.542 133.292 143.838 133.614 143.128 133.925L141.009 134.858L136.859 136.892C138.235 136.214 139.607 135.49 140.995 134.818L143.101 133.863C143.804 133.54 144.507 133.212 145.226 132.941C146.661 132.365 148.072 131.773 149.548 131.288C150.28 131.039 150.998 130.757 151.739 130.555L153.951 129.88C156.922 129.018 159.946 128.354 163.005 127.891C164.54 127.677 166.078 127.498 167.652 127.422C169.211 127.317 170.775 127.328 172.333 127.453C172.333 127.453 172.434 127.481 172.439 127.645C172.444 127.809 172.291 127.795 172.291 127.795Z" fill="#525B61"/>
<path d="M206.192 127.761C208.149 127.589 210.114 127.538 212.077 127.606C214.031 127.674 215.991 127.824 217.956 128.055C221.849 128.544 225.687 129.398 229.421 130.607C231.292 131.218 233.131 131.923 234.931 132.72C235.377 132.913 235.819 133.141 236.266 133.345C236.712 133.549 237.16 133.771 237.591 134.006L238.901 134.697L240.185 135.442C240.616 135.683 241.039 135.97 241.454 136.218C241.868 136.465 242.29 136.747 242.677 137.026C243.489 137.61 244.314 138.146 245.094 138.779C246.684 139.997 248.199 141.309 249.633 142.708C248.209 141.297 246.702 139.973 245.12 138.742C244.346 138.103 243.52 137.555 242.715 136.971C242.304 136.688 241.884 136.441 241.49 136.151C241.096 135.861 240.653 135.621 240.22 135.358L238.942 134.606L237.631 133.903C237.206 133.663 236.758 133.447 236.311 133.231C235.864 133.015 235.427 132.786 234.976 132.594C233.178 131.778 231.34 131.057 229.468 130.434C225.729 129.198 221.883 128.319 217.98 127.808C216.015 127.553 214.063 127.385 212.099 127.318C210.12 127.228 208.138 127.261 206.163 127.417C206.132 127.439 206.108 127.469 206.093 127.504C206.084 127.543 206.087 127.583 206.101 127.62C206.094 127.636 206.091 127.652 206.092 127.669C206.094 127.686 206.099 127.702 206.108 127.716C206.117 127.73 206.13 127.741 206.144 127.749C206.159 127.757 206.176 127.761 206.192 127.761Z" fill="#525B61"/>
<path d="M206.117 123.901C207.245 122.844 208.521 121.958 209.905 121.27C210.081 121.182 210.244 121.084 210.419 121.002L210.942 120.767L211.986 120.294C212.705 120.035 213.417 119.747 214.139 119.517C214.86 119.287 215.601 119.079 216.331 118.896L218.551 118.425C220.037 118.179 221.541 118.008 223.043 117.907L224.737 117.794L225.322 117.795L227.58 117.802C228.33 117.793 229.081 117.831 229.827 117.915L232.077 118.068C233.558 118.267 235.027 118.456 236.533 118.671L240.954 119.545L236.545 118.67C235.061 118.436 233.591 118.236 232.091 118.02L229.84 117.844C229.088 117.8 228.339 117.698 227.591 117.708L225.326 117.684L224.741 117.676L223.035 117.791C221.522 117.873 220.014 118.031 218.517 118.263L216.278 118.718C215.541 118.89 214.808 119.121 214.067 119.317C213.325 119.513 212.615 119.824 211.895 120.077L210.833 120.546L210.299 120.781C210.124 120.863 209.949 120.963 209.785 121.05C208.353 121.734 207.033 122.632 205.87 123.712C205.851 123.743 205.842 123.778 205.845 123.814C205.847 123.849 205.861 123.883 205.883 123.911C205.967 124.028 206.117 123.901 206.117 123.901Z" fill="#525B61"/>
<path d="M204.065 129.777C206.693 130.242 209.281 130.914 211.804 131.788C214.345 132.654 216.817 133.712 219.198 134.952C220.41 135.58 221.56 136.246 222.704 136.984C223.846 137.71 224.951 138.494 226.014 139.333C228.178 141.023 230.146 142.952 231.88 145.083C230.165 142.931 228.215 140.978 226.067 139.259C225.01 138.405 223.909 137.605 222.771 136.862C221.634 136.119 220.47 135.429 219.273 134.754C216.895 133.481 214.425 132.39 211.883 131.49C209.352 130.576 206.752 129.867 204.108 129.37C204.108 129.37 204.003 129.377 203.967 129.532C203.953 129.578 203.955 129.627 203.973 129.672C203.991 129.716 204.023 129.753 204.065 129.777Z" fill="#525B61"/>
<path d="M207.779 125.415C209.285 125.075 210.813 124.843 212.352 124.722C213.903 124.578 215.46 124.513 217.018 124.527C220.101 124.548 223.179 124.769 226.233 125.191L228.519 125.541C229.275 125.648 230.03 125.826 230.783 125.975C232.303 126.241 233.797 126.627 235.295 126.989C236.049 127.155 236.79 127.381 237.523 127.595L239.748 128.236L244.139 129.698C242.685 129.21 241.228 128.676 239.762 128.194L237.542 127.529C236.808 127.303 236.067 127.072 235.313 126.9C233.819 126.52 232.336 126.122 230.808 125.838C230.056 125.69 229.307 125.506 228.545 125.404L226.263 125.031C223.203 124.576 220.117 124.323 217.024 124.274C215.48 124.267 213.932 124.294 212.356 124.429C210.797 124.534 209.248 124.753 207.722 125.086C207.722 125.086 207.631 125.127 207.642 125.29C207.653 125.453 207.779 125.415 207.779 125.415Z" fill="#525B61"/>
<g opacity="0.33">
<path opacity="0.33" d="M200.094 114.718C198.643 113.919 195.477 112.405 192.562 112.296C190.966 112.222 189.924 112.198 189.297 112.188L189.293 112.135L188.554 112.185L188.557 112.237C187.938 112.332 186.902 112.495 185.336 112.781C182.446 113.298 179.528 115.221 178.194 116.189C177.529 116.662 177.057 117.358 176.864 118.152C176.672 118.943 176.767 119.777 177.133 120.505C177.903 122.134 182.653 125.989 184.577 126.85C186.144 127.535 188.923 127.284 189.915 127.164C190.926 127.149 193.713 127.026 195.169 126.138C196.973 125.045 201.165 120.571 201.7 118.855C201.968 118.096 201.958 117.267 201.671 116.515C201.379 115.745 200.819 115.107 200.094 114.718Z" fill="#535C62"/>
</g>
<path d="M185.199 115.787C185.879 116.142 186.617 116.37 187.379 116.461C187.988 116.532 188.602 116.559 189.215 116.543L189.864 126.204C188.848 126.325 186.011 126.58 184.41 125.902C182.441 125.062 177.589 121.188 176.807 119.565C176.434 118.836 176.338 117.996 176.538 117.201C176.737 116.407 177.219 115.712 177.892 115.246C179.259 114.258 182.258 112.33 185.19 111.828C186.791 111.545 187.851 111.381 188.488 111.285L188.485 111.239L188.857 111.214L188.939 112.426C188.939 112.426 185.917 112.728 184.69 113.789C183.463 114.849 185.199 115.787 185.199 115.787Z" fill="#525B61"/>
<path d="M185.199 115.787C185.879 116.142 186.617 116.37 187.379 116.461C187.988 116.532 189.14 116.491 189.753 116.474L190.191 126.02C189.175 126.141 186.011 126.58 184.41 125.902C182.441 125.062 177.589 121.188 176.807 119.565C176.434 118.836 176.338 117.996 176.538 117.201C176.737 116.407 177.219 115.712 177.892 115.246C179.258 114.258 182.258 112.33 185.19 111.828C186.791 111.545 187.851 111.381 188.488 111.285L188.485 111.239L189.168 111.244L189.388 112.268C189.388 112.268 185.917 112.728 184.69 113.789C183.463 114.849 185.199 115.787 185.199 115.787Z" fill="#525B61"/>
<path d="M201.919 117.881C201.362 119.594 197.07 124.063 195.233 125.176C193.736 126.061 190.89 126.187 189.862 126.204L189.213 116.543C188.6 116.559 187.986 116.532 187.377 116.461C186.616 116.37 185.877 116.141 185.197 115.787C185.197 115.787 183.444 114.856 184.682 113.783C185.92 112.711 188.931 112.421 188.931 112.421L188.85 111.214L189.234 111.188L189.237 111.241C189.876 111.251 190.942 111.273 192.572 111.339C195.546 111.468 198.783 112.979 200.262 113.752C200.994 114.122 201.567 114.746 201.872 115.509C202.178 116.271 202.195 117.119 201.92 117.893L201.919 117.881Z" fill="#525B61"/>
<g opacity="0.4">
<path d="M201.925 117.95C201.368 119.662 197.075 124.131 195.237 125.245C193.74 126.13 190.894 126.257 189.866 126.273L189.218 116.608C188.605 116.629 187.991 116.604 187.382 116.532C186.621 116.441 185.882 116.213 185.202 115.858C185.202 115.858 183.449 114.928 184.687 113.855C185.926 112.782 188.936 112.492 188.936 112.492L188.855 111.28L189.239 111.254L189.243 111.306C189.881 111.316 190.947 111.338 192.578 111.405C195.552 111.533 198.789 113.043 200.268 113.816C200.994 114.185 201.561 114.805 201.866 115.56C202.17 116.316 202.191 117.157 201.924 117.927L201.925 117.95Z" fill="#525B61"/>
<g style="mix-blend-mode:multiply" opacity="0.2">
<path d="M201.925 117.95C201.368 119.662 197.075 124.132 195.237 125.245C193.74 126.13 190.894 126.257 189.866 126.273L189.218 116.608C188.605 116.629 187.991 116.604 187.382 116.532C186.621 116.441 185.882 116.213 185.202 115.859C185.202 115.859 183.449 114.928 184.687 113.855C185.926 112.783 188.936 112.493 188.936 112.493L188.855 111.28L189.239 111.254L189.243 111.307C189.881 111.316 190.947 111.339 192.578 111.405C195.552 111.533 198.789 113.043 200.268 113.816C200.994 114.185 201.561 114.805 201.866 115.561C202.17 116.316 202.191 117.157 201.924 117.927L201.925 117.95Z" fill="#525B61"/>
</g>
</g>
<path d="M194.54 120.883C194.447 120.629 194.428 120.354 194.486 120.09C194.54 119.824 194.668 119.578 194.854 119.38C195.505 118.622 196.202 118.118 196.715 118.266C196.828 118.283 196.936 118.324 197.033 118.385C197.13 118.446 197.213 118.526 197.277 118.62C197.343 118.713 197.389 118.817 197.415 118.927C197.446 119.037 197.453 119.152 197.437 119.265C197.43 119.573 197.339 119.873 197.174 120.132C197.015 120.398 196.787 120.616 196.514 120.762C195.993 121.007 195.426 121.139 194.85 121.149C194.573 121.039 194.54 120.883 194.54 120.883Z" fill="#6D7780"/>
<path d="M184.521 121.555C184.58 121.291 184.561 121.016 184.468 120.762C184.379 120.505 184.22 120.278 184.009 120.107C183.257 119.443 182.504 119.037 182.015 119.251C181.906 119.284 181.804 119.338 181.716 119.412C181.629 119.485 181.557 119.576 181.506 119.678C181.451 119.777 181.418 119.887 181.411 120.001C181.398 120.114 181.405 120.228 181.433 120.339C181.486 120.642 181.618 120.926 181.816 121.162C182.008 121.406 182.263 121.592 182.554 121.699C183.103 121.872 183.683 121.927 184.255 121.86C184.319 121.831 184.375 121.789 184.421 121.736C184.467 121.684 184.501 121.622 184.521 121.555Z" fill="#6D7780"/>
<g opacity="0.51">
<path opacity="0.51" d="M193.098 115.256C192.472 115.698 191.771 116.023 191.028 116.214C190.452 116.346 190.001 116.429 189.695 116.479C189.537 116.508 189.377 116.519 189.217 116.511C188.604 116.533 187.991 116.507 187.381 116.435C186.62 116.344 185.882 116.116 185.201 115.762C185.201 115.762 183.449 114.831 184.687 113.759C185.925 112.687 188.935 112.397 188.935 112.397C188.935 112.397 191.97 112.293 193.333 113.179C194.697 114.065 193.098 115.256 193.098 115.256Z" fill="white"/>
</g>
<path d="M211.263 128.943C211.085 128.985 210.931 129.095 210.832 129.249C210.733 129.403 210.698 129.59 210.734 129.769C210.734 129.769 210.466 133.1 208.757 134.386C204.745 137.424 199.385 135.547 190.97 134.338C190.791 134.296 190.606 134.286 190.424 134.31C190.242 134.311 190.062 134.345 189.893 134.41C181.719 136.714 176.653 139.307 172.265 136.833C170.411 135.786 169.685 132.545 169.689 132.521C169.697 132.431 169.687 132.339 169.659 132.253C169.631 132.166 169.586 132.086 169.526 132.017C169.408 131.879 169.241 131.791 169.06 131.773C168.543 131.738 168.333 132.191 168.348 132.582C168.676 134.523 169.703 136.276 171.234 137.511C172.962 138.847 175.907 139.17 179.117 138.627C182.326 138.084 186.111 136.788 190.523 135.521C195.069 136.17 199.028 136.947 202.248 137.076C205.467 137.206 208.383 136.471 209.91 134.917C211.261 133.488 212.044 131.614 212.112 129.647C212.039 129.26 211.796 128.867 211.263 128.943Z" fill="#525B61"/>
<path d="M190.468 135.222L191.031 143.6C188.347 143.78 185.826 142.473 183.892 141.027C181.682 139.383 180.26 138.155 180.26 138.155C183.432 136.502 186.903 135.504 190.468 135.222Z" fill="#525B61"/>
<path d="M190.923 134.434C194.488 134.152 191.251 143.468 191.251 143.468C188.567 143.648 185.826 142.473 183.893 141.027C181.682 139.383 180.261 138.155 180.261 138.155C183.432 136.502 187.358 134.716 190.923 134.434Z" fill="#525B61"/>
<path d="M201.028 136.757C201.028 136.757 199.783 138.164 197.818 140.088C196.095 141.779 193.766 143.411 191.035 143.594L190.473 135.221C194.058 135.012 197.649 135.535 201.028 136.757Z" fill="#525B61"/>
<g style="mix-blend-mode:multiply" opacity="0.2">
<path d="M201.028 136.757C201.028 136.757 199.783 138.164 197.818 140.088C196.095 141.779 193.766 143.411 191.035 143.594L190.473 135.221C194.058 135.012 197.649 135.535 201.028 136.757Z" fill="#525B61"/>
</g>
<g opacity="0.33">
<g style="mix-blend-mode:multiply" opacity="0.33">
<path d="M211.308 129.585C211.131 129.627 210.977 129.736 210.879 129.888C210.78 130.041 210.744 130.226 210.778 130.404C210.778 130.404 210.511 133.74 208.801 135.025C204.789 138.062 199.428 136.187 191.013 134.978C190.835 134.931 190.649 134.921 190.468 134.95C190.286 134.949 190.105 134.983 189.936 135.05C181.763 137.354 176.697 139.947 172.308 137.473C170.454 136.428 169.728 133.188 169.732 133.158C169.744 132.977 169.686 132.799 169.57 132.66C169.451 132.522 169.284 132.435 169.103 132.416C168.586 132.381 168.377 132.833 168.391 133.225C168.72 135.172 169.754 136.929 171.296 138.162C173.023 139.503 175.969 139.82 179.178 139.271C182.387 138.723 186.173 137.445 190.584 136.165C195.131 136.814 199.089 137.584 202.309 137.72C205.529 137.855 208.445 137.126 209.972 135.567C211.323 134.14 212.107 132.269 212.175 130.305C212.084 129.901 211.839 129.479 211.308 129.585Z" fill="#535C62"/>
</g>
</g>
<path d="M190.504 134.275L190.589 135.534C186.169 136.779 182.251 138.096 179.101 138.647C175.951 139.198 172.946 138.866 171.218 137.53C169.687 136.298 168.66 134.546 168.332 132.606C168.314 132.504 168.319 132.399 168.347 132.299C168.375 132.2 168.425 132.108 168.493 132.03C168.562 131.952 168.647 131.891 168.742 131.85C168.837 131.81 168.941 131.792 169.044 131.797C169.226 131.812 169.395 131.899 169.513 132.038C169.632 132.177 169.691 132.357 169.679 132.539C169.683 132.603 170.413 135.816 172.255 136.857C176.644 139.327 181.678 136.694 189.85 134.366C190.063 134.306 190.283 134.275 190.504 134.275Z" fill="#525B61"/>
<path d="M212.077 129.649C212.009 131.614 211.226 133.487 209.875 134.914C208.348 136.469 205.466 137.189 202.212 137.073C198.959 136.958 195.136 136.201 190.586 135.511L190.501 134.252C190.652 134.233 190.804 134.247 190.949 134.292C199.357 135.485 204.724 137.379 208.737 134.341C210.434 133.056 210.718 129.781 210.713 129.717C210.677 129.539 210.713 129.353 210.813 129.201C210.912 129.048 211.066 128.939 211.243 128.897C211.349 128.881 211.457 128.89 211.56 128.921C211.662 128.952 211.757 129.005 211.836 129.077C211.916 129.149 211.979 129.237 212.021 129.336C212.062 129.435 212.082 129.542 212.077 129.649Z" fill="#525B61"/>
<g style="mix-blend-mode:multiply" opacity="0.2">
<path d="M212.077 129.649C212.009 131.614 211.225 133.487 209.874 134.914C208.347 136.469 205.465 137.189 202.212 137.073C198.958 136.958 195.135 136.201 190.586 135.511L190.501 134.252C190.651 134.233 190.804 134.247 190.948 134.292C199.356 135.485 204.724 137.379 208.736 134.341C210.434 133.056 210.717 129.781 210.713 129.717C210.677 129.539 210.713 129.353 210.813 129.201C210.911 129.048 211.065 128.939 211.243 128.897C211.349 128.881 211.457 128.89 211.559 128.921C211.662 128.952 211.756 129.005 211.836 129.077C211.916 129.149 211.978 129.237 212.02 129.336C212.062 129.435 212.081 129.542 212.077 129.649Z" fill="#525B61"/>
</g>
<g opacity="0.33">
<path opacity="0.33" d="M194.565 145.016C193.742 145.388 192.871 145.644 191.978 145.775L191.201 145.874L190.423 145.879C189.52 145.869 188.623 145.732 187.758 145.473C186.857 145.205 185.841 145.841 186.094 146.814C186.346 147.786 187.796 148.913 189.247 149.36C190.668 149.803 192.202 149.7 193.55 149.071C194.929 148.434 196.193 147.138 196.341 146.127C196.49 145.116 195.405 144.632 194.565 145.016Z" fill="#535C62"/>
</g>
<path d="M184.533 144.219C185.561 144.748 186.653 145.141 187.782 145.388C190.031 145.874 192.373 145.691 194.518 144.86C195.597 144.449 196.616 143.894 197.548 143.211C196.719 144.048 195.741 144.723 194.664 145.202C192.476 146.209 190.001 146.402 187.683 145.746C186.549 145.434 185.481 144.916 184.533 144.219Z" fill="#535C62"/>
<path d="M197.162 140.161C195.229 140.121 193.643 140.017 192.339 140.444C191.859 140.598 191.363 140.692 190.86 140.724L191.053 143.598C193.749 143.418 195.998 141.809 197.724 140.171C197.501 140.15 197.391 140.169 197.162 140.161Z" fill="#D24A60"/>
<g style="mix-blend-mode:multiply" opacity="0.3">
<path d="M197.162 140.161C195.229 140.121 193.643 140.017 192.338 140.444C191.859 140.598 191.362 140.692 190.86 140.725L191.053 143.599C193.748 143.418 195.997 141.809 197.724 140.171C197.5 140.15 197.39 140.17 197.162 140.161Z" fill="#D24A60"/>
</g>
<path d="M190.838 140.726L191.031 143.6C188.346 143.78 185.967 142.575 183.978 141.092C184.186 141.043 184.322 141.069 184.558 141.007C186.468 140.709 188.025 140.393 189.382 140.642C189.862 140.728 190.351 140.756 190.838 140.726Z" fill="#D24A60"/>
<g opacity="0.5">
<path opacity="0.5" d="M163.926 113.139C165.386 113.042 166.784 112.514 167.944 111.622C169.104 110.729 169.973 109.513 170.442 108.126C170.911 106.738 170.958 105.243 170.578 103.829C170.198 102.415 169.407 101.146 168.307 100.181C167.206 99.217 165.844 98.6012 164.393 98.4119C162.943 98.2226 161.468 98.4682 160.157 99.1177C158.846 99.7672 157.757 100.791 157.027 102.061C156.298 103.33 155.961 104.787 156.059 106.248C156.123 107.218 156.377 108.166 156.807 109.037C157.238 109.908 157.835 110.686 158.566 111.326C159.297 111.966 160.146 112.455 161.066 112.767C161.986 113.078 162.958 113.204 163.926 113.139Z" fill="#525B61"/>
</g>
<path d="M163.891 112.604C165.244 112.514 166.541 112.025 167.616 111.197C168.692 110.37 169.498 109.241 169.932 107.955C170.367 106.668 170.411 105.282 170.058 103.97C169.706 102.658 168.972 101.481 167.951 100.586C166.93 99.6915 165.668 99.1202 164.322 98.9444C162.977 98.7685 161.61 98.9961 160.395 99.5983C159.179 100.201 158.169 101.15 157.493 102.327C156.816 103.505 156.504 104.856 156.595 106.212C156.654 107.111 156.891 107.99 157.29 108.798C157.689 109.606 158.243 110.328 158.92 110.921C159.598 111.515 160.386 111.969 161.238 112.258C162.091 112.547 162.993 112.664 163.891 112.604Z" fill="#525B61"/>
<path d="M166.156 105.148C166.401 105.133 166.635 105.046 166.83 104.897C167.025 104.748 167.171 104.545 167.25 104.313C167.329 104.081 167.338 103.83 167.275 103.593C167.212 103.356 167.08 103.143 166.896 102.981C166.711 102.82 166.484 102.716 166.241 102.684C165.998 102.652 165.751 102.693 165.531 102.801C165.312 102.91 165.129 103.081 165.007 103.293C164.885 103.506 164.828 103.75 164.845 103.995C164.867 104.322 165.017 104.626 165.263 104.843C165.509 105.059 165.83 105.169 166.156 105.148Z" fill="#E6F4FD"/>
<path d="M163.967 102.337C164.121 102.328 164.268 102.273 164.391 102.18C164.513 102.087 164.605 101.96 164.655 101.814C164.705 101.669 164.711 101.511 164.672 101.363C164.632 101.214 164.55 101.08 164.434 100.978C164.319 100.876 164.176 100.811 164.023 100.791C163.871 100.771 163.716 100.796 163.578 100.864C163.44 100.932 163.326 101.04 163.249 101.173C163.172 101.306 163.136 101.46 163.147 101.613C163.162 101.817 163.256 102.007 163.41 102.143C163.563 102.278 163.763 102.348 163.967 102.337Z" fill="#E6F4FD"/>
<path d="M169.473 94.3524C169.473 94.3524 165.973 91.6244 162.045 91.3902C158.117 91.1559 155.042 91.6138 153.87 92.6175C152.697 93.6212 152.725 94.2165 153.155 94.422C153.584 94.6274 154.562 94.2222 154.988 94.0297C155.317 93.8788 155.885 93.2845 160.337 93.2143C166.237 93.1173 168.684 95.5821 169.176 95.1627C169.668 94.7433 169.473 94.3524 169.473 94.3524Z" fill="#525B61"/>
<path opacity="0.5" d="M220.695 101.913C220.596 100.453 220.066 99.0547 219.173 97.8956C218.28 96.7365 217.064 95.8686 215.679 95.4017C214.293 94.9349 212.801 94.89 211.39 95.2727C209.979 95.6555 208.713 96.4488 207.753 97.5521C206.793 98.6554 206.181 100.019 205.995 101.471C205.81 102.923 206.058 104.397 206.71 105.708C207.361 107.018 208.386 108.106 209.654 108.833C210.923 109.561 212.379 109.895 213.837 109.793C215.79 109.658 217.609 108.752 218.895 107.274C220.18 105.797 220.828 103.869 220.695 101.913Z" fill="#525B61"/>
<path d="M220.159 101.949C220.067 100.595 219.576 99.2983 218.748 98.2235C217.919 97.1487 216.791 96.3439 215.507 95.9111C214.222 95.4782 212.837 95.4367 211.529 95.7918C210.221 96.1469 209.047 96.8827 208.157 97.906C207.267 98.9293 206.7 100.194 206.527 101.54C206.355 102.887 206.586 104.254 207.19 105.469C207.794 106.684 208.745 107.693 209.922 108.367C211.098 109.042 212.448 109.351 213.801 109.257C215.611 109.131 217.298 108.291 218.49 106.921C219.682 105.55 220.282 103.762 220.159 101.949Z" fill="#525B61"/>
<g style="mix-blend-mode:multiply" opacity="0.2">
<path d="M220.16 101.949C220.067 100.595 219.576 99.2981 218.748 98.2233C217.92 97.1485 216.792 96.3437 215.507 95.9109C214.222 95.478 212.838 95.4365 211.53 95.7917C210.221 96.1468 209.048 96.8825 208.157 97.9058C207.267 98.9291 206.7 100.194 206.528 101.54C206.356 102.887 206.587 104.254 207.191 105.469C207.795 106.684 208.746 107.693 209.922 108.367C211.099 109.041 212.449 109.351 213.801 109.257C215.612 109.131 217.298 108.29 218.49 106.92C219.683 105.55 220.283 103.762 220.16 101.949Z" fill="#525B61"/>
</g>
<path d="M211.675 100.854C211.658 100.611 211.569 100.379 211.42 100.186C211.27 99.994 211.067 99.8501 210.837 99.7729C210.606 99.6958 210.357 99.6888 210.123 99.7528C209.888 99.8169 209.678 99.9492 209.518 100.133C209.358 100.317 209.256 100.544 209.226 100.785C209.195 101.027 209.236 101.272 209.344 101.491C209.452 101.709 209.623 101.89 209.834 102.011C210.045 102.133 210.287 102.189 210.53 102.173C210.691 102.162 210.85 102.119 210.995 102.047C211.14 101.975 211.27 101.874 211.376 101.752C211.483 101.629 211.564 101.487 211.615 101.333C211.666 101.179 211.687 101.016 211.675 100.854Z" fill="#E6F4FD"/>
<path d="M213.061 98.2483C213.051 98.095 212.996 97.9481 212.902 97.8263C212.808 97.7044 212.681 97.6132 212.535 97.564C212.39 97.5147 212.233 97.5098 212.085 97.5498C211.937 97.5898 211.804 97.6729 211.703 97.7886C211.601 97.9044 211.537 98.0475 211.517 98.1999C211.497 98.3523 211.523 98.5072 211.591 98.645C211.66 98.7828 211.767 98.8972 211.9 98.9739C212.033 99.0505 212.186 99.086 212.339 99.0757C212.544 99.0605 212.734 98.9651 212.87 98.8103C213.005 98.6555 213.074 98.4536 213.061 98.2483Z" fill="#E6F4FD"/>
<path d="M206.213 92.6731C206.779 93.0156 208.851 90.2537 214.718 89.5617C219.133 89.0373 219.776 89.5504 220.122 89.656C220.576 89.7896 221.595 90.0842 221.992 89.8C222.388 89.5158 222.359 88.9205 221.042 88.1072C219.724 87.2939 216.637 87.2315 212.775 87.9823C208.913 88.7331 205.811 91.9154 205.811 91.9154C205.811 91.9154 205.646 92.3305 206.213 92.6731Z" fill="#525B61"/>
<g style="mix-blend-mode:multiply" opacity="0.2">
<path d="M206.213 92.6729C206.78 93.0154 208.852 90.2535 214.718 89.5615C219.134 89.0371 219.776 89.5502 220.123 89.6558C220.576 89.7894 221.596 90.084 221.992 89.7998C222.388 89.5156 222.36 88.9203 221.042 88.107C219.724 87.2937 216.638 87.2314 212.776 87.9821C208.914 88.7329 205.811 91.9152 205.811 91.9152C205.811 91.9152 205.646 92.3303 206.213 92.6729Z" fill="#525B61"/>
</g>
</svg>
