<svg width="15" height="15" viewBox="0 0 15 15" fill="none" xmlns="http://www.w3.org/2000/svg">
<path d="M0.9375 6.56245H12.0563L8.65312 2.47495C8.49399 2.2835 8.41744 2.03667 8.44029 1.78877C8.46315 1.54088 8.58355 1.31221 8.775 1.15308C8.96645 0.993948 9.21328 0.91739 9.46118 0.940246C9.70908 0.963102 9.93775 1.0835 10.0969 1.27495L14.7844 6.89995C14.8159 6.94469 14.8441 6.9917 14.8688 7.04058C14.8688 7.08745 14.8687 7.11558 14.9344 7.16245C14.9769 7.26995 14.9991 7.38437 15 7.49995C14.9991 7.61554 14.9769 7.72996 14.9344 7.83745C14.9344 7.88433 14.9344 7.91245 14.8688 7.95933C14.8441 8.00821 14.8159 8.05521 14.7844 8.09995L10.0969 13.725C10.0087 13.8308 9.89835 13.9159 9.77358 13.9742C9.64882 14.0326 9.51273 14.0627 9.375 14.0625C9.15595 14.0629 8.94367 13.9866 8.775 13.8468C8.68007 13.7681 8.6016 13.6715 8.54408 13.5624C8.48656 13.4533 8.45113 13.334 8.43981 13.2112C8.42849 13.0884 8.4415 12.9646 8.47811 12.8468C8.51471 12.7291 8.57419 12.6197 8.65312 12.525L12.0563 8.43745H0.9375C0.68886 8.43745 0.450402 8.33868 0.274587 8.16287C0.0987711 7.98705 0 7.74859 0 7.49995C0 7.25131 0.0987711 7.01286 0.274587 6.83704C0.450402 6.66122 0.68886 6.56245 0.9375 6.56245Z" fill="url(#paint0_linear)"/>
<defs>
<linearGradient id="paint0_linear" x1="20.4878" y1="0.936279" x2="-0.670732" y2="0.936279" gradientUnits="userSpaceOnUse">
<stop stop-color="#91BD40"/>
<stop offset="1" stop-color="#98DA20"/>
</linearGradient>
</defs>
</svg>
