<svg width="239" height="49" viewBox="0 0 239 49" fill="none" xmlns="http://www.w3.org/2000/svg">
<path d="M20.3907 43.1661C9.12207 43.1921 0.106522 33.6969 0.000858433 21.6884C-0.101554 9.84622 8.97252 0.124099 20.2444 0.00112187C31.3114 -0.120123 40.4912 9.602 40.5188 21.4788C40.5448 33.5358 31.6366 43.1384 20.3907 43.1661ZM14.5516 26.843C14.02 26.8153 13.5193 26.8015 13.0202 26.7564C10.681 26.5469 8.88148 24.6069 8.63114 22.04C8.40681 19.7121 9.85359 17.2647 12.0108 16.7087C13.2966 16.3779 14.6686 16.4333 16.1121 16.3051V17.9211C16.1121 22.7709 16.0959 27.6311 16.1268 32.4861C16.1414 34.575 17.2517 35.7771 19.126 35.8429C19.1941 35.7089 19.2408 35.5637 19.2642 35.4133C19.2739 28.2339 19.2853 21.0562 19.2414 13.8785C19.2414 13.5996 18.7033 13.0973 18.4026 13.0852C16.6144 13.0142 14.8182 12.9709 13.0381 13.0852C11.0935 13.2116 9.25751 14.0834 7.86905 15.5396C6.48059 16.9958 5.63343 18.938 5.48399 21.0077C5.1865 25.1162 7.86224 28.9752 11.6743 29.9487C14.5239 30.6727 15.0018 30.2189 14.654 27.1115C14.6273 27.019 14.593 26.9292 14.5516 26.843ZM21.3791 7.41959V30.1097C23.6012 30.1097 25.7942 30.3314 27.9237 30.0335C29.4129 29.7899 30.8268 29.1738 32.0495 28.2356C34.8634 26.0861 35.8111 22.0556 34.5838 18.6382C33.3418 15.1741 30.1475 12.8825 26.763 13.0835C26.4379 13.1025 25.908 13.4455 25.8738 13.6984C25.7617 14.5401 25.8316 15.4096 25.8316 16.3328C26.4428 16.3744 26.9028 16.3883 27.3612 16.4368C30.5913 16.7832 32.6509 19.8732 31.7325 23.0862C30.8758 26.0619 28.3854 27.4475 24.4628 26.5382V25.0677C24.4628 20.2941 24.4124 15.5205 24.4888 10.7486C24.5165 9.06679 22.9981 7.05932 21.3791 7.41959Z" fill="#2E9E48"/>
<path d="M140.005 22.8716C140.28 22.8006 140.374 22.8075 140.417 22.7607C144.547 18.1829 152.857 20.6563 154.059 28.5337C155.006 34.7501 151.038 40.2078 145.484 40.2234C143.244 40.2234 141.447 39.2257 139.906 37.2287C139.856 38.1449 139.818 38.8585 139.776 39.6362H135.27V10.7627H140.005V22.8716ZM139.901 30.4269C139.924 33.4822 141.994 35.8378 144.625 35.7963C147.257 35.7547 149.227 33.3904 149.229 30.2883C149.231 27.1862 147.243 24.8427 144.593 24.8288C141.998 24.8236 139.874 27.3542 139.901 30.4269Z" fill="#27211F"/>
<path d="M60.2734 37.4816C57.3977 40.3066 54.3773 41.0081 51.0985 39.4336C47.7807 37.8401 46.3307 34.8124 46.1323 31.0728C45.83 25.3482 49.2047 20.921 54.0522 20.5365C56.198 20.3632 58.0333 21.0665 59.6085 22.6011L60.4067 23.391V21.1392H65.0396V48.8337H60.2734V37.4816ZM60.4148 30.3678C60.4148 27.3436 58.3405 24.8702 55.7835 24.8355C53.1012 24.8009 51.0562 27.2016 51.0839 30.354C51.1099 33.4475 53.1175 35.7945 55.7445 35.8032C58.3714 35.8118 60.418 33.4198 60.4099 30.3678H60.4148Z" fill="#27211F"/>
<path d="M217.554 39.7089C215.414 39.7089 213.552 39.7522 211.702 39.6726C211.335 39.657 210.889 39.2482 210.641 38.8966C208.7 36.198 206.796 33.4682 204.681 30.4648V39.631H199.839V10.8403H204.595V28.8904C205.471 27.8147 206.118 27.0249 206.762 26.2281C207.957 24.7507 209.109 23.2316 210.366 21.8165C210.789 21.382 211.341 21.118 211.927 21.07C213.585 20.9747 215.249 21.0354 217.198 21.0354L210.046 29.5018L217.554 39.7089Z" fill="#27211F"/>
<path d="M116.057 10.8198H120.72V28.7781C121.11 28.4005 121.334 28.2255 121.511 28.0073C123.164 25.9669 124.829 23.9352 126.448 21.8636C126.91 21.2712 127.376 20.9872 128.124 21.0149C129.781 21.079 131.44 21.0357 133.385 21.0357L126.232 29.5021L133.749 39.7023C131.577 39.7023 129.621 39.7352 127.671 39.6677C127.381 39.6573 127.053 39.2243 126.833 38.916C124.883 36.181 122.961 33.4322 120.819 30.3837V39.6382H116.057V10.8198Z" fill="#27211F"/>
<path d="M187.164 40.265C181.65 40.2806 177.636 36.0994 177.613 30.3213C177.591 24.6592 181.624 20.5092 187.143 20.5161C192.662 20.5231 196.659 24.6731 196.636 30.3559C196.613 36.0388 192.601 40.2494 187.164 40.265ZM187.089 35.8032C189.768 35.824 191.641 33.6226 191.714 30.394C191.776 27.2001 189.805 24.822 187.107 24.8359C184.434 24.8515 182.542 27.1256 182.555 30.3126C182.558 33.5377 184.415 35.7824 187.089 35.8032Z" fill="#27211F"/>
<path d="M165.901 40.2649C160.374 40.2649 156.383 36.0837 156.388 30.2985C156.388 24.5999 160.392 20.4966 165.919 20.5157C171.384 20.533 175.374 24.6363 175.388 30.2517C175.403 36.0213 171.386 40.2649 165.901 40.2649ZM161.32 30.5462C161.337 30.9533 161.381 31.3586 161.454 31.7586C161.889 33.7003 162.856 35.202 164.778 35.6645C166.478 36.075 168.029 35.6957 169.217 34.2165C170.833 32.1899 170.937 28.634 169.313 26.6144C168.71 25.8703 167.921 25.3242 167.038 25.0399C163.892 24.1357 161.327 26.552 161.32 30.5462Z" fill="#27211F"/>
<path d="M80.7961 21.0942H85.5803V39.6066H81.0546V37.2545L80.7864 37.0553C80.5068 37.4208 80.2532 37.8139 79.9443 38.1482C78.1399 40.1037 75.9811 40.6961 73.5281 39.8942C71.1222 39.1095 69.573 37.2389 69.4348 34.6841C69.1942 30.1963 69.3682 25.6773 69.3682 21.1064H74.0158C74.0158 24.141 74.0044 27.1132 74.0239 30.0854C74.0227 31.0375 74.0737 31.9889 74.1767 32.9347C74.323 34.1991 74.8269 35.292 76.0656 35.6592C76.6852 35.8646 77.3472 35.8757 77.9726 35.6915C78.598 35.5072 79.1606 35.1353 79.5932 34.62C80.4726 33.6396 80.8108 32.4359 80.8059 31.097C80.8059 28.1957 80.8059 25.2928 80.8059 22.3916L80.7961 21.0942Z" fill="#27211F"/>
<path d="M217.538 37.2026L220.282 34.3395C221.485 34.9578 222.581 35.7009 223.779 36.0716C224.533 36.3054 225.495 36.153 226.256 35.8568C226.713 35.6836 227.217 34.8955 227.232 34.3724C227.246 33.8493 226.757 33.1478 226.303 32.8707C225.578 32.429 224.699 32.2748 223.886 32.0046C222.997 31.7032 222.074 31.485 221.227 31.0849C218.219 29.6646 217.41 25.8159 219.508 23.0896C222.221 19.5613 229.408 19.6687 232.025 23.2143L229.667 25.9978C228.384 25.4296 227.293 24.7853 226.126 24.4891C225.435 24.3159 224.572 24.5237 223.884 24.8199C223.48 24.9931 223.033 25.6704 223.033 26.1225C223.033 26.5745 223.494 27.1842 223.904 27.3938C224.699 27.8026 225.604 27.9602 226.453 28.2599C227.412 28.5941 228.404 28.8817 229.303 29.3389C230.993 30.1929 232.118 31.5681 232.193 33.657C232.273 35.8862 231.515 37.7118 229.709 38.9503C226.284 41.2938 220.412 40.4918 217.538 37.2026Z" fill="#27211F"/>
<path d="M113.384 23.1989L110.356 26.4084C110.062 26.1798 109.767 25.92 109.447 25.7156C106.928 24.0614 103.987 25.0227 103.073 27.9967C102.677 29.3323 102.614 30.7547 102.89 32.1242C103.649 35.6455 107.02 36.9013 109.85 34.8869C110.073 34.7275 110.281 34.5405 110.551 34.3326C111.294 35.1727 112.014 35.9816 112.723 36.7939C112.981 37.0918 113.232 37.3984 113.477 37.6911C110.601 41.1327 103.789 41.0773 100.329 37.6443C96.7107 34.0555 96.5628 27.3229 100.016 23.4812C103.468 19.6395 109.912 19.4801 113.384 23.1989Z" fill="#27211F"/>
<path d="M94.3849 21.1118V39.659H89.7031V21.1118H94.3849Z" fill="#27211F"/>
<path d="M79.3141 15.5589H77.3715C77.313 15.2124 77.2544 14.866 77.191 14.4954C77.0838 14.5358 76.9834 14.5943 76.8935 14.6686C75.858 15.8897 74.5884 16.1634 73.1839 15.6074C71.7794 15.0514 71.2332 13.7627 71.2007 12.261C71.1503 10.2778 71.1877 8.29108 71.1877 6.19873H73.4261C73.4261 7.64675 73.4261 9.12247 73.4261 10.5982C73.4261 11.052 73.4261 11.511 73.4651 11.9631C73.5578 12.94 73.8602 13.754 74.9493 13.8493C75.9686 13.9376 76.8643 13.2898 77.0236 12.1172C77.1829 10.9446 77.1309 9.72523 77.1569 8.52664C77.1715 7.78358 77.1569 7.04052 77.1569 6.19873H79.3108L79.3141 15.5589Z" fill="#27211F"/>
<path d="M61.3106 15.524H59.0445C59.0445 14.0655 59.0445 12.6677 59.0445 11.2682C59.06 10.7297 59.047 10.1908 59.0055 9.65386C58.9031 8.73065 58.591 7.92175 57.575 7.82995C56.559 7.73815 55.7982 8.24739 55.5283 9.27972C55.3333 10.0211 55.3349 10.83 55.317 11.6111C55.2845 12.886 55.3073 14.1625 55.3073 15.5118H53.1777V6.17752H55.1285C55.1772 6.52394 55.226 6.85824 55.291 7.32938C56.4452 5.86748 57.7912 5.44311 59.329 6.09958C60.901 6.7699 61.2684 8.25259 61.2944 9.86518C61.3334 11.722 61.3106 13.5788 61.3106 15.524Z" fill="#27211F"/>
<path d="M64.903 8.26305L62.4548 8.14527V6.16211H69.5359V8.18165H67.2016V15.496H64.903V8.26305Z" fill="#27211F"/>
<path d="M85.4944 8.15403V6.15869H92.6324V8.14537L90.207 8.25795V15.5066H88.0189V8.27354L85.4944 8.15403Z" fill="#27211F"/>
<path d="M48.6404 6.15527H50.7537V15.479H48.6404V6.15527Z" fill="#27211F"/>
<path d="M83.8409 6.1709V15.4962H81.7439V6.17783L83.8409 6.1709Z" fill="#27211F"/>
<path d="M238.511 37.5957C238.496 38.158 238.278 38.6924 237.903 39.0885C237.528 39.4846 237.025 39.7123 236.497 39.7245C235.966 39.7245 235.457 39.4997 235.081 39.0995C234.706 38.6993 234.495 38.1565 234.495 37.5905C234.495 37.0245 234.706 36.4818 235.081 36.0816C235.457 35.6814 235.966 35.4565 236.497 35.4565C237.026 35.4713 237.529 35.7013 237.904 36.0991C238.278 36.4969 238.496 37.0324 238.511 37.5957ZM236.501 35.8099C236.055 35.8014 235.624 35.9819 235.303 36.3118C234.982 36.6417 234.798 37.0939 234.79 37.5689C234.782 38.0439 234.951 38.5028 235.261 38.8447C235.57 39.1866 235.995 39.3834 236.44 39.3919C236.886 39.4004 237.317 39.2199 237.638 38.89C237.959 38.5601 238.143 38.108 238.151 37.6329C238.159 37.1579 237.99 36.699 237.68 36.3571C237.371 36.0152 236.946 35.8184 236.501 35.8099Z" fill="#27211F"/>
<path d="M14.5519 26.843C14.592 26.9275 14.6252 27.0156 14.6511 27.1062C14.9989 30.2136 14.521 30.6674 11.6713 29.9434C7.8593 28.9769 5.18357 25.1109 5.48106 21.0024C5.6305 18.9327 6.47766 16.9905 7.86612 15.5343C9.25459 14.0782 11.0906 13.2064 13.0352 13.0799C14.8234 12.9726 16.6115 13.0159 18.3997 13.0799C18.7004 13.0921 19.2369 13.5996 19.2385 13.8732C19.2824 21.0509 19.271 28.2286 19.2612 35.408C19.2379 35.5584 19.1912 35.7036 19.1231 35.8376C17.2488 35.777 16.1385 34.5697 16.1238 32.4808C16.093 27.631 16.1108 22.7709 16.1092 17.9159V16.2981C14.6657 16.4263 13.2937 16.3709 12.0078 16.7017C9.85066 17.2577 8.40388 19.7051 8.62821 22.033C8.8753 24.5999 10.6748 26.5364 13.0173 26.7494C13.5196 26.8014 14.0203 26.8152 14.5519 26.843Z" fill="white"/>
<path d="M21.3792 7.41983C23.0047 7.05955 24.5166 9.06703 24.4889 10.7489C24.4125 15.5207 24.4629 20.2943 24.4629 25.0679V26.5385C28.3871 27.4495 30.8759 26.0691 31.7326 23.0743C32.651 19.8613 30.5947 16.7678 27.3613 16.4249C26.9029 16.3764 26.4429 16.3625 25.8317 16.321C25.8317 15.3978 25.7618 14.5283 25.8739 13.6865C25.9081 13.4336 26.4429 13.0906 26.7631 13.0716C30.1476 12.8707 33.3419 15.1639 34.5839 18.6263C35.8112 22.0437 34.8635 26.0743 32.0496 28.2238C30.8269 29.1619 29.413 29.778 27.9238 30.0217C25.7943 30.3196 23.6013 30.0979 21.3792 30.0979V7.41983Z" fill="white"/>
<path d="M66.1144 5.04927C66.7288 5.04927 67.2268 4.5186 67.2268 3.86399C67.2268 3.20938 66.7288 2.67871 66.1144 2.67871C65.5 2.67871 65.002 3.20938 65.002 3.86399C65.002 4.5186 65.5 5.04927 66.1144 5.04927Z" fill="#27211F"/>
<path d="M89.1039 5.04927C89.7183 5.04927 90.2163 4.5186 90.2163 3.86399C90.2163 3.20938 89.7183 2.67871 89.1039 2.67871C88.4895 2.67871 87.9915 3.20938 87.9915 3.86399C87.9915 4.5186 88.4895 5.04927 89.1039 5.04927Z" fill="#27211F"/>
<path d="M235.99 36.7004H236.207V38.5735H235.99V36.7004ZM236.085 37.5304H236.609C236.647 37.5314 236.685 37.5192 236.717 37.4957C236.75 37.4691 236.775 37.4338 236.791 37.3935C236.808 37.3448 236.817 37.2931 236.817 37.241C236.817 37.1889 236.808 37.1371 236.791 37.0885C236.776 37.0474 236.75 37.0115 236.717 36.9845C236.685 36.9615 236.647 36.9494 236.609 36.9499H236.085V36.7004H236.6C236.682 36.698 236.763 36.7208 236.833 36.7662C236.904 36.8104 236.961 36.8769 236.996 36.9568C237.032 37.0462 237.051 37.1426 237.051 37.2401C237.051 37.3376 237.032 37.434 236.996 37.5234C236.96 37.6025 236.903 37.6688 236.833 37.714C236.763 37.7598 236.682 37.7832 236.6 37.7816H236.085V37.5304ZM236.503 37.7227L236.717 37.6638L237.109 38.5735H236.854L236.503 37.7227Z" fill="#27211F"/>
</svg>
