<svg width="180" height="37" viewBox="0 0 180 37" fill="none" xmlns="http://www.w3.org/2000/svg">
<path d="M15.3801 32.5588C6.88049 32.5784 0.0803463 25.4165 0.000647489 16.3589C-0.076599 7.4267 6.76769 0.093604 15.2697 0.000846195C23.6172 -0.0906052 30.5412 7.24249 30.5621 16.2008C30.5817 25.295 23.8625 32.5379 15.3801 32.5588ZM10.9758 20.2469C10.5748 20.226 10.1972 20.2155 9.82077 20.1816C8.05636 20.0235 6.69903 18.5602 6.5102 16.6241C6.341 14.8682 7.43225 13.0222 9.05933 12.6028C10.0292 12.3533 11.0641 12.3951 12.1529 12.2984V13.5174C12.1529 17.1754 12.1406 20.8413 12.1639 24.5033C12.1749 26.0789 13.0124 26.9855 14.4261 27.0352C14.4775 26.9341 14.5127 26.8246 14.5304 26.7112C14.5377 21.296 14.5463 15.882 14.5132 10.4681C14.5132 10.2578 14.1073 9.8789 13.8805 9.86976C12.5318 9.81619 11.1769 9.78353 9.83425 9.86976C8.3675 9.96513 6.98265 10.6227 5.93538 11.721C4.88811 12.8194 4.24912 14.2843 4.1364 15.8455C3.91202 18.9443 5.93024 21.8551 8.80553 22.5893C10.9549 23.1354 11.3154 22.7931 11.053 20.4494C11.0329 20.3796 11.0071 20.3118 10.9758 20.2469ZM16.1256 5.59636V22.7108C17.8017 22.7108 19.4557 22.8781 21.062 22.6534C22.1853 22.4696 23.2517 22.0049 24.1739 21.2973C26.2964 19.676 27.0112 16.6359 26.0855 14.0582C25.1487 11.4453 22.7393 9.7169 20.1865 9.86845C19.9413 9.88282 19.5416 10.1415 19.5158 10.3322C19.4312 10.9672 19.4839 11.623 19.4839 12.3193C19.945 12.3507 20.292 12.3612 20.6377 12.3977C23.0741 12.659 24.6276 14.9897 23.9348 17.4132C23.2886 19.6577 21.4102 20.7028 18.4515 20.0169V18.9078C18.4515 15.3072 18.4135 11.7066 18.4712 8.10736C18.492 6.8388 17.3468 5.32462 16.1256 5.59636Z" fill="#2E9E48"/>
<path d="M105.602 17.2515C105.809 17.198 105.88 17.2032 105.912 17.1679C109.028 13.715 115.296 15.5806 116.202 21.5223C116.917 26.2111 113.924 30.3277 109.734 30.3395C108.044 30.3395 106.689 29.587 105.527 28.0806C105.489 28.7717 105.461 29.31 105.429 29.8966H102.03V8.11816H105.602V17.2515ZM105.523 22.9502C105.54 25.2548 107.101 27.0316 109.086 27.0002C111.072 26.9688 112.558 25.1855 112.559 22.8457C112.56 20.5059 111.061 18.7382 109.062 18.7278C107.105 18.7239 105.502 20.6326 105.523 22.9502Z" fill="#27211F"/>
<path d="M45.4624 28.2713C43.2934 30.4021 41.0152 30.9312 38.5421 29.7437C36.0396 28.5417 34.9459 26.258 34.7963 23.4373C34.5682 19.1195 37.1137 15.7801 40.77 15.4901C42.3885 15.3595 43.7728 15.8899 44.9609 17.0474L45.563 17.6432V15.9448H49.0574V36.8338H45.4624V28.2713ZM45.5691 22.9056C45.5691 20.6245 44.0045 18.7589 42.0758 18.7327C40.0527 18.7066 38.5102 20.5174 38.5311 22.8952C38.5507 25.2285 40.065 26.9988 42.0464 27.0053C44.0278 27.0118 45.5716 25.2076 45.5654 22.9056H45.5691Z" fill="#27211F"/>
<path d="M164.095 29.9512C162.48 29.9512 161.076 29.9839 159.681 29.9238C159.403 29.912 159.067 29.6037 158.88 29.3385C157.416 27.303 155.98 25.244 154.385 22.9787V29.8924H150.732V8.17651H154.32V21.7911C154.981 20.9798 155.469 20.384 155.954 19.7831C156.856 18.6687 157.725 17.5229 158.673 16.4555C158.992 16.1278 159.408 15.9287 159.85 15.8924C161.1 15.8206 162.356 15.8663 163.826 15.8663L158.431 22.2523L164.095 29.9512Z" fill="#27211F"/>
<path d="M87.5385 8.16101H91.055V21.7064C91.3493 21.4215 91.5185 21.2896 91.6521 21.125C92.8991 19.586 94.1547 18.0535 95.3759 16.491C95.7241 16.0442 96.076 15.8299 96.6401 15.8508C97.8895 15.8992 99.1414 15.8665 100.608 15.8665L95.2128 22.2525L100.883 29.9462C99.2444 29.9462 97.7693 29.971 96.298 29.92C96.0797 29.9122 95.832 29.5856 95.6665 29.353C94.1952 27.2902 92.7459 25.2168 91.1298 22.9174V29.8978H87.5385V8.16101Z" fill="#27211F"/>
<path d="M141.172 30.3706C137.013 30.3823 133.985 27.2286 133.968 22.8703C133.951 18.5996 136.993 15.4694 141.156 15.4746C145.319 15.4798 148.334 18.6101 148.316 22.8965C148.299 27.1829 145.273 30.3588 141.172 30.3706ZM141.115 27.0052C143.136 27.0209 144.549 25.3604 144.604 22.9252C144.65 20.5161 143.164 18.7224 141.129 18.7329C139.113 18.7446 137.686 20.46 137.696 22.8638C137.698 25.2964 139.098 26.9895 141.115 27.0052Z" fill="#27211F"/>
<path d="M125.134 30.3706C120.965 30.3706 117.955 27.2168 117.959 22.8533C117.959 18.555 120.979 15.46 125.148 15.4744C129.27 15.4875 132.279 18.5825 132.29 22.818C132.301 27.1698 129.271 30.3706 125.134 30.3706ZM121.679 23.0401C121.691 23.3472 121.725 23.6529 121.78 23.9546C122.108 25.4192 122.838 26.5519 124.287 26.9007C125.57 27.2103 126.739 26.9242 127.636 25.8085C128.854 24.2799 128.933 21.5978 127.708 20.0745C127.253 19.5132 126.658 19.1013 125.991 18.8869C123.619 18.2049 121.684 20.0274 121.679 23.0401Z" fill="#27211F"/>
<path d="M60.9418 15.9108H64.5504V29.8741H61.1368V28.0999L60.9345 27.9497C60.7236 28.2254 60.5323 28.5219 60.2994 28.7741C58.9383 30.249 57.31 30.6959 55.4598 30.091C53.6451 29.4991 52.4766 28.0882 52.3724 26.1612C52.1909 22.7762 52.3221 19.3676 52.3221 15.9199H55.8276C55.8276 18.2088 55.819 20.4507 55.8338 22.6925C55.8329 23.4107 55.8713 24.1283 55.949 24.8417C56.0594 25.7954 56.4395 26.6197 57.3738 26.8967C57.8411 27.0516 58.3404 27.06 58.8122 26.921C59.2839 26.782 59.7082 26.5015 60.0345 26.1128C60.6979 25.3734 60.9529 24.4654 60.9492 23.4555C60.9492 21.2672 60.9492 19.0776 60.9492 16.8893L60.9418 15.9108Z" fill="#27211F"/>
<path d="M164.082 28.0609L166.152 25.9013C167.059 26.3677 167.886 26.9282 168.789 27.2078C169.358 27.3842 170.084 27.2692 170.658 27.0458C171.002 26.9151 171.383 26.3207 171.394 25.9262C171.405 25.5316 171.036 25.0025 170.694 24.7935C170.147 24.4603 169.483 24.344 168.87 24.1402C168.2 23.9129 167.503 23.7483 166.864 23.4465C164.596 22.3752 163.985 19.4723 165.568 17.4159C167.615 14.7546 173.035 14.8356 175.01 17.51L173.23 19.6094C172.263 19.1809 171.44 18.6949 170.56 18.4715C170.039 18.3409 169.388 18.4976 168.869 18.721C168.564 18.8517 168.227 19.3625 168.227 19.7035C168.227 20.0445 168.575 20.5044 168.884 20.6624C169.483 20.9708 170.166 21.0897 170.806 21.3157C171.53 21.5678 172.278 21.7847 172.956 22.1296C174.231 22.7737 175.079 23.811 175.136 25.3866C175.196 27.068 174.624 28.445 173.262 29.3791C170.679 31.1468 166.25 30.5419 164.082 28.0609Z" fill="#27211F"/>
<path d="M85.5222 17.4982L83.238 19.919C83.016 19.7466 82.7941 19.5506 82.5525 19.3965C80.652 18.1488 78.434 18.8739 77.7449 21.1171C77.446 22.1244 77.3983 23.1973 77.6063 24.2303C78.1789 26.8863 80.7219 27.8335 82.8566 26.3141C83.0246 26.1939 83.1816 26.0528 83.3851 25.896C83.9454 26.5297 84.4886 27.1398 85.0232 27.7525C85.2182 27.9772 85.407 28.2084 85.5921 28.4292C83.4231 31.0251 78.2844 30.9833 75.6752 28.394C72.9458 25.687 72.8342 20.6088 75.4385 17.7111C78.0428 14.8134 82.9032 14.6933 85.5222 17.4982Z" fill="#27211F"/>
<path d="M71.1914 15.924V29.9135H67.6602V15.924H71.1914Z" fill="#27211F"/>
<path d="M59.8243 11.7353H58.359C58.3149 11.4741 58.2707 11.2128 58.2229 10.9332C58.142 10.9637 58.0663 11.0078 57.9985 11.0638C57.2175 11.9849 56.2599 12.1913 55.2005 11.7719C54.1411 11.3526 53.7291 10.3806 53.7046 9.24787C53.6666 7.75198 53.6948 6.25348 53.6948 4.67529H55.3832C55.3832 5.76749 55.3832 6.88058 55.3832 7.99368C55.3832 8.33597 55.3832 8.68218 55.4126 9.02316C55.4825 9.76 55.7105 10.374 56.5321 10.4459C57.3008 10.5125 57.9765 10.0239 58.0966 9.13943C58.2168 8.25497 58.1775 7.33522 58.1972 6.43116C58.2082 5.87069 58.1972 5.31023 58.1972 4.67529H59.8218L59.8243 11.7353Z" fill="#27211F"/>
<path d="M46.2447 11.7094H44.5355C44.5355 10.6093 44.5355 9.55501 44.5355 8.49938C44.5472 8.09324 44.5374 7.68671 44.5061 7.28175C44.4288 6.5854 44.1934 5.97528 43.4271 5.90604C42.6607 5.83679 42.0869 6.22089 41.8833 6.99955C41.7362 7.55872 41.7374 8.16885 41.7239 8.75806C41.6994 9.71963 41.7166 10.6825 41.7166 11.7002H40.1104V4.65966H41.5817C41.6185 4.92095 41.6553 5.1731 41.7043 5.52847C42.5749 4.4258 43.5901 4.10572 44.7501 4.60087C45.9357 5.10647 46.2129 6.22481 46.2325 7.44114C46.2619 8.84168 46.2447 10.2422 46.2447 11.7094Z" fill="#27211F"/>
<path d="M48.9544 6.23275L47.1078 6.14391V4.64807H52.4488V6.17134H50.6881V11.6883H48.9544V6.23275Z" fill="#27211F"/>
<path d="M64.4858 6.15029V4.64526H69.8698V6.14375L68.0404 6.22867V11.6961H66.39V6.24043L64.4858 6.15029Z" fill="#27211F"/>
<path d="M36.6879 4.64282H38.2818V11.6754H36.6879V4.64282Z" fill="#27211F"/>
<path d="M63.2386 4.65442V11.6882H61.6569V4.65964L63.2386 4.65442Z" fill="#27211F"/>
<path d="M179.902 28.3574C179.89 28.7815 179.726 29.1846 179.443 29.4834C179.16 29.7822 178.781 29.9539 178.383 29.9631C177.982 29.9631 177.598 29.7935 177.314 29.4916C177.031 29.1898 176.872 28.7804 176.872 28.3535C176.872 27.9266 177.031 27.5172 177.314 27.2153C177.598 26.9135 177.982 26.7439 178.383 26.7439C178.781 26.7551 179.161 26.9285 179.443 27.2285C179.726 27.5286 179.89 27.9325 179.902 28.3574ZM178.385 27.0104C178.049 27.004 177.724 27.1402 177.482 27.389C177.24 27.6378 177.1 27.9789 177.094 28.3372C177.088 28.6954 177.216 29.0416 177.45 29.2995C177.683 29.5573 178.003 29.7058 178.34 29.7122C178.676 29.7186 179.001 29.5825 179.243 29.3336C179.485 29.0848 179.624 28.7438 179.63 28.3855C179.636 28.0272 179.508 27.6811 179.275 27.4232C179.041 27.1653 178.721 27.0168 178.385 27.0104Z" fill="#27211F"/>
<path d="M10.9762 20.2469C11.0064 20.3107 11.0314 20.3771 11.051 20.4455C11.3134 22.7893 10.9529 23.1315 8.80346 22.5854C5.92816 21.8565 3.90994 18.9405 4.13433 15.8416C4.24705 14.2805 4.88603 12.8155 5.93331 11.7172C6.98058 10.6188 8.36543 9.96128 9.83219 9.8659C11.1809 9.7849 12.5297 9.81756 13.8784 9.8659C14.1053 9.87505 14.5099 10.2578 14.5111 10.4643C14.5442 15.8782 14.5357 21.2921 14.5283 26.7073C14.5107 26.8207 14.4754 26.9302 14.4241 27.0313C13.0103 26.9856 12.1729 26.075 12.1619 24.4994C12.1386 20.8413 12.152 17.1755 12.1508 13.5135V12.2933C11.062 12.39 10.0271 12.3481 9.05727 12.5977C7.43018 13.017 6.33892 14.8631 6.50813 16.6189C6.6945 18.5551 8.05184 20.0157 9.8187 20.1764C10.1976 20.2156 10.5752 20.226 10.9762 20.2469Z" fill="white"/>
<path d="M16.1257 5.59642C17.3519 5.32468 18.4922 6.83886 18.4713 8.10742C18.4137 11.7067 18.4517 15.3073 18.4517 18.9078V20.017C21.4116 20.7042 23.2888 19.663 23.935 17.4041C24.6278 14.9806 23.0767 12.6473 20.6379 12.3887C20.2921 12.3521 19.9452 12.3416 19.4841 12.3103C19.4841 11.6139 19.4314 10.9581 19.516 10.3232C19.5417 10.1324 19.9451 9.87374 20.1867 9.85937C22.7395 9.70782 25.1489 11.4376 26.0856 14.0492C27.0114 16.6268 26.2965 19.6669 24.1741 21.2882C23.2519 21.9958 22.1854 22.4605 21.0622 22.6443C19.4559 22.869 17.8019 22.7018 16.1257 22.7018V5.59642Z" fill="white"/>
<path d="M49.8686 3.80965C50.3322 3.80965 50.7081 3.40916 50.7081 2.91514C50.7081 2.42111 50.3322 2.02063 49.8686 2.02063C49.4049 2.02063 49.0291 2.42111 49.0291 2.91514C49.0291 3.40916 49.4049 3.80965 49.8686 3.80965Z" fill="#27211F"/>
<path d="M67.2087 3.80965C67.6723 3.80965 68.0482 3.40916 68.0482 2.91514C68.0482 2.42111 67.6723 2.02063 67.2087 2.02063C66.745 2.02063 66.3691 2.42111 66.3691 2.91514C66.3691 3.40916 66.745 3.80965 67.2087 3.80965Z" fill="#27211F"/>
<path d="M178 27.682H178.163V29.0956H178V27.682ZM178.071 28.3084H178.467C178.496 28.3092 178.525 28.3 178.549 28.2822C178.573 28.2622 178.592 28.2355 178.604 28.2051C178.617 28.1684 178.624 28.1293 178.624 28.09C178.624 28.0507 178.618 28.0116 178.604 27.9749C178.593 27.9439 178.574 27.9168 178.549 27.8965C178.525 27.8791 178.496 27.87 178.467 27.8703H178.071V27.682H178.461C178.522 27.6802 178.583 27.6974 178.636 27.7317C178.69 27.765 178.733 27.8153 178.759 27.8756C178.786 27.943 178.801 28.0158 178.801 28.0894C178.801 28.1629 178.786 28.2357 178.759 28.3032C178.732 28.3629 178.689 28.4129 178.636 28.447C178.583 28.4815 178.522 28.4992 178.461 28.498H178.071V28.3084ZM178.387 28.4536L178.549 28.4091L178.845 29.0956H178.652L178.387 28.4536Z" fill="#27211F"/>
</svg>
