<svg width="35" height="29" viewBox="0 0 35 29" fill="none" xmlns="http://www.w3.org/2000/svg">
<path d="M33.6323 0.982683C31.8533 -0.721588 29.2652 -0.0860314 27.5709 1.94286C25.8765 3.97176 22.3273 7.96085 18.9687 11.9674C17.3771 13.866 15.1759 16.0445 14.6676 16.6126C14.1593 17.1807 13.4943 17.7741 12.7123 18.5483C11.9303 19.3225 11.1483 18.9354 11.1483 18.9354L5.67419 14.2901C1.26898 9.90773 -2.45648 17.5385 2.03344 21.9209C4.32076 24.1932 6.69279 27.3583 9.74255 28.5756C12.7923 29.793 16.1809 28.251 18.3835 25.7352C23.5512 19.7297 28.5494 13.643 33.6323 7.63745C35.3266 5.60856 35.5808 2.93042 33.6323 0.982683Z" fill="white"/>
</svg>
