<svg width="271" height="280" viewBox="0 0 271 280" fill="none" xmlns="http://www.w3.org/2000/svg">
<path d="M14.0976 222.292L14.2465 222.574L14.3797 222.825C14.5876 223.183 14.818 223.529 15.0694 223.858C16.6345 225.996 18.5315 227.871 20.6886 229.411C21.8215 230.222 23.0412 230.905 24.3251 231.447C29.0638 233.362 34.0513 234.593 39.1374 235.104C42.9462 235.472 50.3367 231.776 52.6957 230.53L53.4402 230.131C53.4402 230.131 54.412 229.348 55.9559 227.985L58.6362 225.636C63.3954 221.518 67.9218 217.139 72.1946 212.519C78.574 205.26 71.4657 173.63 68.997 172.174C67.6255 171.391 65.1333 172.573 63.1896 173.81C62.2337 174.416 61.3126 175.075 60.431 175.784C60.431 175.784 57.3901 178.337 50.8931 184.703C48.8555 186.7 46.7316 188.666 44.788 190.42L43.824 191.281C40.023 194.68 37.1075 197.1 37.1075 197.1C37.1075 197.1 28.6042 196.99 21.9974 197.1C15.3907 197.209 13.3766 201.242 11.4721 207.961C9.85766 213.678 13.0709 220.413 14.0976 222.292Z" fill="#4D9BE2"/>
<path d="M144.775 160.466C145.292 165.329 145.621 170.215 145.872 175.094C146.217 182.053 146.517 189.018 146.773 195.987C147.024 202.652 146.946 209.3 144.939 215.714C144.754 216.328 144.43 216.89 143.991 217.358C144.9 236.153 145.159 255.01 143.764 273.828C143.764 277.164 143.646 280.497 143.411 283.828C146.527 300.233 146.879 317.042 144.454 333.563C144.426 335.789 144.184 338.008 143.733 340.188C144.516 346.366 145.347 352.514 146.029 358.598C146.052 358.812 146.052 359.027 146.029 359.241C145.997 359.758 145.837 360.259 145.563 360.699C145.289 361.139 144.911 361.504 144.461 361.762C144.375 361.872 144.281 361.982 144.187 362.083C143.935 362.344 143.651 362.57 143.341 362.757L143.56 363.015C143.925 363.479 144.191 364.012 144.344 364.581C144.99 365.146 145.522 365.829 145.911 366.594C146.412 367.496 146.545 368.555 146.284 369.553C146.022 370.55 145.387 371.409 144.508 371.95C144.033 372.208 143.511 372.37 142.973 372.425C142.435 372.48 141.891 372.428 141.374 372.271C140.823 372.544 140.209 372.663 139.597 372.616C138.985 372.569 138.396 372.358 137.894 372.005C137.745 371.911 137.596 371.817 137.447 371.708C135.491 370.448 133.609 369.075 131.812 367.596C129.315 366.026 126.997 364.188 124.9 362.115C124.378 362.022 123.88 361.824 123.437 361.533C122.994 361.242 122.614 360.865 122.321 360.423C119.476 356.335 116.663 352.216 114.084 347.972C112.778 345.826 111.537 343.646 110.362 341.433L110.182 341.143C109.766 340.981 109.387 340.738 109.066 340.429C108.744 340.12 108.487 339.75 108.308 339.342C107.154 336.977 105.981 334.615 104.79 332.255L104.743 332.177C104.198 331.868 103.732 331.44 103.379 330.924C99.6179 325.285 96.5448 319.217 94.2251 312.85C91.8739 306.695 88.9114 300.077 88.6136 293.437C88.5768 292.884 88.6624 292.331 88.8644 291.816C88.2139 286.89 87.9631 281.87 87.6575 276.937C87.1636 272.547 87.1636 268.116 87.6575 263.726C88.1819 246.206 90.8775 228.819 95.6828 211.963C95.3683 211.154 95.3683 210.257 95.6828 209.449C104.084 186.089 102.799 161.116 101.255 136.746V136.691C101.098 136.143 101.074 135.566 101.184 135.007C101.188 134.412 101.35 133.828 101.655 133.316C101.036 128.03 100.471 122.736 100.142 117.434C99.523 114.404 98.8803 111.373 98.2926 108.335H113.818C113.917 108.341 114.017 108.341 114.116 108.335V107.497C114.339 107.746 114.517 108.032 114.641 108.343C114.763 108.626 114.853 108.923 114.907 109.227C116.412 117.286 117.838 125.367 119.476 133.394C120.026 133.226 120.608 133.189 121.174 133.287C121.74 133.385 122.276 133.615 122.737 133.958C122.815 132.914 122.901 131.849 122.995 130.763C123.062 130.184 123.243 129.624 123.529 129.116C123.814 128.607 124.197 128.16 124.656 127.801C125.116 127.442 125.642 127.178 126.204 127.023C126.767 126.869 127.354 126.828 127.933 126.902C127.933 126.565 127.933 126.229 127.933 125.892C127.937 125.268 128.093 124.655 128.386 124.105C128.679 123.554 129.102 123.083 129.617 122.731C130.132 122.38 130.725 122.158 131.345 122.085C131.965 122.012 132.593 122.09 133.176 122.313C133.882 122.129 134.624 122.129 135.331 122.313V121.178C135.253 117.521 141.029 115.531 142.627 119.204C145.849 126.565 146.17 134.224 146.546 141.914C147.485 146.784 148.009 151.725 148.114 156.683C148.11 157.611 147.769 158.506 147.155 159.201C146.541 159.897 145.695 160.346 144.775 160.466Z" fill="#5EC4E6"/>
<path d="M214.525 221.423C214.353 221.783 214.196 222.089 214.071 222.316C213.945 222.543 213.961 222.519 213.93 222.598L213.789 222.848C213.595 223.205 213.38 223.55 213.146 223.882C211.575 226.018 209.676 227.892 207.519 229.434C206.386 230.245 205.166 230.928 203.882 231.47C199.144 233.386 194.156 234.618 189.07 235.127C185.261 235.495 177.879 231.799 175.512 230.554L174.728 230.155C174.728 230.155 173.756 229.372 172.212 228.009L169.532 225.66C164.774 221.544 160.25 217.164 155.982 212.543C149.594 205.283 156.703 173.654 159.171 172.197C160.543 171.414 163.035 172.597 164.979 173.834C165.935 174.439 166.856 175.098 167.737 175.807C167.737 175.807 170.77 178.329 177.299 184.703C179.344 186.7 181.46 188.666 183.404 190.42C183.733 190.71 184.062 190.999 184.368 191.281C188.177 194.68 191.084 197.1 191.084 197.1H191.868C194.133 197.1 200.787 197.022 206.187 197.1C212.785 197.209 214.807 201.242 216.704 207.961C218.115 212.973 215.811 218.8 214.525 221.423Z" fill="#4D9BE2"/>
<g style="mix-blend-mode:multiply" opacity="0.4">
<path d="M214.526 221.423C214.354 221.783 214.197 222.089 214.072 222.316C213.946 222.543 213.962 222.519 213.931 222.598L213.79 222.848C213.596 223.205 213.381 223.55 213.147 223.882C211.576 226.018 209.677 227.892 207.52 229.434C206.387 230.245 205.167 230.928 203.883 231.47C199.145 233.386 194.157 234.618 189.071 235.127C185.262 235.495 177.88 231.799 175.513 230.554L174.729 230.155C174.729 230.155 173.757 229.372 172.213 228.009L169.533 225.66C164.775 221.544 160.251 217.164 155.983 212.543C149.595 205.283 156.704 173.654 159.172 172.197C160.544 171.414 163.036 172.597 164.98 173.834C165.936 174.439 166.857 175.098 167.738 175.807C167.738 175.807 170.771 178.329 177.3 184.703C179.345 186.7 181.461 188.666 183.405 190.42C183.734 190.71 184.063 190.999 184.369 191.281C188.178 194.68 191.085 197.1 191.085 197.1H191.869C194.134 197.1 200.788 197.022 206.188 197.1C212.786 197.209 214.808 201.242 216.705 207.961C218.116 212.973 215.812 218.8 214.526 221.423Z" fill="#4D9BE2"/>
</g>
<path d="M114.602 108.335V443.268H113.622C108.353 443.071 103.099 442.579 97.8849 441.795L91.1684 440.621C91.1684 440.621 89.7734 443.362 87.9787 446.713C86.184 450.065 81.8187 453.26 81.8187 453.26C81.1611 452.407 80.3666 451.669 79.4675 451.075C78.8688 450.632 78.2345 450.239 77.5709 449.901C76.938 450.751 76.2241 451.537 75.4392 452.25L74.4361 453.096C74.4072 452.078 74.0951 451.088 73.5348 450.237L72.6962 449.29C72.6962 449.29 71.693 450.018 70.345 451.138C69.8707 451.561 69.3439 451.922 68.7776 452.211C68.6464 452.28 68.5068 452.333 68.3622 452.367C68.3622 452.367 68.6444 451.302 67.2964 450.355C65.9484 449.407 63.8245 448.17 59.9686 443.362C56.1127 438.553 42.8365 416.619 41.8256 395.311C40.8146 374.002 45.0153 352.013 46.1909 348.324C47.0132 345.987 47.3441 343.505 47.1627 341.034C47.0819 340.042 46.9274 339.058 46.7003 338.089C45.8617 334.393 39.6468 313.085 43.3381 290.766C47.0294 268.448 50.3916 255.362 51.7396 248.816C53.0876 242.269 53.9183 238.408 53.9183 238.408C53.9183 238.408 62.3198 195.956 62.4844 187.232C62.6489 178.509 65.5095 143.097 64.3339 130.677C63.895 126.08 62.5862 112.9 61.0893 103.519L113.818 108.335C113.917 108.341 114.017 108.341 114.116 108.335V107.497C114.339 107.746 114.516 108.032 114.641 108.343L114.602 108.335Z" fill="#4D9BE2"/>
<path d="M186.359 395.311C185.898 402.473 184.431 409.535 182.001 416.29C180.433 420.814 178.58 425.234 176.453 429.524C174.141 434.385 171.378 439.017 168.2 443.362C164.336 448.17 162.212 449.399 160.864 450.355C159.516 451.31 159.799 452.367 159.799 452.367C159.044 452.113 158.355 451.693 157.784 451.138L157.636 451.013C156.374 449.963 155.433 449.29 155.433 449.29L154.595 450.237C154.035 451.087 153.725 452.078 153.701 453.096L152.69 452.25C151.909 451.536 151.198 450.749 150.566 449.901C149.899 450.237 149.262 450.63 148.662 451.075C147.763 451.669 146.968 452.407 146.311 453.26C146.06 453.072 141.906 449.979 140.166 446.721C138.427 443.463 136.977 440.629 136.977 440.629L130.276 441.795C125.083 442.578 119.85 443.069 114.602 443.268V108.335L167.111 103.519C165.614 112.916 164.305 126.08 163.866 130.677C163.811 131.233 163.764 131.804 163.733 132.384C163.419 137.772 163.631 146.12 164.015 154.781C164.011 154.851 164.011 154.922 164.015 154.992C164.297 161.492 164.689 168.148 165.018 173.841C165.308 178.869 165.559 183.152 165.653 185.901C165.653 186.395 165.653 186.841 165.692 187.232C165.692 187.381 165.692 187.546 165.692 187.718C165.872 191.633 167.307 200.71 168.952 210.099C168.952 210.099 168.952 210.146 168.952 210.256C168.952 210.365 168.952 210.35 168.952 210.412C170.042 216.622 171.217 222.942 172.174 228.016C173.02 232.504 173.702 236.004 174.007 237.547L174.18 238.408C174.18 238.408 175.018 242.269 176.366 248.816C177.714 255.362 181.069 268.448 184.76 290.766C188.451 313.085 182.244 334.393 181.406 338.089C181.105 339.353 180.932 340.644 180.888 341.942C180.854 344.113 181.199 346.272 181.907 348.324C182.84 351.245 185.669 365.654 186.304 382.1C186.555 386.422 186.57 390.878 186.359 395.311Z" fill="#4D9BE2"/>
<g style="mix-blend-mode:multiply" opacity="0.4">
<path d="M186.359 395.311C185.898 402.473 184.431 409.535 182.001 416.29C180.433 420.814 178.58 425.234 176.453 429.524C174.141 434.385 171.378 439.017 168.2 443.362C164.336 448.17 162.212 449.399 160.864 450.355C159.516 451.31 159.799 452.367 159.799 452.367C159.044 452.113 158.355 451.693 157.784 451.138L157.636 451.013C156.374 449.963 155.433 449.29 155.433 449.29L154.595 450.237C154.035 451.087 153.725 452.078 153.701 453.096L152.69 452.25C151.909 451.536 151.198 450.749 150.566 449.901C149.899 450.237 149.262 450.63 148.662 451.075C147.763 451.669 146.968 452.407 146.311 453.26C146.06 453.072 141.906 449.979 140.166 446.721C138.427 443.463 136.977 440.629 136.977 440.629L130.276 441.795C125.083 442.578 119.85 443.069 114.602 443.268V108.335L167.111 103.519C165.614 112.916 164.305 126.08 163.866 130.677C163.811 131.233 163.764 131.804 163.733 132.384C163.419 137.772 163.631 146.12 164.015 154.781C164.011 154.851 164.011 154.922 164.015 154.992C164.297 161.492 164.689 168.148 165.018 173.841C165.308 178.869 165.559 183.152 165.653 185.901C165.653 186.395 165.653 186.841 165.692 187.232C165.692 187.381 165.692 187.546 165.692 187.718C165.872 191.633 167.307 200.71 168.952 210.099C168.952 210.099 168.952 210.146 168.952 210.256C168.952 210.365 168.952 210.35 168.952 210.412C170.042 216.622 171.217 222.942 172.174 228.016C173.02 232.504 173.702 236.004 174.007 237.547L174.18 238.408C174.18 238.408 175.018 242.269 176.366 248.816C177.714 255.362 181.069 268.448 184.76 290.766C188.451 313.085 182.244 334.393 181.406 338.089C181.105 339.353 180.932 340.644 180.888 341.942C180.854 344.113 181.199 346.272 181.907 348.324C182.84 351.245 185.669 365.654 186.304 382.1C186.555 386.422 186.57 390.878 186.359 395.311Z" fill="#4D9BE2"/>
</g>
<path d="M115.079 108.335V387.448H114.992V387.526H114.546H114.091V387.448L111.411 387.197C106.928 386.414 102.563 383.947 98.4167 380.478C94.2708 377.009 76.6999 352.177 70.3204 337.408C63.9409 322.638 51.8481 287.743 60.2418 251.83C68.6354 215.917 78.04 195.447 76.3629 176.989C74.6857 158.531 74.0117 133.691 70.3204 116.91C69.7091 114.145 69.0429 111.263 68.3924 108.295H114.295C114.394 108.302 114.494 108.302 114.593 108.295V107.458C114.816 107.707 114.993 107.993 115.118 108.303L115.079 108.335Z" fill="#DBF0FD"/>
<path d="M114.601 108.335V387.448H114.515V387.526H114.068H113.613V387.448L110.933 387.197C106.45 386.414 102.085 383.947 97.9391 380.478C93.7933 377.009 76.2223 352.177 69.8428 337.408C63.4634 322.638 51.3706 287.743 59.7642 251.83C68.1579 215.917 77.5625 195.447 75.8853 176.989C74.2082 158.531 73.5342 133.691 69.8428 116.91C69.2315 114.145 68.5654 111.263 67.9149 108.295H113.817C113.916 108.302 114.016 108.302 114.115 108.295V107.458C114.338 107.707 114.516 107.993 114.64 108.303L114.601 108.335Z" fill="#DBF0FD"/>
<path d="M158.309 337.408C155.605 343.673 150.887 351.746 146.035 359.233C145.408 360.188 144.789 361.136 144.162 362.076C143.951 362.389 143.747 362.702 143.535 363.007C141.419 366.14 139.335 369.123 137.454 371.7C134.209 376.116 131.529 379.374 130.212 380.478C126.066 383.948 121.701 386.414 117.226 387.197L114.624 387.44V108.335H160.236C159.586 111.271 158.92 114.153 158.309 116.949C154.617 133.731 153.943 158.571 152.266 177.028C150.589 195.486 159.994 215.956 168.387 251.87C176.781 287.783 164.696 322.654 158.309 337.408Z" fill="#CCE9FC"/>
<g style="mix-blend-mode:multiply" opacity="0.12">
<path d="M187.064 230.256C185.159 229.603 183.29 228.845 181.469 227.985C183.036 228.627 184.745 229.277 186.516 230.037L187.064 230.256Z" fill="#515A60"/>
</g>
<path d="M113.912 107.176C113.757 106.981 113.575 106.809 113.371 106.667L113.912 107.176Z" fill="#2E98D5"/>
<path d="M113.912 107.176C113.757 106.981 113.575 106.809 113.371 106.667L113.912 107.176Z" fill="#DBF0FD"/>
<g opacity="0.33">
<path opacity="0.33" d="M113.912 107.176C113.757 106.981 113.575 106.809 113.371 106.667L113.912 107.176Z" fill="#535C62"/>
</g>
<g opacity="0.33">
<path opacity="0.33" d="M114.437 107.959H113.912V107.176C114.133 107.404 114.31 107.669 114.437 107.959Z" fill="#535C62"/>
</g>
<path d="M114.445 107.998H113.912V107.176C114.138 107.423 114.316 107.71 114.437 108.022L114.445 107.998Z" fill="#E6F4FD"/>
<path d="M113.912 107.176C113.757 106.981 113.575 106.809 113.371 106.667L113.912 107.176Z" fill="#E6F4FD"/>
<g opacity="0.3">
<path opacity="0.3" d="M181.578 69.869C181.405 74.6616 180.418 82.5082 179.109 91.4356C179.054 91.7802 179.007 92.1247 178.952 92.4693C173.412 109.376 156.287 121.906 137.039 130.254C120.095 137.592 114.084 136.589 114.084 136.589C114.084 136.589 108.065 137.592 91.1212 130.254C71.8339 121.898 54.7097 109.345 49.1845 92.4145C48.1656 85.3665 47.3114 79.0391 46.8333 74.1839C46.6923 72.555 46.5825 71.1141 46.5355 69.869C45.9712 54.6846 44.2392 37.3859 60.376 26.0153C76.5127 14.6446 99.5619 6.60999 107.062 5.65461C110.706 5.18475 112.548 4.95765 113.543 4.82452H114.601C115.558 4.95765 117.431 5.18475 121.067 5.65461C128.567 6.62566 151.632 14.6994 167.753 26.0153C183.874 37.3311 182.166 54.7081 181.578 69.869Z" fill="#525B61"/>
<path opacity="0.3" d="M47.4757 76.3765C43.5713 74.3948 40.0563 71.7261 37.0993 68.4985C32.397 63.2517 28.4784 58.1224 30.1164 54.1521C31.7544 50.1817 37.3579 46.5873 41.3862 43.7681C45.4145 40.949 51.2532 39.4767 51.2532 39.4767C51.2532 39.4767 47.6011 59.5946 47.8597 66.3215C48.1183 73.0483 47.4757 76.3765 47.4757 76.3765Z" fill="#525B61"/>
<path opacity="0.3" d="M180.301 66.3215C180.559 59.5946 176.907 39.4767 176.907 39.4767C176.907 39.4767 182.738 40.949 186.774 43.7681C190.81 46.5873 196.422 50.1817 198.044 54.1521C199.666 58.1224 195.803 63.2517 191.061 68.4985C188.104 71.7261 184.589 74.3948 180.685 76.3765C180.685 76.3765 180.042 73.0405 180.301 66.3215Z" fill="#525B61"/>
</g>
<path d="M47.4757 70.1273C43.5713 68.1456 40.0563 65.4769 37.0993 62.2493C32.397 56.9947 28.4784 51.8654 30.1164 47.895C31.7544 43.9247 37.3579 40.3381 41.3862 37.5189C45.4145 34.6998 51.2532 33.2275 51.2532 33.2275C51.2532 33.2275 47.6011 53.3454 47.8597 60.0644C48.1183 66.7835 47.4757 70.1273 47.4757 70.1273Z" fill="#4D9BE2"/>
<path d="M47.4752 47.8948C47.4752 47.8948 43.1334 46.6183 40.5001 46.8062C37.8668 46.9942 36.9028 48.0905 36.9733 50.2049C37.0228 52.5556 37.8807 54.8176 39.4028 56.6107C41.1976 58.8504 43.5566 60.8316 44.9751 60.9021C46.3936 60.9726 47.4752 59.0461 47.4752 59.0461V47.8948Z" fill="#DBF0FD"/>
<g opacity="0.18">
<path opacity="0.18" d="M37.2715 48.4821C41.3938 48.6544 42.3265 50.4085 43.3923 52.5072C44.2858 54.277 44.5444 59.0305 44.6071 60.8551C44.7134 60.891 44.8242 60.912 44.9362 60.9177C46.3469 60.9882 47.4363 59.0618 47.4363 59.0618V47.8948C47.4363 47.8948 43.0945 46.6183 40.4612 46.8062C38.7292 46.9159 37.7339 47.4719 37.2715 48.4821Z" fill="#535C62"/>
</g>
<g style="mix-blend-mode:multiply" opacity="0.16">
<path d="M29.9131 48.4824C32.9799 47.5962 36.1326 47.0396 39.3177 46.8222C41.7342 46.7357 44.1497 47.0183 46.4809 47.6602L49.1534 43.2983L50.2035 39.4768C50.7992 35.851 51.2694 33.2746 51.2694 33.2746C51.2694 33.2746 45.4385 34.739 41.4024 37.5582C37.3662 40.3773 31.7392 43.9639 30.1247 47.9343C30.0306 48.1144 29.9601 48.2945 29.9131 48.4824Z" fill="#525B61"/>
</g>
<path d="M180.301 60.0644C180.559 53.3454 176.907 33.2275 176.907 33.2275C176.907 33.2275 182.738 34.6919 186.774 37.5189C190.81 40.3459 196.422 43.9247 198.044 47.895C199.666 51.8654 195.803 56.9947 191.061 62.2493C188.104 65.4769 184.589 68.1456 180.685 70.1273C180.685 70.1273 180.042 66.7913 180.301 60.0644Z" fill="#4D9BE2"/>
<g style="mix-blend-mode:multiply" opacity="0.4">
<path d="M180.301 60.0644C180.559 53.3454 176.907 33.2275 176.907 33.2275C176.907 33.2275 182.738 34.6919 186.774 37.5189C190.81 40.3459 196.422 43.9247 198.044 47.895C199.666 51.8654 195.803 56.9947 191.061 62.2493C188.104 65.4769 184.589 68.1456 180.685 70.1273C180.685 70.1273 180.042 66.7913 180.301 60.0644Z" fill="#4D9BE2"/>
</g>
<path d="M180.684 59.0465C180.684 59.0465 181.773 60.9729 183.184 60.9024C184.594 60.832 186.961 58.8507 188.756 56.611C190.278 54.818 191.136 52.556 191.185 50.2053C191.256 48.0909 190.3 47.0024 187.666 46.8066C185.033 46.6108 180.684 47.8951 180.684 47.8951V59.0465Z" fill="#DBF0FD"/>
<path opacity="0.18" d="M187.659 46.8062C185.025 46.6183 180.684 47.8948 180.684 47.8948V59.0618C180.684 59.0618 181.773 60.9882 183.184 60.9177H183.223C183.335 60.912 183.446 60.891 183.552 60.8551C183.615 59.0305 183.873 54.277 184.767 52.5072C185.833 50.4085 186.765 48.6544 190.888 48.4821C190.433 47.4719 189.43 46.9159 187.659 46.8062Z" fill="#D6EBF8"/>
<path opacity="0.16" d="M198.059 47.9343C196.444 43.9639 190.809 40.3695 186.781 37.5582C182.753 34.7468 176.914 33.2746 176.914 33.2746C176.914 33.2746 177.384 35.851 177.98 39.4768L179.03 43.2983L181.703 47.6602C184.034 47.0183 186.449 46.7357 188.866 46.8222C192.051 47.0396 195.204 47.5962 198.27 48.4824C198.192 48.2945 198.129 48.1144 198.059 47.9343Z" fill="#525B61"/>
<path d="M113.912 0.337463V132.102H113.615C113.403 132.102 113.074 132.102 112.619 132.102H112.345L111.828 132.063H111.742C108.716 131.812 102.282 130.622 90.9495 125.743C78.4805 120.348 66.905 113.214 58.817 104.224L58.3782 103.73C56.9459 102.116 55.6162 100.413 54.3969 98.6324C54.248 98.421 54.1069 98.2017 53.9658 97.9903C53.0722 96.645 52.2533 95.2516 51.5128 93.8164C51.0347 92.8766 50.5958 91.9291 50.1883 90.9659C49.867 90.1828 49.5692 89.3997 49.3027 88.6557C49.132 88.1653 49.0112 87.659 48.9422 87.1443C48.2055 82.109 47.5707 77.4182 47.1161 73.4165C46.9672 72.0931 46.834 70.8401 46.7321 69.6812C46.591 68.068 46.4813 66.6192 46.4343 65.3663C45.8622 50.1897 44.138 32.891 60.2747 21.5517C76.4115 10.2124 99.4606 2.14643 106.961 1.19105L113.137 0.407946C113.338 0.396012 113.539 0.396012 113.74 0.407946L113.912 0.337463Z" fill="#4D9BE2"/>
<path d="M114.215 0.408081L117.241 131.262L113.614 132.103C113.402 132.103 113.073 132.103 112.618 132.103H112.344L111.827 132.064H111.741C108.715 131.813 102.281 130.623 90.9485 125.744C78.4795 120.348 66.904 113.214 58.8161 104.224L58.3772 103.731C56.9449 102.116 55.6152 100.414 54.3959 98.6329C54.247 98.4214 54.1059 98.2022 53.9648 97.9907C53.0712 96.6454 52.2523 95.252 51.5118 93.8168C51.0337 92.8771 50.5949 91.9295 50.1873 90.9663C49.866 90.1832 49.5682 89.4001 49.3017 88.6562C49.131 88.1657 49.0102 87.6594 48.9412 87.1448C48.2045 82.1094 47.5697 77.4186 47.1152 73.417C46.9662 72.0935 46.833 70.8406 46.7311 69.6816C46.5901 68.0684 46.4803 66.6197 46.4333 65.3667C45.8612 50.1902 44.137 32.8914 60.2738 21.5521C76.4105 10.2128 99.4597 2.14685 106.96 1.19147L113.136 0.408365C113.337 0.396431 113.538 0.396431 113.739 0.408365L114.215 0.408081Z" fill="#4D9BE2"/>
<path d="M181.405 65.3504C181.358 66.6034 181.248 68.0522 181.107 69.6654C181.005 70.8243 180.872 72.0773 180.723 73.4007C180.269 77.4181 179.65 82.1167 178.866 87.1285C178.797 87.6431 178.676 88.1495 178.505 88.6399C178.239 89.423 177.941 90.2061 177.62 90.9501C177.212 91.9133 176.773 92.8608 176.295 93.8006C175.557 95.2331 174.741 96.6239 173.85 97.9667C173.685 98.2173 173.521 98.4678 173.348 98.7106C172.124 100.486 170.789 102.184 169.351 103.793C161.232 112.947 149.508 120.238 136.843 125.72C128.606 129.267 122.955 130.865 119.319 131.57C118.755 131.679 118.237 131.765 117.752 131.836C117.266 131.906 116.646 131.985 116.184 132.024L115.675 132.063H115.557H115.283H115.032C114.577 132.063 114.248 132.063 114.037 132.063H113.849V0.33732H114.037C114.238 0.325386 114.439 0.325386 114.64 0.33732L120.816 1.12042C128.308 2.08364 151.381 10.1496 167.502 21.4811C183.623 32.8126 182.001 50.1739 181.405 65.3504Z" fill="#4D9BE2"/>
<g style="mix-blend-mode:multiply" opacity="0.4">
<path d="M181.405 65.3504C181.358 66.6034 181.248 68.0522 181.107 69.6654C181.005 70.8243 180.872 72.0773 180.723 73.4007C180.269 77.4181 179.65 82.1167 178.866 87.1285C178.797 87.6431 178.676 88.1495 178.505 88.6399C178.239 89.423 177.941 90.2061 177.62 90.9501C177.212 91.9133 176.773 92.8608 176.295 93.8006C175.557 95.2331 174.741 96.6239 173.85 97.9667C173.685 98.2173 173.521 98.4678 173.348 98.7106C172.124 100.486 170.789 102.184 169.351 103.793C161.232 112.947 149.508 120.238 136.843 125.72C128.606 129.267 122.955 130.865 119.319 131.57C118.755 131.679 118.237 131.765 117.752 131.836C117.266 131.906 116.646 131.985 116.184 132.024L115.675 132.063H115.557H115.283H115.032C114.577 132.063 114.248 132.063 114.037 132.063H113.849V0.33732H114.037C114.238 0.325386 114.439 0.325386 114.64 0.33732L120.816 1.12042C128.308 2.08364 151.381 10.1496 167.502 21.4811C183.623 32.8126 182.001 50.1739 181.405 65.3504Z" fill="#4D9BE2"/>
</g>
<path d="M113.92 69.0152L114.81 131.262L113.614 132.102C113.403 132.102 113.073 132.102 112.619 132.102H112.345L111.827 132.063H111.741C108.716 131.812 102.282 130.622 90.9491 125.743C78.4801 120.348 66.9046 113.213 58.8167 104.223L58.3778 103.73C56.9455 102.115 55.6158 100.413 54.3965 98.6321C59.4123 89.5012 68.2448 82.2966 78.3939 77.1438C98.4022 66.9635 113.489 68.9682 113.928 69.0309L113.92 69.0152Z" fill="#DBF0FD"/>
<path d="M173.381 98.7108C172.156 100.487 170.821 102.184 169.384 103.793C161.265 112.948 149.54 120.238 136.875 125.72C128.638 129.267 122.988 130.865 119.351 131.57C118.787 131.679 118.27 131.766 117.784 131.836C117.298 131.906 116.687 131.977 116.217 132.024L115.707 132.063H115.59H115.315H115.064C114.61 132.063 114.281 132.063 114.069 132.063H113.818V69.0156H113.936C115.362 68.8433 130.081 67.3554 149.36 77.1442C159.517 82.297 168.381 89.5328 173.381 98.7108Z" fill="#CCE9FC"/>
<g opacity="0.5">
<path opacity="0.5" d="M132.627 89.8851C132.789 89.8851 132.945 89.8207 133.059 89.7062C133.174 89.5916 133.238 89.4363 133.238 89.2743C133.238 89.1123 133.174 88.9569 133.059 88.8424C132.945 88.7278 132.789 88.6635 132.627 88.6635C132.465 88.6635 132.309 88.7278 132.195 88.8424C132.08 88.9569 132.016 89.1123 132.016 89.2743C132.016 89.4363 132.08 89.5916 132.195 89.7062C132.309 89.8207 132.465 89.8851 132.627 89.8851Z" fill="#525B61"/>
</g>
<g opacity="0.5">
<path opacity="0.5" d="M135.59 87.2852C135.7 87.2867 135.809 87.2552 135.902 87.1947C135.994 87.1342 136.067 87.0475 136.11 86.9456C136.153 86.8437 136.165 86.7312 136.144 86.6227C136.122 86.5141 136.069 86.4143 135.991 86.3361C135.913 86.2578 135.813 86.2047 135.704 86.1835C135.595 86.1623 135.483 86.174 135.381 86.217C135.279 86.2601 135.192 86.3326 135.132 86.4252C135.071 86.5178 135.04 86.6264 135.041 86.737C135.041 86.8824 135.099 87.0218 135.202 87.1246C135.305 87.2274 135.444 87.2852 135.59 87.2852Z" fill="#525B61"/>
</g>
<g opacity="0.5">
<path opacity="0.5" d="M135.761 82.2028C135.862 82.2044 135.962 82.1758 136.046 82.1208C136.131 82.0659 136.198 81.9869 136.238 81.8941C136.277 81.8012 136.288 81.6986 136.27 81.5994C136.251 81.5001 136.203 81.4087 136.132 81.3367C136.061 81.2647 135.97 81.2155 135.871 81.1952C135.772 81.1749 135.67 81.1845 135.576 81.2228C135.483 81.2611 135.403 81.3263 135.346 81.4102C135.29 81.494 135.26 81.5928 135.26 81.6938C135.26 81.8274 135.312 81.9557 135.406 82.051C135.5 82.1462 135.628 82.2007 135.761 82.2028Z" fill="#525B61"/>
</g>
<g opacity="0.5">
<path opacity="0.5" d="M137.846 84.2858C137.981 84.2858 138.111 84.2322 138.206 84.1367C138.302 84.0413 138.356 83.9118 138.356 83.7768C138.356 83.6418 138.302 83.5124 138.206 83.4169C138.111 83.3215 137.981 83.2678 137.846 83.2678C137.711 83.2678 137.582 83.3215 137.486 83.4169C137.391 83.5124 137.337 83.6418 137.337 83.7768C137.337 83.9118 137.391 84.0413 137.486 84.1367C137.582 84.2322 137.711 84.2858 137.846 84.2858Z" fill="#525B61"/>
</g>
<g opacity="0.5">
<path opacity="0.5" d="M95.5019 89.8851C95.6228 89.8851 95.741 89.8493 95.8416 89.7822C95.9421 89.715 96.0204 89.6196 96.0667 89.508C96.113 89.3964 96.1251 89.2736 96.1015 89.1551C96.0779 89.0366 96.0197 88.9278 95.9342 88.8424C95.8487 88.7569 95.7398 88.6988 95.6212 88.6752C95.5026 88.6516 95.3797 88.6637 95.268 88.7099C95.1563 88.7562 95.0608 88.8345 94.9936 88.9349C94.9265 89.0354 94.8906 89.1535 94.8906 89.2743C94.8906 89.4363 94.955 89.5916 95.0697 89.7062C95.1843 89.8207 95.3398 89.8851 95.5019 89.8851Z" fill="#525B61"/>
</g>
<g opacity="0.5">
<path opacity="0.5" d="M92.5009 87.2852C92.6113 87.2852 92.7192 87.2523 92.8108 87.1909C92.9025 87.1294 92.9738 87.0421 93.0157 86.9401C93.0576 86.838 93.0681 86.7258 93.046 86.6178C93.0239 86.5097 92.9701 86.4107 92.8915 86.3332C92.8129 86.2558 92.713 86.2035 92.6046 86.1829C92.4961 86.1623 92.384 86.1745 92.2824 86.2178C92.1809 86.261 92.0945 86.3335 92.0343 86.426C91.9742 86.5184 91.9428 86.6267 91.9444 86.737C91.9444 86.8096 91.9588 86.8816 91.9869 86.9486C92.015 87.0156 92.0561 87.0764 92.1079 87.1274C92.1596 87.1784 92.221 87.2186 92.2885 87.2457C92.356 87.2728 92.4282 87.2862 92.5009 87.2852Z" fill="#525B61"/>
</g>
<g opacity="0.5">
<path opacity="0.5" d="M92.3356 82.2028C92.4363 82.2028 92.5348 82.1729 92.6186 82.117C92.7023 82.0611 92.7676 81.9816 92.8062 81.8885C92.8448 81.7955 92.8548 81.6932 92.8352 81.5944C92.8155 81.4957 92.767 81.405 92.6958 81.3338C92.6245 81.2626 92.5338 81.2141 92.4349 81.1945C92.3361 81.1748 92.2337 81.1849 92.1406 81.2234C92.0475 81.262 91.968 81.3272 91.912 81.4109C91.856 81.4946 91.8262 81.5931 91.8262 81.6937C91.8262 81.8287 91.8798 81.9582 91.9754 82.0537C92.0709 82.1491 92.2005 82.2028 92.3356 82.2028Z" fill="#525B61"/>
</g>
<g opacity="0.5">
<path opacity="0.5" d="M90.2594 84.2858C90.3601 84.2858 90.4586 84.256 90.5424 84.2C90.6262 84.1441 90.6915 84.0646 90.73 83.9716C90.7686 83.8786 90.7787 83.7763 90.759 83.6775C90.7394 83.5788 90.6908 83.4881 90.6196 83.4169C90.5484 83.3457 90.4576 83.2972 90.3588 83.2776C90.26 83.258 90.1575 83.2681 90.0645 83.3066C89.9714 83.3451 89.8918 83.4103 89.8358 83.494C89.7799 83.5777 89.75 83.6761 89.75 83.7768C89.75 83.9118 89.8037 84.0413 89.8992 84.1367C89.9947 84.2322 90.1243 84.2858 90.2594 84.2858Z" fill="#525B61"/>
</g>
<path d="M92.5471 86.9955C89.9098 86.942 87.2716 87.0493 84.6473 87.3166C82.0453 87.5829 79.4355 87.9588 76.8101 88.4443C71.6274 89.4478 66.5502 90.9344 61.6451 92.8845C59.2055 93.873 56.8174 94.9838 54.4898 96.2127C53.8942 96.5102 53.3299 96.8548 52.7499 97.168C52.17 97.4813 51.59 97.818 51.0336 98.1704L49.3407 99.1493L47.7185 100.293C47.1699 100.653 46.6291 101.076 46.0962 101.444C45.5632 101.812 45.0146 102.227 44.5287 102.634C43.4942 103.488 42.4284 104.279 41.4487 105.195C39.4296 106.968 37.5167 108.859 35.7197 110.857C37.4987 108.84 39.3988 106.934 41.4095 105.148C42.3813 104.224 43.4472 103.417 44.4739 102.564C44.9911 102.149 45.5397 101.781 46.0413 101.358C46.5429 100.935 47.1072 100.575 47.6558 100.183L49.3094 99.0632L50.9944 98.006C51.5587 97.6457 52.1386 97.3168 52.7107 96.9879C53.2829 96.659 53.855 96.3145 54.4428 96.0169C56.7782 94.7744 59.1712 93.6467 61.6216 92.6339C66.5249 90.6461 71.605 89.1254 76.7944 88.0919C79.3807 87.575 81.9983 87.1835 84.6316 86.9094C87.2724 86.6121 89.929 86.4787 92.5863 86.51C92.6336 86.5341 92.672 86.5724 92.696 86.6197C92.7208 86.6682 92.7342 86.7218 92.7352 86.7763C92.743 86.7991 92.743 86.8239 92.7352 86.8468C92.7409 86.8699 92.7409 86.8941 92.7352 86.9172C92.7182 86.9395 92.6969 86.9581 92.6725 86.9721C92.6345 86.9936 92.5904 87.0019 92.5471 86.9955Z" fill="#525B61"/>
<path d="M92.2653 81.835C90.661 80.5189 88.8703 79.4474 86.9517 78.6556C86.7166 78.5538 86.4815 78.4363 86.2464 78.3424L85.5254 78.0761L84.0755 77.5358C83.0958 77.2539 82.1162 76.9328 81.1209 76.69C80.1255 76.4473 79.1381 76.2358 78.1271 76.0557L75.1097 75.625C73.093 75.4319 71.0736 75.3353 69.0516 75.3353H66.7945L66.0108 75.3901L62.9935 75.6015C61.9839 75.6562 60.9788 75.7739 59.984 75.9539L56.9902 76.3611C55.0152 76.7605 53.0324 77.1442 51.0653 77.5671L45.2188 79.1333L51.0496 77.5671C53.0089 77.1207 54.9682 76.7214 56.9667 76.2985L59.9605 75.8599C60.9636 75.7346 61.9511 75.531 62.97 75.4762L65.9951 75.2413L66.7788 75.1786H69.13C71.1597 75.1528 73.1895 75.2286 75.2116 75.4057L78.2525 75.813C79.2635 75.9774 80.2745 76.2202 81.2698 76.4159C82.2651 76.6117 83.2683 76.9641 84.2557 77.2382L85.7291 77.7707L86.458 78.037C86.7009 78.1309 86.9361 78.2484 87.179 78.3502C89.1587 79.1391 91.0081 80.2215 92.665 81.5609C92.665 81.5609 92.7591 81.6627 92.618 81.8272C92.6191 81.8739 92.6015 81.9191 92.5691 81.9529C92.5368 81.9867 92.4924 82.0063 92.4456 82.0073C92.3988 82.0083 92.3536 81.9908 92.3198 81.9585C92.2859 81.9262 92.2664 81.8818 92.2653 81.835Z" fill="#525B61"/>
<path d="M95.6043 89.5012C92.1239 90.3576 88.7171 91.4889 85.416 92.8843C82.0833 94.2693 78.8607 95.9055 75.7762 97.7786C74.2088 98.7262 72.7197 99.7207 71.2699 100.809C69.7977 101.881 68.3825 103.028 67.0299 104.247C64.2878 106.705 61.8275 109.461 59.6943 112.462C61.7962 109.431 64.2304 106.644 66.9516 104.153C68.2978 102.929 69.7051 101.774 71.168 100.692C72.61 99.5954 74.1226 98.5696 75.6508 97.5594C78.724 95.6423 81.9387 93.9616 85.2671 92.5319C88.576 91.0826 91.9962 89.9015 95.4946 89.0001C95.4946 89.0001 95.6356 89.0001 95.6983 89.2037C95.7237 89.2559 95.7281 89.3158 95.7106 89.3712C95.6931 89.4265 95.6551 89.473 95.6043 89.5012Z" fill="#525B61"/>
<path d="M90.2205 84.0039C88.1666 83.6832 86.0922 83.5104 84.0134 83.4871C81.9431 83.4335 79.8714 83.4858 77.8064 83.6437C73.6746 83.9477 69.567 84.5206 65.5098 85.3587L62.4847 86.0322C61.4659 86.2436 60.4784 86.549 59.4752 86.8153C57.4689 87.3086 55.5096 87.9586 53.5268 88.5773C52.5393 88.867 51.5675 89.2351 50.5879 89.5875L47.6646 90.6447L41.9199 92.994C43.8244 92.2109 45.7288 91.3651 47.6489 90.5899L50.5565 89.5013C51.5283 89.1333 52.5001 88.7574 53.4876 88.4598C55.4626 87.8177 57.4062 87.152 59.4282 86.6352C60.4314 86.3689 61.4188 86.0557 62.4298 85.8521L65.455 85.1473C69.5139 84.2613 73.6269 83.6439 77.7672 83.2991C79.8441 83.1504 81.9209 83.0486 84.0369 83.0877C86.1354 83.088 88.2309 83.2424 90.3067 83.5497C90.3067 83.5497 90.4399 83.5967 90.4321 83.816C90.4243 84.0353 90.2205 84.0039 90.2205 84.0039Z" fill="#525B61"/>
<path d="M135.66 86.9956C138.297 86.9421 140.935 87.0493 143.56 87.3167C146.172 87.5829 148.784 87.9588 151.397 88.4443C156.569 89.4468 161.636 90.9334 166.53 92.8845C168.983 93.8697 171.384 94.9779 173.725 96.2049C174.305 96.5024 174.877 96.847 175.457 97.1602C176.037 97.4735 176.617 97.8102 177.173 98.1626L178.866 99.2041L180.52 100.316C181.076 100.676 181.617 101.099 182.15 101.467C182.683 101.835 183.224 102.25 183.717 102.658C184.752 103.511 185.81 104.302 186.797 105.218C188.818 106.99 190.731 108.88 192.526 110.88C190.745 108.866 188.845 106.959 186.836 105.171C185.857 104.247 184.799 103.441 183.772 102.587C183.247 102.172 182.706 101.804 182.205 101.381C181.703 100.958 181.131 100.598 180.575 100.206L178.929 99.0867L177.236 98.0295C176.687 97.6693 176.107 97.3403 175.527 97.0114C174.947 96.6825 174.383 96.338 173.795 96.0404C171.46 94.7883 169.062 93.6591 166.609 92.6574C161.711 90.6697 156.636 89.149 151.452 88.1154C148.842 87.5986 146.24 87.1992 143.614 86.9329C140.971 86.6353 138.312 86.5019 135.652 86.5335C135.608 86.5599 135.573 86.5979 135.55 86.6432C135.534 86.6942 135.534 86.7488 135.55 86.7998C135.539 86.8195 135.534 86.8416 135.534 86.8639C135.534 86.8863 135.54 86.9082 135.551 86.9277C135.562 86.9472 135.578 86.9637 135.597 86.9755C135.616 86.9874 135.637 86.9943 135.66 86.9956Z" fill="#525B61"/>
<path d="M135.904 81.835C137.51 80.5222 139.3 79.451 141.217 78.6556C141.46 78.5538 141.687 78.4363 141.93 78.3423L142.651 78.0761L144.093 77.5357C145.081 77.2538 146.06 76.9327 147.048 76.69C148.035 76.4472 149.046 76.2358 150.042 76.0556L153.059 75.6249C155.073 75.4292 157.103 75.3352 159.125 75.3352H161.406L162.189 75.39L165.215 75.6014C166.221 75.657 167.224 75.7747 168.216 75.9538L171.218 76.3611C173.185 76.7604 175.136 77.1442 177.135 77.567L182.981 79.1332L177.151 77.567C175.183 77.1207 173.232 76.7213 171.241 76.2984L168.24 75.8599C167.237 75.7346 166.241 75.531 165.238 75.4762L162.205 75.2412L161.421 75.1786H159.125C157.09 75.1526 155.055 75.2283 153.028 75.4057L149.987 75.8129C148.984 75.9773 147.981 76.2201 146.97 76.4159C145.959 76.6117 144.979 76.9641 143.991 77.2381L142.526 77.7706L141.789 78.0369C141.546 78.1309 141.303 78.2483 141.076 78.3501C139.096 79.1372 137.246 80.2198 135.59 81.5609C135.562 81.5996 135.547 81.6462 135.547 81.694C135.547 81.7418 135.562 81.7884 135.59 81.8271C135.692 81.9916 135.904 81.835 135.904 81.835Z" fill="#525B61"/>
<path d="M132.627 89.5011C136.107 90.3587 139.514 91.4899 142.816 92.8842C146.143 94.2705 149.36 95.9066 152.44 97.7786C154.007 98.7261 155.488 99.7206 156.954 100.809C158.419 101.883 159.829 103.031 161.178 104.247C163.927 106.701 166.39 109.457 168.522 112.462C166.417 109.431 163.98 106.644 161.257 104.153C159.916 102.916 158.514 101.748 157.056 100.653C155.598 99.5562 154.101 98.5303 152.557 97.5201C149.486 95.6047 146.274 93.924 142.949 92.4926C139.64 91.0433 136.22 89.8623 132.721 88.9608C132.721 88.9608 132.58 88.9608 132.518 89.1644C132.495 89.2246 132.493 89.2909 132.513 89.3522C132.533 89.4134 132.573 89.466 132.627 89.5011Z" fill="#525B61"/>
<path d="M137.996 84.004C140.044 83.6831 142.113 83.5104 144.187 83.4871C146.278 83.4333 148.371 83.4856 150.457 83.6438C154.586 83.9483 158.691 84.5212 162.745 85.3587L165.778 86.0322C166.782 86.2436 167.777 86.5491 168.772 86.8153C170.786 87.3087 172.754 87.9586 174.728 88.5773C175.724 88.867 176.696 89.2351 177.66 89.5875L180.583 90.6447L186.335 92.994C184.431 92.2109 182.526 91.3651 180.606 90.5899L177.691 89.5013C176.727 89.1333 175.755 88.7574 174.76 88.4598C172.793 87.8177 170.841 87.152 168.819 86.6352C167.824 86.3689 166.836 86.0557 165.825 85.8521L162.8 85.1473C158.741 84.2646 154.628 83.6498 150.488 83.307C148.419 83.1582 146.342 83.0564 144.218 83.0956C142.12 83.0955 140.024 83.2499 137.949 83.5576C137.949 83.5576 137.823 83.6046 137.823 83.8239C137.823 84.0431 137.996 84.004 137.996 84.004Z" fill="#525B61"/>
<g opacity="0.33">
<path opacity="0.33" d="M128.654 69.0154C126.781 67.8172 122.674 65.5071 118.779 65.0998C116.647 64.8571 115.252 64.7318 114.413 64.6613V64.5908H113.418V64.6613C112.58 64.7318 111.177 64.8571 109.053 65.0998C105.134 65.5305 101.051 67.8407 99.178 69.0154C98.2445 69.588 97.5489 70.4777 97.2187 71.5213C96.8905 72.5627 96.9432 73.6867 97.3676 74.6928C98.2532 76.9403 104.272 82.5239 106.772 83.8473C108.81 84.9045 112.556 84.8183 113.896 84.7479C115.252 84.8183 118.998 84.9045 121.028 83.8473C123.544 82.5474 129.563 76.9403 130.433 74.6928C130.861 73.7023 130.922 72.5919 130.605 71.5604C130.282 70.5052 129.589 69.6017 128.654 69.0154Z" fill="#535C62"/>
</g>
<path d="M108.598 69.1091C109.477 69.644 110.447 70.0154 111.458 70.2055C112.268 70.3553 113.088 70.4469 113.911 70.4796V83.4556C112.54 83.5261 108.715 83.6122 106.631 82.5629C104.068 81.2629 97.9158 75.6481 97.0145 73.4084C96.5801 72.3998 96.5274 71.2679 96.8662 70.2234C97.2051 69.1789 97.9123 68.293 98.8562 67.7309C100.776 66.5327 104.969 64.2226 108.943 63.8154C111.114 63.5804 112.548 63.4552 113.41 63.3847V63.322H113.911V64.9509C113.911 64.9509 109.836 65.084 108.096 66.3918C106.356 67.6996 108.598 69.1091 108.598 69.1091Z" fill="#525B61"/>
<path d="M108.599 69.1096C109.478 69.6445 110.448 70.0159 111.459 70.206C112.269 70.3558 113.988 70.3652 114.811 70.3979V83.3822C113.439 83.4527 108.716 83.6127 106.632 82.5633C104.069 81.2634 97.9167 75.6485 97.0155 73.4089C96.5811 72.4003 96.5284 71.2684 96.8672 70.2239C97.206 69.1793 97.9133 68.2935 98.8572 67.7314C100.777 66.5332 104.97 64.2231 108.944 63.8159C111.115 63.5809 112.549 63.4556 113.411 63.3852V63.3225L114.273 63.3852L114.811 65.5288C114.811 65.5288 109.837 65.0845 108.097 66.3923C106.357 67.7001 108.599 69.1096 108.599 69.1096Z" fill="#525B61"/>
<path d="M130.817 73.4084C129.915 75.6481 123.763 81.2394 121.2 82.5629C119.116 83.6122 115.291 83.5261 113.912 83.4556V70.4796C113.089 70.4469 112.269 70.3553 111.459 70.2055C110.447 70.0154 109.478 69.644 108.598 69.1091C108.598 69.1091 106.333 67.7074 108.089 66.384C109.844 65.0605 113.904 64.943 113.904 64.943V63.322H114.421V63.3925C115.276 63.463 116.702 63.5883 118.881 63.8232C122.854 64.2617 127.055 66.5719 128.967 67.7387C129.916 68.2986 130.627 69.1852 130.967 70.2321C131.308 71.2789 131.254 72.4139 130.817 73.424V73.4084Z" fill="#525B61"/>
<g opacity="0.4">
<path opacity="0.4" d="M130.817 73.5025C129.915 75.7421 123.763 81.3335 121.2 82.6569C119.116 83.7063 115.291 83.6201 113.912 83.5497V70.5658C113.089 70.5395 112.269 70.4505 111.459 70.2996C110.447 70.1095 109.478 69.7381 108.598 69.2032C108.598 69.2032 106.333 67.8015 108.089 66.478C109.844 65.1546 113.904 65.0371 113.904 65.0371V63.4083H114.421V63.4787C115.276 63.5492 116.702 63.6745 118.881 63.9094C122.854 64.348 127.055 66.6581 128.967 67.825C129.906 68.3838 130.611 69.2636 130.951 70.3016C131.291 71.3396 131.243 72.4656 130.817 73.4711V73.5025Z" fill="#525B61"/>
<g style="mix-blend-mode:multiply" opacity="0.2">
<path d="M130.817 73.5025C129.915 75.7421 123.763 81.3335 121.2 82.6569C119.116 83.7063 115.291 83.6201 113.912 83.5497V70.5658C113.089 70.5395 112.269 70.4505 111.459 70.2996C110.447 70.1095 109.478 69.7381 108.598 69.2032C108.598 69.2032 106.333 67.8015 108.089 66.478C109.844 65.1546 113.904 65.0371 113.904 65.0371V63.4083H114.421V63.4787C115.276 63.5492 116.702 63.6745 118.881 63.9094C122.854 64.348 127.055 66.6581 128.967 67.825C129.906 68.3838 130.611 69.2636 130.951 70.3016C131.291 71.3396 131.243 72.4656 130.817 73.4711V73.5025Z" fill="#474F55"/>
</g>
</g>
<path d="M120.66 76.76C120.559 76.4123 120.559 76.0427 120.66 75.695C120.757 75.3436 120.949 75.0262 121.217 74.7788C122.157 73.8234 123.137 73.2126 123.811 73.4553C123.961 73.4888 124.102 73.5527 124.226 73.6429C124.35 73.7332 124.454 73.8479 124.532 73.98C124.612 74.1093 124.665 74.253 124.689 74.4029C124.72 74.5526 124.72 74.7073 124.689 74.8571C124.651 75.2677 124.502 75.6604 124.258 75.9926C124.021 76.3338 123.696 76.6045 123.317 76.7757C122.597 77.0565 121.825 77.1819 121.052 77.1437C120.692 76.9714 120.66 76.76 120.66 76.76Z" fill="#6D7780"/>
<path d="M107.171 76.76C107.273 76.4123 107.273 76.0427 107.171 75.695C107.075 75.3436 106.882 75.0262 106.615 74.7788C105.666 73.8234 104.694 73.2126 104.02 73.4553C103.871 73.4888 103.729 73.5527 103.605 73.6429C103.481 73.7332 103.377 73.8479 103.299 73.98C103.216 74.1076 103.163 74.252 103.143 74.4029C103.115 74.553 103.115 74.7069 103.143 74.8571C103.187 75.2675 103.338 75.6592 103.582 75.9926C103.817 76.3355 104.142 76.6065 104.522 76.7757C105.243 77.0565 106.014 77.1819 106.787 77.1437C106.875 77.1107 106.954 77.0595 107.02 76.9933C107.087 76.9271 107.138 76.8476 107.171 76.76Z" fill="#6D7780"/>
<g opacity="0.51">
<path opacity="0.51" d="M119.233 69.1091C118.354 69.6452 117.385 70.0167 116.373 70.2054C115.589 70.3307 114.978 70.4012 114.562 70.4403C114.349 70.4653 114.133 70.4653 113.92 70.4403C113.096 70.4141 112.276 70.325 111.467 70.1741C110.455 69.984 109.486 69.6126 108.606 69.0777C108.606 69.0777 106.341 67.676 108.097 66.3525C109.852 65.0291 113.912 64.9116 113.912 64.9116C113.912 64.9116 117.987 65.0447 119.735 66.3525C121.483 67.6603 119.233 69.1091 119.233 69.1091Z" fill="white"/>
</g>
<path d="M142.345 89.0313C142.103 89.0718 141.886 89.2046 141.74 89.4018C141.594 89.599 141.53 89.8451 141.561 90.0885C141.561 90.0885 140.903 94.5208 138.497 96.087C132.846 99.7911 125.832 96.7996 114.664 94.4268C114.428 94.3549 114.182 94.3258 113.935 94.3407C113.692 94.3262 113.448 94.3554 113.214 94.4268C102.054 96.7761 95.0321 99.7911 89.3737 96.087C86.9834 94.5208 86.3015 90.1198 86.3094 90.0885C86.3284 89.9679 86.323 89.8448 86.2934 89.7264C86.2638 89.608 86.2106 89.4967 86.137 89.3993C85.9908 89.2035 85.7746 89.0717 85.5335 89.0313C84.8438 88.9373 84.5225 89.5246 84.5068 90.0493C84.7716 92.675 85.99 95.1127 87.9317 96.9014C90.1261 98.8435 94.0447 99.5405 98.3943 99.1019C102.744 98.6634 107.932 97.2695 113.959 95.9695C119.994 97.246 125.229 98.6399 129.531 99.1019C133.834 99.564 137.807 98.8435 139.994 96.9014C141.933 95.1109 143.151 92.6741 143.419 90.0493C143.356 89.5246 143.066 88.9765 142.345 89.0313Z" fill="#525B61"/>
<g opacity="0.33">
<path opacity="0.33" d="M142.345 89.8927C142.104 89.9333 141.889 90.0649 141.743 90.2604C141.597 90.4558 141.532 90.7 141.561 90.9421C141.561 90.9421 140.903 95.3823 138.497 96.9485C132.846 100.653 125.832 97.6611 114.664 95.2883C114.43 95.2088 114.182 95.1795 113.935 95.2022C113.692 95.1838 113.447 95.2131 113.214 95.2883C102.054 97.6376 95.0322 100.653 89.3737 96.9485C86.9834 95.3823 86.3015 90.9813 86.3094 90.9421C86.3414 90.7013 86.2797 90.4574 86.137 90.2608C85.9897 90.0662 85.774 89.9346 85.5335 89.8927C84.8438 89.7988 84.5225 90.3861 84.5068 90.9108C84.7719 93.5459 85.9996 95.991 87.9552 97.7786C90.1496 99.7285 94.0682 100.418 98.4178 99.9713C102.767 99.5249 107.956 98.1545 113.982 96.8389C120.017 98.1153 125.252 99.5014 129.555 99.9713C133.857 100.441 137.831 99.7285 140.018 97.7786C141.956 95.9909 143.174 93.5567 143.442 90.9343C143.356 90.3861 143.066 89.7988 142.345 89.8927Z" fill="#535C62"/>
</g>
<path d="M114.045 94.3015V95.993C108.01 97.2616 102.642 98.6712 98.3705 99.1254C94.0992 99.5796 90.1022 98.867 87.9078 96.9249C85.9661 95.1394 84.7474 92.704 84.483 90.0806C84.4679 89.9425 84.4842 89.8028 84.5306 89.6719C84.5769 89.541 84.6523 89.4223 84.7509 89.3244C84.8496 89.2266 84.969 89.1523 85.1004 89.1069C85.2317 89.0616 85.3716 89.0464 85.5097 89.0625C85.7521 89.0993 85.9704 89.2301 86.117 89.4265C86.2637 89.6229 86.3271 89.8691 86.2934 90.1119C86.2934 90.198 86.9831 94.5599 89.3577 96.1183C95.0162 99.8145 101.999 96.7448 113.159 94.3641C113.45 94.3026 113.748 94.2815 114.045 94.3015Z" fill="#525B61"/>
<path d="M143.372 90.0493C143.104 92.6718 141.886 95.106 139.947 96.8936C137.76 98.8357 133.834 99.5405 129.484 99.0942C125.135 98.6478 120.08 97.293 114.045 95.9618V94.2703C114.248 94.2586 114.451 94.2906 114.641 94.3642C125.801 96.7135 132.823 99.7285 138.473 96.0244C140.864 94.4582 141.538 90.1042 141.538 90.018C141.505 89.776 141.57 89.5311 141.718 89.3367C141.864 89.1409 142.08 89.009 142.321 88.9687C142.465 88.9575 142.609 88.978 142.744 89.0288C142.878 89.0797 143 89.1595 143.1 89.2627C143.201 89.3658 143.277 89.4898 143.324 89.6258C143.371 89.7617 143.387 89.9064 143.372 90.0493Z" fill="#525B61"/>
<g style="mix-blend-mode:multiply" opacity="0.2">
<path d="M143.373 90.0493C143.105 92.6718 141.887 95.106 139.948 96.8936C137.761 98.8357 133.835 99.5405 129.485 99.0942C125.135 98.6478 120.081 97.293 114.046 95.9618V94.2703C114.249 94.2586 114.452 94.2906 114.642 94.3642C125.802 96.7135 132.824 99.7285 138.474 96.0244C140.865 94.4582 141.539 90.1042 141.539 90.018C141.506 89.776 141.571 89.5311 141.719 89.3367C141.865 89.1409 142.081 89.009 142.322 88.9687C142.466 88.9575 142.61 88.978 142.745 89.0288C142.879 89.0797 143.001 89.1595 143.101 89.2627C143.202 89.3658 143.278 89.4898 143.325 89.6258C143.372 89.7617 143.388 89.9064 143.373 90.0493Z" fill="#474F55"/>
</g>
<path opacity="0.5" d="M157.416 53.7446C157.414 51.7832 156.831 49.8662 155.738 48.2364C154.646 46.6066 153.095 45.3371 151.28 44.5886C149.466 43.8401 147.47 43.6463 145.545 44.0316C143.62 44.417 141.853 45.3641 140.467 46.7533C139.081 48.1425 138.139 49.9112 137.759 51.8357C137.38 53.7601 137.58 55.7538 138.335 57.5645C139.09 59.3752 140.365 60.9215 142 62.0077C143.634 63.0939 145.555 63.6712 147.518 63.6665C150.146 63.6603 152.665 62.612 154.521 60.7517C156.377 58.8914 157.418 56.3713 157.416 53.7446Z" fill="#525B61"/>
<path d="M156.696 53.745C156.694 51.926 156.153 50.1484 155.14 48.637C154.127 47.1257 152.688 45.9485 151.005 45.2546C149.322 44.5607 147.471 44.3811 145.686 44.7386C143.901 45.0961 142.263 45.9747 140.978 47.2631C139.693 48.5515 138.819 50.1919 138.467 51.9766C138.116 53.7613 138.302 55.6102 139.002 57.2892C139.702 58.9683 140.885 60.402 142.401 61.4091C143.917 62.4161 145.698 62.9511 147.518 62.9465C149.956 62.9403 152.291 61.9678 154.012 60.2427C155.733 58.5175 156.698 56.1806 156.696 53.745Z" fill="#525B61"/>
<path d="M145.425 51.521C145.423 51.1945 145.325 50.8758 145.142 50.6051C144.959 50.3344 144.701 50.1239 144.398 50C144.096 49.8761 143.764 49.8445 143.443 49.9092C143.123 49.9738 142.829 50.1318 142.599 50.3632C142.368 50.5946 142.212 50.889 142.148 51.2093C142.085 51.5296 142.118 51.8615 142.244 52.1629C142.369 52.4644 142.581 52.722 142.853 52.9032C143.125 53.0844 143.444 53.1811 143.771 53.1812C143.989 53.1812 144.204 53.1381 144.406 53.0546C144.607 52.9711 144.789 52.8487 144.943 52.6944C145.097 52.5402 145.218 52.3571 145.301 52.1557C145.384 51.9543 145.426 51.7386 145.425 51.521Z" fill="#E6F4FD"/>
<path d="M147.517 48.1616C147.517 47.9556 147.456 47.7542 147.342 47.5829C147.227 47.4117 147.064 47.2782 146.874 47.1993C146.683 47.1205 146.474 47.0999 146.272 47.1401C146.069 47.1803 145.884 47.2795 145.738 47.4251C145.592 47.5708 145.493 47.7563 145.453 47.9584C145.412 48.1604 145.433 48.3698 145.512 48.5602C145.591 48.7505 145.724 48.9131 145.896 49.0276C146.067 49.142 146.269 49.2031 146.475 49.2031C146.751 49.2011 147.015 49.0907 147.21 48.8958C147.405 48.7009 147.515 48.4372 147.517 48.1616Z" fill="#E6F4FD"/>
<path d="M138.842 40.0955C139.571 40.6045 142.596 37.0962 150.519 36.6968C156.483 36.3914 157.299 37.1354 157.753 37.3076C158.349 37.5269 159.689 38.0124 160.245 37.6679C160.802 37.3233 160.817 36.5245 159.125 35.3186C157.432 34.1126 153.302 33.7524 148.058 34.4102C142.815 35.068 138.372 39.0461 138.372 39.0461C138.372 39.0461 138.113 39.5865 138.842 40.0955Z" fill="#525B61"/>
<g style="mix-blend-mode:multiply" opacity="0.5">
<path d="M92.4927 58.9838C84.4784 56.2311 75.9395 55.3497 67.5312 56.4074C70.0627 52.6094 75.1333 50.2992 80.7212 50.8787C86.3092 51.4582 90.7842 54.7551 92.4927 58.9838Z" fill="#525B61"/>
</g>
<path d="M91.6306 58.1068C84.2425 55.8119 76.4704 55.0132 68.7695 55.7575C71.0345 52.7504 75.6506 50.9571 80.7683 51.4817C85.8859 52.0064 90.0161 54.7081 91.6306 58.1068Z" fill="#525B61"/>
<path d="M89.6087 44.4811C89.6087 44.4811 85.1571 40.5186 79.9141 39.8529C74.671 39.1873 70.5095 39.524 68.848 40.7613C67.1865 41.9986 67.1787 42.7974 67.7351 43.1106C68.2915 43.4239 69.6317 42.9697 70.2273 42.7504C70.6819 42.5781 71.4891 41.8263 77.461 42.1317C85.3766 42.539 88.4331 46.0473 89.1384 45.5304C89.8438 45.0136 89.6087 44.4811 89.6087 44.4811Z" fill="#525B61"/>
<g style="mix-blend-mode:multiply" opacity="0.2">
<path d="M156.851 53.596C156.849 51.778 156.308 50.0013 155.296 48.4904C154.285 46.9796 152.847 45.8024 151.166 45.1078C149.484 44.4132 147.635 44.2322 145.85 44.5878C144.066 44.9435 142.427 45.8197 141.141 47.1057C139.855 48.3918 138.98 50.03 138.625 51.8131C138.271 53.5963 138.454 55.4444 139.15 57.1239C139.847 58.8034 141.026 60.2387 142.539 61.2486C144.052 62.2585 145.831 62.7975 147.65 62.7975C150.091 62.7954 152.431 61.825 154.157 60.0996C155.882 58.3743 156.851 56.035 156.851 53.596Z" fill="#474F55"/>
</g>
<path d="M145.583 51.372C145.584 51.0433 145.488 50.7216 145.306 50.4475C145.125 50.1735 144.866 49.9595 144.562 49.8326C144.259 49.7058 143.925 49.6718 143.602 49.7349C143.279 49.7981 142.982 49.9556 142.749 50.1875C142.516 50.4193 142.357 50.7151 142.292 51.0374C142.228 51.3596 142.26 51.6938 142.385 51.9977C142.511 52.3015 142.724 52.5612 142.997 52.744C143.271 52.9268 143.592 53.0243 143.921 53.0244C144.361 53.0244 144.782 52.8505 145.093 52.5409C145.405 52.2312 145.581 51.811 145.583 51.372Z" fill="#E6F4FD"/>
<path d="M147.658 48.0048C147.658 47.7988 147.597 47.5974 147.482 47.4261C147.368 47.2549 147.205 47.1214 147.015 47.0425C146.824 46.9637 146.614 46.9431 146.412 46.9833C146.21 47.0235 146.024 47.1226 145.879 47.2683C145.733 47.414 145.633 47.5996 145.593 47.8016C145.553 48.0036 145.574 48.213 145.653 48.4034C145.731 48.5937 145.865 48.7563 146.036 48.8708C146.208 48.9852 146.409 49.0463 146.616 49.0463C146.753 49.0474 146.889 49.0211 147.016 48.9692C147.143 48.9172 147.258 48.8405 147.355 48.7436C147.452 48.6467 147.529 48.5314 147.581 48.4046C147.633 48.2778 147.659 48.1418 147.658 48.0048Z" fill="#E6F4FD"/>
<path d="M138.991 39.9385C139.728 40.4476 142.753 36.9471 150.669 36.5399C156.641 36.2345 157.456 36.9863 157.902 37.1585C158.498 37.3778 159.846 37.8633 160.395 37.5188C160.943 37.1742 160.967 36.3676 159.282 35.1303C157.597 33.893 153.459 33.5641 148.216 34.2298C142.973 34.8954 138.521 38.85 138.521 38.85C138.521 38.85 138.263 39.4295 138.991 39.9385Z" fill="#525B61"/>
<g opacity="0.33">
<path opacity="0.33" d="M118.654 109.525C117.498 109.812 116.317 109.988 115.127 110.05L114.077 110.097L113.027 110.05C111.837 109.988 110.656 109.813 109.5 109.525C108.317 109.228 106.89 109.737 107.149 110.629C107.407 111.522 109.249 112.634 111.154 113.128C113.054 113.613 115.045 113.613 116.945 113.128C118.842 112.634 120.652 111.561 120.942 110.629C121.232 109.698 119.837 109.196 118.654 109.525Z" fill="#535C62"/>
</g>
<path d="M105.299 107.285C106.629 108.085 108.056 108.709 109.547 109.141C112.517 109.989 115.671 109.954 118.622 109.04C120.108 108.586 121.526 107.935 122.838 107.105C121.648 108.15 120.274 108.966 118.787 109.509C115.763 110.658 112.43 110.694 109.382 109.611C107.89 109.091 106.507 108.303 105.299 107.285Z" fill="#535C62"/>
<path d="M19.545 187.765C19.545 187.765 20.1407 185.416 20.5325 183.661C20.9244 181.907 22.1548 176.042 21.4808 171.915C21.3379 170.577 20.8952 169.287 20.1857 168.143C19.4761 166.999 18.5178 166.029 17.382 165.306C16.0026 164.35 10.8457 164.891 8.82374 167.694C7.85457 168.998 7.1873 170.5 6.87014 172.093C6.55299 173.685 6.59387 175.328 6.98983 176.903C7.69518 180.443 8.65132 184.969 8.61997 186.935C8.58862 188.9 8.11839 191.829 8.11839 192.37C8.11839 192.91 13.6044 193.082 14.7722 192.62C15.9399 192.158 19.8585 191.156 19.788 189.613C19.8061 188.988 19.7241 188.364 19.545 187.765Z" fill="#3C454A"/>
<g style="mix-blend-mode:multiply" opacity="0.12">
<path d="M38.9963 212.409C37.3874 213.057 35.6872 213.451 33.957 213.576H33.7297C33.2974 213.616 32.8681 213.684 32.4444 213.779C32.4444 213.779 32.5933 214.085 32.7422 214.422C32.8911 214.758 33.0244 215.009 33.0871 215.15C33.6259 216.277 33.8637 217.524 33.7772 218.77C33.6906 220.016 33.2828 221.219 32.5933 222.26C31.2218 224.414 22.0523 225.8 22.0523 225.8C21.3313 225.855 14.2151 227.061 9.6382 224.931C5.56287 223.036 2.36529 218.462 1.5659 213.967C0.766509 209.472 2.92956 191.939 7.34974 189.472C11.7699 187.005 21.6134 188.36 27.2562 189.895C32.899 191.43 35.5558 192.761 36.0182 193.333C37.5386 195.212 38.3145 198.893 36.2376 200.984C36.0143 201.203 35.7672 201.398 35.5009 201.563C35.935 201.648 36.362 201.766 36.7784 201.915C37.9436 202.323 39.0382 202.91 40.023 203.654C41.3553 204.68 42.2957 210.929 38.9963 212.409Z" fill="#3C454A"/>
</g>
<path d="M38.095 211.508C36.486 212.156 34.7859 212.55 33.0556 212.675H32.8284C32.3904 212.72 31.9559 212.793 31.5274 212.894C31.5274 212.894 31.6763 213.2 31.8252 213.537C31.9741 213.873 32.1073 214.124 32.17 214.265C32.7089 215.392 32.9467 216.639 32.8602 217.885C32.7736 219.131 32.3658 220.334 31.6763 221.375C30.3048 223.529 21.1353 224.915 21.1353 224.915C20.4143 224.97 13.2981 226.176 8.72119 224.046C4.64586 222.151 1.4483 217.577 0.648909 213.082C-0.150483 208.587 2.01257 191.054 6.43274 188.587C10.8529 186.12 20.6964 187.475 26.3392 189.01C31.982 190.545 34.6387 191.876 35.1011 192.448C36.6216 194.327 37.3974 198.008 35.3206 200.098C35.0973 200.318 34.8502 200.513 34.5839 200.678C35.0179 200.763 35.445 200.881 35.8614 201.03C37.0266 201.438 38.1212 202.025 39.1059 202.769C40.4539 203.779 41.3944 210.028 38.095 211.508Z" fill="#515A60"/>
<path d="M35.8692 201.015C35.8252 201.023 35.78 201.023 35.736 201.015C35.3128 201.015 22.3423 200.459 21.1902 200.436C20.0382 200.412 20.0303 200.24 19.9833 200.208C19.9363 200.177 19.8423 200.099 22.9614 200.208C26.0806 200.318 29.5368 200.208 31.9506 200.208C33.4475 200.208 34.6466 200.138 35.3285 200.091C35.1108 200.311 34.8689 200.505 34.6074 200.67C35.0361 200.753 35.4579 200.869 35.8692 201.015Z" fill="#3C454A"/>
<path d="M32.8287 212.707C32.3915 212.742 31.9569 212.804 31.5277 212.895C31.5277 212.895 31.6766 213.2 31.8255 213.537H31.5512C30.9478 213.537 20.5165 212.206 20.1168 212.159C19.7171 212.112 20.4146 211.791 20.4146 211.791C20.4146 211.791 26.0887 212.347 28.6907 212.574C30.1484 212.691 31.8255 212.699 33.0403 212.675L32.8287 212.707Z" fill="#3C454A"/>
<path d="M208.647 187.765C208.647 187.765 208.043 185.416 207.659 183.661C207.275 181.907 206.029 176.042 206.703 171.915C206.849 170.577 207.293 169.289 208.002 168.145C208.711 167.002 209.668 166.031 210.802 165.306C212.181 164.35 217.346 164.891 219.36 167.694C220.333 169.002 221.001 170.51 221.317 172.108C221.633 173.707 221.588 175.356 221.186 176.935C220.473 180.474 219.517 185.001 219.556 186.966C219.595 188.932 220.05 191.86 220.05 192.401C220.05 192.941 214.564 193.113 213.404 192.651C212.244 192.189 208.31 191.187 208.38 189.644C208.362 189.007 208.452 188.372 208.647 187.765Z" fill="#3C454A"/>
<g style="mix-blend-mode:multiply" opacity="0.3">
<path d="M208.647 187.765C208.647 187.765 208.043 185.416 207.659 183.661C207.275 181.907 206.029 176.042 206.703 171.915C206.849 170.577 207.293 169.289 208.002 168.145C208.711 167.002 209.668 166.031 210.802 165.306C212.181 164.35 217.346 164.891 219.36 167.694C220.333 169.002 221.001 170.51 221.317 172.108C221.633 173.707 221.588 175.356 221.186 176.935C220.473 180.474 219.517 185.001 219.556 186.966C219.595 188.932 220.05 191.86 220.05 192.401C220.05 192.941 214.564 193.113 213.404 192.651C212.244 192.189 208.31 191.187 208.38 189.644C208.362 189.007 208.452 188.372 208.647 187.765Z" fill="#3C454A"/>
</g>
<g style="mix-blend-mode:multiply" opacity="0.12">
<path d="M189.164 212.409C190.773 213.057 192.473 213.451 194.204 213.576H194.431C194.861 213.616 195.287 213.684 195.708 213.779L195.411 214.422C195.277 214.711 195.136 215.009 195.066 215.15C194.531 216.278 194.296 217.525 194.384 218.771C194.472 220.016 194.879 221.218 195.567 222.26C196.939 224.414 206.1 225.8 206.1 225.8C206.821 225.855 213.977 227.061 218.515 224.931C222.59 223.036 225.795 218.462 226.595 213.967C227.394 209.472 225.223 191.939 220.811 189.472C216.398 187.005 206.547 188.36 200.904 189.895C195.262 191.43 192.597 192.761 192.142 193.333C190.614 195.212 189.838 198.893 191.923 200.984C192.145 201.201 192.389 201.396 192.652 201.563C192.228 201.655 191.812 201.778 191.406 201.931C190.239 202.336 189.144 202.922 188.161 203.67C186.805 204.68 185.865 210.929 189.164 212.409Z" fill="#3C454A"/>
</g>
<path d="M190.066 211.508C191.675 212.156 193.375 212.55 195.105 212.675H195.332C195.762 212.715 196.189 212.783 196.61 212.879L196.312 213.521L195.975 214.249C195.436 215.376 195.198 216.623 195.285 217.869C195.371 219.115 195.779 220.318 196.469 221.36C197.84 223.513 207.002 224.899 207.002 224.899C207.723 224.954 214.878 226.16 219.416 224.03C223.491 222.135 226.697 217.562 227.496 213.067C228.296 208.572 226.125 191.038 221.712 188.571C217.3 186.104 207.449 187.459 201.806 188.994C196.163 190.529 193.498 191.86 193.044 192.432C191.516 194.311 190.74 197.992 192.825 200.083C193.047 200.301 193.291 200.495 193.553 200.662C193.122 200.748 192.698 200.866 192.284 201.015C191.117 201.419 190.022 202.006 189.039 202.753C187.707 203.779 186.766 210.028 190.066 211.508Z" fill="#515A60"/>
<path d="M190.066 211.508C191.675 212.156 193.375 212.55 195.105 212.675H195.332C195.762 212.715 196.189 212.783 196.61 212.879L196.312 213.521L195.975 214.249C195.436 215.376 195.198 216.623 195.285 217.869C195.371 219.115 195.779 220.318 196.469 221.36C197.84 223.513 207.002 224.899 207.002 224.899C207.723 224.954 214.878 226.16 219.416 224.03C223.491 222.135 226.697 217.562 227.496 213.067C228.296 208.572 226.125 191.038 221.712 188.571C217.3 186.104 207.449 187.459 201.806 188.994C196.163 190.529 193.498 191.86 193.044 192.432C191.516 194.311 190.74 197.992 192.825 200.083C193.047 200.301 193.291 200.495 193.553 200.662C193.122 200.748 192.698 200.866 192.284 201.015C191.117 201.419 190.022 202.006 189.039 202.753C187.707 203.779 186.766 210.028 190.066 211.508Z" fill="#3C444A"/>
<path d="M192.283 201.015C192.327 201.023 192.372 201.023 192.416 201.015C192.847 201.015 205.818 200.459 206.962 200.436C208.106 200.412 208.122 200.24 208.177 200.208C208.232 200.177 208.318 200.099 205.199 200.208C202.08 200.318 198.623 200.208 196.21 200.208C194.713 200.208 193.514 200.138 192.832 200.091C193.048 200.312 193.29 200.507 193.553 200.67C193.122 200.754 192.697 200.869 192.283 201.015Z" fill="#3C454A"/>
<path d="M195.324 212.707C195.754 212.747 196.18 212.815 196.601 212.91L196.304 213.553H196.586C197.189 213.553 207.621 212.221 208.012 212.174C208.404 212.127 207.715 211.806 207.715 211.806C207.715 211.806 202.048 212.362 199.446 212.589C197.981 212.707 196.311 212.715 195.097 212.691L195.324 212.707Z" fill="#3C454A"/>
<g style="mix-blend-mode:multiply" opacity="0.3">
<path d="M192.283 201.015C192.327 201.023 192.372 201.023 192.416 201.015C192.847 201.015 205.818 200.459 206.962 200.436C208.106 200.412 208.122 200.24 208.177 200.208C208.232 200.177 208.318 200.099 205.199 200.208C202.08 200.318 198.623 200.208 196.21 200.208C194.713 200.208 193.514 200.138 192.832 200.091C193.048 200.312 193.29 200.507 193.553 200.67C193.122 200.754 192.697 200.869 192.283 201.015Z" fill="#3C454A"/>
</g>
<g style="mix-blend-mode:multiply" opacity="0.3">
<path d="M195.325 212.707C195.755 212.747 196.181 212.815 196.602 212.91L196.305 213.553H196.587C197.19 213.553 207.621 212.221 208.013 212.174C208.405 212.127 207.715 211.806 207.715 211.806C207.715 211.806 202.049 212.362 199.447 212.589C197.982 212.707 196.312 212.715 195.098 212.691L195.325 212.707Z" fill="#3C454A"/>
</g>
</svg>
