<svg width="198" height="54" viewBox="0 0 198 54" fill="none" xmlns="http://www.w3.org/2000/svg">
<g filter="url(#filter0_d)">
<path d="M16.3986 32.3224C18.9353 33.643 21.6443 34.2706 24.4584 33.874C28.7981 33.2659 33.0627 33.4565 37.2498 34.7799C39.6169 35.5272 41.9248 36.4638 44.2406 37.424C40.3559 36.3552 36.4739 36.1715 32.6906 37.662C30.7575 38.426 28.994 39.6534 27.0964 40.5356C24.7675 41.6197 22.4438 42.8109 20.0031 43.5053C16.1421 44.6061 9.98382 42.8541 7.14991 40.1376L12.3838 31.2717L7.01183 28.4133L12.435 19.2885L7 16.3884L13.0163 6.30762C13.2472 6.40616 13.4702 6.52437 13.683 6.66109C17.3375 9.5612 21.472 10.4031 25.9129 9.81865C29.9408 9.28984 33.8833 9.72541 37.7377 10.9779C40.018 11.7182 42.2456 12.6478 44.4733 13.5662C40.4401 12.4223 36.4108 12.2066 32.4683 13.7861C30.6128 14.5292 28.8927 15.6537 27.1109 16.6027C24.7228 17.8761 22.3873 19.308 19.673 19.6726C18.5342 19.8257 17.3809 19.841 15.8594 19.944C16.438 20.3406 16.7181 20.6092 17.0429 20.7456C19.6467 21.8268 22.3031 22.2763 25.1278 21.8922C29.3267 21.3106 33.4967 21.6139 37.5536 22.9624C39.8154 23.7166 42.0405 24.5906 44.2603 25.5118C40.3796 24.4584 36.5134 24.2705 32.7116 25.715C31.1415 26.3134 29.7081 27.2875 28.1734 27.9986C25.4776 29.2427 22.7818 30.5147 20.0202 31.5611C18.9169 31.9786 17.6216 31.8311 16.4144 31.9397L16.3986 32.3224Z" fill="#C8C8C8"/>
</g>
<path d="M88.9874 18.5329V42.0901H83.6812V23.3145C80.9196 23.4634 78.2712 23.3632 75.7081 23.8127C72.9045 24.3039 71.0753 27.0955 70.8504 30.4284C70.6229 33.8239 72.0221 36.6308 74.7547 37.7065C76.2013 38.2771 77.8109 38.4121 79.2561 38.7238C77.2612 39.4265 74.6535 39.5003 73.7632 42.5521C71.1331 41.5599 69.0028 39.9846 67.234 37.1944V42.1541H49.8203V7.26782H55.0607V36.9662H66.9658C66.5976 35.7402 66.1347 34.5754 65.9019 33.3591C64.6 26.5917 68.2611 20.2696 74.7127 19.2009C79.3613 18.4327 84.1599 18.7194 88.9874 18.5329Z" fill="#C8C8C8"/>
<path d="M120.869 6.07236C123.499 18.0611 126.13 30.0513 128.783 42.1513H123.728C122.271 35.1195 120.806 28.0445 119.473 21.6042L109.331 43.7531C105.858 36.0547 102.523 28.6485 99.1883 21.2535C97.7773 28.1837 96.3518 35.1863 94.925 42.1917H89.916C92.5185 30.0847 95.1012 18.0555 97.6853 6.03201L97.9483 6C101.746 14.6716 105.55 23.3553 109.361 32.051L120.6 6.0501L120.869 6.07236Z" fill="#C8C8C8"/>
<path d="M196.607 34.3848C194.874 40.4467 188.296 43.9465 182.194 42.2182C177.284 40.8266 172.4 34.755 174.11 27.2473C175.293 22.0552 180.531 16.8882 187.954 18.4426C190.928 19.0552 193.558 20.8747 195.28 23.5122C197.003 26.1497 197.682 29.3957 197.173 32.5563H179.288C179.791 35.0152 181.036 36.5919 183.091 37.4032C188.82 39.4336 191.038 34.3806 191.038 34.3806C191.63 34.4057 195.918 34.3848 196.607 34.3848ZM191.764 28.2131C191.089 24.9052 188.396 22.8081 185.066 22.943C182.339 23.0544 179.756 25.4201 179.388 28.2131H191.764Z" fill="#C8C8C8"/>
<path d="M151.49 30.4451C151.481 37.1847 146.064 42.7483 139.574 42.6829C133.064 42.6175 127.809 37.1165 127.823 30.3881C127.838 23.6597 133.14 18.2144 139.673 18.2366C146.206 18.2589 151.49 23.746 151.49 30.4451ZM146.265 30.4744C146.265 26.2703 143.397 22.9736 139.711 22.9597C136.025 22.9458 133.069 26.2342 133.036 30.3853C133.002 34.5949 135.963 37.9737 139.684 37.9695C143.37 37.9598 146.256 34.6742 146.261 30.4744H146.265Z" fill="#C8C8C8"/>
<path d="M154.158 24.1773H150.438V19.5599H154.12V11.0349H158.986V19.4945H162.536V24.1272H159.03V42.1597H154.157L154.158 24.1773Z" fill="#C8C8C8"/>
<path d="M166.341 24.176H162.843V19.5586H166.295V11.0378H171.171V19.4946H174.938V24.1217H171.216V42.1611H166.339L166.341 24.176Z" fill="#C8C8C8"/>
<path d="M197.352 13.0139C197.352 14.0966 196.458 15.0359 195.412 15.0512C194.9 15.0512 194.41 14.8361 194.048 14.4533C193.686 14.0704 193.483 13.5511 193.483 13.0097C193.483 12.4683 193.686 11.949 194.048 11.5662C194.41 11.1833 194.9 10.9683 195.412 10.9683C196.464 10.9864 197.351 11.9312 197.352 13.0139ZM195.412 11.3064C194.989 11.3084 194.583 11.4855 194.282 11.8C193.981 12.1144 193.808 12.5412 193.801 12.9888C193.793 13.4365 193.951 13.8695 194.242 14.1951C194.532 14.5208 194.931 14.7132 195.354 14.7311C195.777 14.7292 196.183 14.552 196.484 14.2376C196.785 13.9231 196.958 13.4964 196.966 13.0487C196.973 12.601 196.815 12.168 196.525 11.8424C196.234 11.5167 195.835 11.3244 195.412 11.3064Z" fill="#C8C8C8"/>
<path d="M194.648 12.1567H194.943V14.0864H194.648V12.1567ZM194.78 13.0129H195.493C195.545 13.0141 195.596 13.0011 195.642 12.9753C195.684 12.9518 195.719 12.9155 195.742 12.8709C195.766 12.8225 195.778 12.7684 195.777 12.7136C195.778 12.6588 195.766 12.6046 195.742 12.5563C195.719 12.5117 195.685 12.4749 195.643 12.4504C195.597 12.4251 195.545 12.4127 195.493 12.4142H194.78V12.1567H195.483C195.592 12.1542 195.701 12.1775 195.801 12.2249C195.889 12.2668 195.963 12.3351 196.014 12.4212C196.054 12.4859 196.079 12.5588 196.09 12.635C196.1 12.7112 196.095 12.7889 196.075 12.8628C196.055 12.9368 196.02 13.0052 195.972 13.0635C195.925 13.1219 195.866 13.1687 195.8 13.2009C195.7 13.2488 195.592 13.2725 195.483 13.2705H194.78V13.0129ZM195.35 13.2106L195.642 13.1494L196.177 14.0864H195.829L195.35 13.2106Z" fill="#C8C8C8"/>
<defs>
<filter id="filter0_d" x="0" y="0.307617" width="53.4733" height="53.5313" filterUnits="userSpaceOnUse" color-interpolation-filters="sRGB">
<feFlood flood-opacity="0" result="BackgroundImageFix"/>
<feColorMatrix in="SourceAlpha" type="matrix" values="0 0 0 0 0 0 0 0 0 0 0 0 0 0 0 0 0 0 127 0"/>
<feOffset dx="1" dy="2"/>
<feGaussianBlur stdDeviation="4"/>
<feColorMatrix type="matrix" values="0 0 0 0 1 0 0 0 0 1 0 0 0 0 1 0 0 0 1 0"/>
<feBlend mode="multiply" in2="BackgroundImageFix" result="effect1_dropShadow"/>
<feBlend mode="normal" in="SourceGraphic" in2="effect1_dropShadow" result="shape"/>
</filter>
</defs>
</svg>
