<svg width="15" height="15" viewBox="0 0 15 15" fill="none" xmlns="http://www.w3.org/2000/svg">
<path d="M14.0625 6.19755H2.94375L6.34688 1.69494C6.50601 1.48404 6.58256 1.21215 6.55971 0.939072C6.53685 0.665997 6.41645 0.414107 6.225 0.238816C6.03355 0.0635258 5.78672 -0.0208073 5.53882 0.00436991C5.29092 0.0295471 5.06225 0.162172 4.90312 0.373069L0.215625 6.56932C0.184088 6.61861 0.155887 6.67039 0.13125 6.72423C0.13125 6.77587 0.13125 6.80685 0.0656252 6.85848C0.0231316 6.97689 0.000882301 7.10294 0 7.23026C0.000882301 7.35758 0.0231316 7.48363 0.0656252 7.60203C0.0656252 7.65367 0.0656249 7.68465 0.13125 7.73629C0.155887 7.79013 0.184088 7.84191 0.215625 7.89119L4.90312 14.0875C4.99127 14.204 5.10165 14.2978 5.22642 14.362C5.35118 14.4263 5.48727 14.4595 5.625 14.4592C5.84405 14.4597 6.05633 14.3757 6.225 14.2217C6.31993 14.135 6.3984 14.0285 6.45592 13.9084C6.51344 13.7882 6.54887 13.6568 6.56019 13.5215C6.57151 13.3862 6.5585 13.2498 6.52189 13.1201C6.48529 12.9904 6.42581 12.8699 6.34688 12.7656L2.94375 8.26297H14.0625C14.3111 8.26297 14.5496 8.15417 14.7254 7.96049C14.9012 7.76682 15 7.50415 15 7.23026C15 6.95637 14.9012 6.69369 14.7254 6.50002C14.5496 6.30635 14.3111 6.19755 14.0625 6.19755Z" fill="white"/>
</svg>
