<svg width="239" height="49" viewBox="0 0 239 49" fill="none" xmlns="http://www.w3.org/2000/svg">
<path d="M20.3907 43.1661C9.12207 43.1921 0.106522 33.6969 0.000858433 21.6884C-0.101554 9.84622 8.97252 0.124099 20.2444 0.00112187C31.3114 -0.120123 40.4912 9.602 40.5188 21.4788C40.5448 33.5358 31.6366 43.1384 20.3907 43.1661ZM14.5516 26.843C14.02 26.8153 13.5193 26.8015 13.0202 26.7564C10.681 26.5469 8.88148 24.6069 8.63114 22.04C8.40681 19.7121 9.85359 17.2647 12.0108 16.7087C13.2966 16.3779 14.6686 16.4333 16.1121 16.3051V17.9211C16.1121 22.7709 16.0959 27.6311 16.1268 32.4861C16.1414 34.575 17.2517 35.7771 19.126 35.8429C19.1941 35.7089 19.2408 35.5637 19.2642 35.4133C19.2739 28.2339 19.2853 21.0562 19.2414 13.8785C19.2414 13.5996 18.7033 13.0973 18.4026 13.0852C16.6144 13.0142 14.8182 12.9709 13.0381 13.0852C11.0935 13.2116 9.25751 14.0834 7.86905 15.5396C6.48059 16.9958 5.63343 18.938 5.48399 21.0077C5.1865 25.1162 7.86224 28.9752 11.6743 29.9487C14.5239 30.6727 15.0018 30.2189 14.654 27.1115C14.6273 27.019 14.593 26.9292 14.5516 26.843ZM21.3791 7.41959V30.1097C23.6012 30.1097 25.7942 30.3314 27.9237 30.0335C29.4129 29.7899 30.8268 29.1738 32.0495 28.2356C34.8634 26.0861 35.8111 22.0556 34.5838 18.6382C33.3418 15.1741 30.1475 12.8825 26.763 13.0835C26.4379 13.1025 25.908 13.4455 25.8738 13.6984C25.7617 14.5401 25.8316 15.4096 25.8316 16.3328C26.4428 16.3744 26.9028 16.3883 27.3612 16.4368C30.5913 16.7832 32.6509 19.8732 31.7325 23.0862C30.8758 26.0619 28.3854 27.4475 24.4628 26.5382V25.0677C24.4628 20.2941 24.4124 15.5205 24.4888 10.7486C24.5165 9.06679 22.9981 7.05932 21.3791 7.41959Z" fill="#C8C8C8"/>
<path d="M140.005 22.8718C140.28 22.8008 140.374 22.8077 140.417 22.761C144.547 18.1831 152.857 20.6565 154.059 28.5339C155.006 34.7503 151.038 40.2081 145.484 40.2237C143.244 40.2237 141.447 39.226 139.906 37.2289C139.856 38.1452 139.818 38.8588 139.776 39.6365H135.27V10.7629H140.005V22.8718ZM139.901 30.4271C139.924 33.4825 141.994 35.8381 144.625 35.7965C147.257 35.7549 149.227 33.3907 149.229 30.2885C149.231 27.1864 147.243 24.8429 144.593 24.8291C141.998 24.8239 139.874 27.3544 139.901 30.4271Z" fill="#C8C8C8"/>
<path d="M60.2736 37.4818C57.3979 40.3069 54.3776 41.0084 51.0988 39.4339C47.7809 37.8404 46.3309 34.8126 46.1326 31.073C45.8302 25.3485 49.2049 20.9212 54.0525 20.5367C56.1982 20.3635 58.0335 21.0667 59.6087 22.6014L60.4069 23.3912V21.1395H65.0398V48.834H60.2736V37.4818ZM60.415 30.3681C60.415 27.3438 58.3408 24.8704 55.7837 24.8358C53.1015 24.8011 51.0565 27.2018 51.0841 30.3542C51.1101 33.4478 53.1177 35.7947 55.7447 35.8034C58.3717 35.8121 60.4183 33.42 60.4102 30.3681H60.415Z" fill="#C8C8C8"/>
<path d="M217.555 39.7089C215.414 39.7089 213.552 39.7522 211.703 39.6726C211.335 39.657 210.89 39.2482 210.641 38.8966C208.7 36.198 206.796 33.4682 204.682 30.4648V39.631H199.839V10.8403H204.595V28.8904C205.472 27.8147 206.119 27.0249 206.762 26.2281C207.957 24.7507 209.11 23.2316 210.366 21.8165C210.789 21.382 211.341 21.118 211.927 21.07C213.585 20.9747 215.25 21.0354 217.199 21.0354L210.046 29.5018L217.555 39.7089Z" fill="#C8C8C8"/>
<path d="M116.057 10.8198H120.719V28.7781C121.109 28.4005 121.334 28.2255 121.511 28.0073C123.164 25.9669 124.829 23.9352 126.448 21.8636C126.91 21.2712 127.376 20.9872 128.124 21.0149C129.78 21.079 131.44 21.0357 133.384 21.0357L126.232 29.5021L133.749 39.7023C131.577 39.7023 129.621 39.7352 127.67 39.6677C127.381 39.6573 127.053 39.2243 126.833 38.916C124.882 36.181 122.961 33.4322 120.819 30.3837V39.6382H116.057V10.8198Z" fill="#C8C8C8"/>
<path d="M187.164 40.265C181.65 40.2806 177.636 36.0994 177.613 30.3213C177.591 24.6592 181.624 20.5092 187.143 20.5161C192.662 20.5231 196.659 24.6731 196.636 30.3559C196.613 36.0388 192.601 40.2494 187.164 40.265ZM187.089 35.8032C189.768 35.824 191.641 33.6226 191.714 30.394C191.776 27.2001 189.805 24.822 187.107 24.8359C184.434 24.8515 182.542 27.1256 182.555 30.3126C182.558 33.5377 184.415 35.7824 187.089 35.8032Z" fill="#C8C8C8"/>
<path d="M165.901 40.2649C160.374 40.2649 156.383 36.0837 156.388 30.2985C156.388 24.5999 160.392 20.4966 165.919 20.5157C171.384 20.533 175.374 24.6363 175.388 30.2517C175.403 36.0213 171.386 40.2649 165.901 40.2649ZM161.32 30.5462C161.337 30.9533 161.381 31.3586 161.454 31.7586C161.889 33.7003 162.856 35.202 164.778 35.6645C166.478 36.075 168.029 35.6957 169.217 34.2165C170.833 32.1899 170.937 28.634 169.313 26.6144C168.71 25.8703 167.921 25.3242 167.038 25.0399C163.892 24.1357 161.327 26.552 161.32 30.5462Z" fill="#C8C8C8"/>
<path d="M80.7959 21.0942H85.58V39.6066H81.0544V37.2545L80.7861 37.0553C80.5065 37.4208 80.2529 37.8139 79.9441 38.1482C78.1396 40.1037 75.9809 40.6961 73.5278 39.8942C71.1219 39.1095 69.5727 37.2389 69.4346 34.6841C69.194 30.1963 69.3679 25.6773 69.3679 21.1064H74.0155C74.0155 24.141 74.0041 27.1132 74.0236 30.0854C74.0224 31.0375 74.0735 31.9889 74.1764 32.9347C74.3227 34.1991 74.8267 35.292 76.0654 35.6592C76.685 35.8646 77.347 35.8757 77.9724 35.6915C78.5978 35.5072 79.1603 35.1353 79.5929 34.62C80.4724 33.6396 80.8105 32.4359 80.8056 31.097C80.8056 28.1957 80.8056 25.2928 80.8056 22.3916L80.7959 21.0942Z" fill="#C8C8C8"/>
<path d="M217.538 37.2028L220.282 34.3397C221.485 34.9581 222.581 35.7011 223.779 36.0718C224.533 36.3056 225.495 36.1532 226.256 35.857C226.713 35.6838 227.217 34.8957 227.232 34.3726C227.246 33.8495 226.757 33.148 226.303 32.8709C225.578 32.4292 224.699 32.2751 223.886 32.0049C222.997 31.7035 222.074 31.4852 221.227 31.0851C218.219 29.6648 217.41 25.8161 219.508 23.0898C222.221 19.5616 229.408 19.669 232.025 23.2145L229.667 25.998C228.384 25.4299 227.293 24.7855 226.126 24.4893C225.435 24.3161 224.572 24.524 223.884 24.8202C223.48 24.9934 223.033 25.6706 223.033 26.1227C223.033 26.5748 223.494 27.1845 223.904 27.3941C224.699 27.8028 225.604 27.9604 226.453 28.2601C227.412 28.5944 228.404 28.8819 229.303 29.3392C230.993 30.1931 232.118 31.5684 232.193 33.6573C232.273 35.8865 231.515 37.7121 229.709 38.9505C226.284 41.294 220.412 40.4921 217.538 37.2028Z" fill="#C8C8C8"/>
<path d="M113.384 23.1989L110.356 26.4084C110.061 26.1798 109.767 25.92 109.447 25.7156C106.927 24.0614 103.987 25.0227 103.073 27.9967C102.677 29.3323 102.614 30.7547 102.889 32.1242C103.648 35.6455 107.02 36.9013 109.85 34.8869C110.073 34.7275 110.281 34.5405 110.551 34.3326C111.294 35.1727 112.014 35.9816 112.723 36.7939C112.981 37.0918 113.231 37.3984 113.477 37.6911C110.601 41.1327 103.788 41.0773 100.329 37.6443C96.7105 34.0555 96.5625 27.3229 100.015 23.4812C103.468 19.6395 109.912 19.4801 113.384 23.1989Z" fill="#C8C8C8"/>
<path d="M94.3849 21.1118V39.659H89.7031V21.1118H94.3849Z" fill="#C8C8C8"/>
<path d="M79.3141 15.5586H77.3715C77.313 15.2122 77.2544 14.8658 77.191 14.4951C77.0838 14.5355 76.9834 14.594 76.8935 14.6683C75.858 15.8894 74.5884 16.1631 73.1839 15.6071C71.7794 15.0511 71.2332 13.7625 71.2007 12.2607C71.1503 10.2775 71.1877 8.29083 71.1877 6.19849H73.4261C73.4261 7.6465 73.4261 9.12223 73.4261 10.598C73.4261 11.0518 73.4261 11.5108 73.4651 11.9628C73.5578 12.9397 73.8602 13.7538 74.9493 13.8491C75.9686 13.9374 76.8643 13.2896 77.0236 12.117C77.1829 10.9444 77.1309 9.72499 77.1569 8.52639C77.1715 7.78333 77.1569 7.04027 77.1569 6.19849H79.3108L79.3141 15.5586Z" fill="#C8C8C8"/>
<path d="M61.3106 15.5242H59.0445C59.0445 14.0658 59.0445 12.668 59.0445 11.2684C59.06 10.73 59.047 10.191 59.0055 9.6541C58.9031 8.73089 58.591 7.922 57.575 7.8302C56.559 7.7384 55.7982 8.24763 55.5283 9.27997C55.3333 10.0213 55.3349 10.8302 55.317 11.6114C55.2845 12.8862 55.3073 14.1628 55.3073 15.5121H53.1777V6.17777H55.1285C55.1772 6.52419 55.226 6.85849 55.291 7.32962C56.4452 5.86772 57.7912 5.44336 59.329 6.09982C60.901 6.77015 61.2684 8.25283 61.2944 9.86542C61.3334 11.7222 61.3106 13.5791 61.3106 15.5242Z" fill="#C8C8C8"/>
<path d="M64.9027 8.2633L62.4546 8.14552V6.16235H69.5357V8.18189H67.2013V15.4962H64.9027V8.2633Z" fill="#C8C8C8"/>
<path d="M85.4946 8.15403V6.15869H92.6326V8.14537L90.2072 8.25795V15.5066H88.0192V8.27354L85.4946 8.15403Z" fill="#C8C8C8"/>
<path d="M48.6406 6.15527H50.7539V15.479H48.6406V6.15527Z" fill="#C8C8C8"/>
<path d="M83.8407 6.1709V15.4962H81.7437V6.17783L83.8407 6.1709Z" fill="#C8C8C8"/>
<path d="M238.511 37.596C238.496 38.1582 238.278 38.6926 237.903 39.0887C237.528 39.4849 237.025 39.7125 236.497 39.7247C235.966 39.7247 235.457 39.4999 235.081 39.0997C234.706 38.6995 234.495 38.1567 234.495 37.5908C234.495 37.0248 234.706 36.482 235.081 36.0818C235.457 35.6816 235.966 35.4568 236.497 35.4568C237.026 35.4716 237.529 35.7015 237.904 36.0993C238.278 36.4972 238.496 37.0327 238.511 37.596ZM236.501 35.8101C236.055 35.8016 235.624 35.9822 235.303 36.3121C234.982 36.6419 234.798 37.0941 234.79 37.5691C234.782 38.0441 234.951 38.503 235.261 38.8449C235.57 39.1868 235.995 39.3837 236.44 39.3922C236.886 39.4007 237.317 39.2201 237.638 38.8902C237.959 38.5604 238.143 38.1082 238.151 37.6332C238.159 37.1582 237.99 36.6993 237.68 36.3574C237.371 36.0155 236.946 35.8186 236.501 35.8101Z" fill="#C8C8C8"/>
<path d="M14.5519 26.8432C14.592 26.9278 14.6252 27.0158 14.6511 27.1065C14.9989 30.2138 14.521 30.6676 11.6713 29.9436C7.8593 28.9771 5.18357 25.1111 5.48106 21.0027C5.6305 18.933 6.47766 16.9907 7.86612 15.5346C9.25459 14.0784 11.0906 13.2066 13.0352 13.0802C14.8234 12.9728 16.6115 13.0161 18.3997 13.0802C18.7004 13.0923 19.2369 13.5998 19.2385 13.8735C19.2824 21.0512 19.271 28.2289 19.2612 35.4083C19.2379 35.5586 19.1912 35.7038 19.1231 35.8378C17.2488 35.7772 16.1385 34.57 16.1238 32.4811C16.093 27.6313 16.1108 22.7711 16.1092 17.9161V16.2984C14.6657 16.4265 13.2937 16.3711 12.0078 16.7019C9.85066 17.2579 8.40388 19.7053 8.62821 22.0332C8.8753 24.6002 10.6748 26.5366 13.0173 26.7497C13.5196 26.8016 14.0203 26.8155 14.5519 26.8432Z" fill="white"/>
<path d="M21.3794 7.41958C23.005 7.05931 24.5168 9.06678 24.4892 10.7486C24.4128 15.5205 24.4632 20.2941 24.4632 25.0677V26.5382C28.3873 27.4493 30.8761 26.0688 31.7328 23.0741C32.6513 19.8611 30.5949 16.7676 27.3616 16.4246C26.9032 16.3761 26.4431 16.3623 25.8319 16.3207C25.8319 15.3975 25.762 14.528 25.8742 13.6862C25.9083 13.4333 26.4431 13.0904 26.7634 13.0713C30.1479 12.8704 33.3422 15.1637 34.5841 18.6261C35.8114 22.0435 34.8637 26.074 32.0498 28.2235C30.8271 29.1616 29.4133 29.7778 27.924 30.0214C25.7945 30.3193 23.6016 30.0976 21.3794 30.0976V7.41958Z" fill="white"/>
<path d="M66.1144 5.04952C66.7288 5.04952 67.2268 4.51885 67.2268 3.86424C67.2268 3.20962 66.7288 2.67896 66.1144 2.67896C65.5 2.67896 65.002 3.20962 65.002 3.86424C65.002 4.51885 65.5 5.04952 66.1144 5.04952Z" fill="#C8C8C8"/>
<path d="M89.1036 5.04952C89.718 5.04952 90.2161 4.51885 90.2161 3.86424C90.2161 3.20962 89.718 2.67896 89.1036 2.67896C88.4893 2.67896 87.9912 3.20962 87.9912 3.86424C87.9912 4.51885 88.4893 5.04952 89.1036 5.04952Z" fill="#C8C8C8"/>
<path d="M235.99 36.7004H236.207V38.5735H235.99V36.7004ZM236.085 37.5304H236.608C236.647 37.5314 236.685 37.5192 236.717 37.4957C236.75 37.4691 236.775 37.4338 236.79 37.3935C236.808 37.3448 236.817 37.2931 236.816 37.241C236.817 37.1889 236.808 37.1371 236.79 37.0885C236.775 37.0474 236.75 37.0115 236.717 36.9845C236.685 36.9615 236.647 36.9494 236.608 36.9499H236.085V36.7004H236.6C236.682 36.698 236.763 36.7208 236.833 36.7662C236.904 36.8104 236.961 36.8769 236.995 36.9568C237.032 37.0462 237.051 37.1426 237.051 37.2401C237.051 37.3376 237.032 37.434 236.995 37.5234C236.96 37.6025 236.903 37.6688 236.833 37.714C236.763 37.7598 236.682 37.7832 236.6 37.7816H236.085V37.5304ZM236.503 37.7227L236.717 37.6638L237.109 38.5735H236.854L236.503 37.7227Z" fill="#C8C8C8"/>
</svg>
