<svg width="15" height="15" viewBox="0 0 15 15" fill="none" xmlns="http://www.w3.org/2000/svg">
<path d="M0.937988 6.56245H12.0567L8.65361 2.47495C8.49448 2.2835 8.41793 2.03667 8.44078 1.78877C8.46364 1.54088 8.58403 1.31221 8.77549 1.15308C8.96694 0.993948 9.21377 0.91739 9.46167 0.940246C9.70957 0.963102 9.93823 1.0835 10.0974 1.27495L14.7849 6.89995C14.8164 6.94469 14.8446 6.9917 14.8692 7.04058C14.8692 7.08745 14.8692 7.11558 14.9349 7.16245C14.9774 7.26995 14.9996 7.38437 15.0005 7.49995C14.9996 7.61554 14.9774 7.72996 14.9349 7.83745C14.9349 7.88433 14.9349 7.91245 14.8692 7.95933C14.8446 8.00821 14.8164 8.05521 14.7849 8.09995L10.0974 13.725C10.0092 13.8308 9.89884 13.9159 9.77407 13.9742C9.6493 14.0326 9.51322 14.0627 9.37549 14.0625C9.15644 14.0629 8.94416 13.9866 8.77549 13.8468C8.68056 13.7681 8.60209 13.6715 8.54457 13.5624C8.48705 13.4533 8.45162 13.334 8.4403 13.2112C8.42898 13.0884 8.44199 12.9646 8.4786 12.8468C8.5152 12.7291 8.57467 12.6197 8.65361 12.525L12.0567 8.43745H0.937988C0.689348 8.43745 0.450891 8.33868 0.275075 8.16287C0.0992594 7.98705 0.000488281 7.74859 0.000488281 7.49995C0.000488281 7.25131 0.0992594 7.01286 0.275075 6.83704C0.450891 6.66122 0.689348 6.56245 0.937988 6.56245Z" fill="white"/>
</svg>
